<?xml version="1.0" encoding="UTF-8" standalone="no"?>
<!-- Created with Inkscape (http://www.inkscape.org/) -->

<svg
   xmlns:dc="http://purl.org/dc/elements/1.1/"
   xmlns:cc="http://creativecommons.org/ns#"
   xmlns:rdf="http://www.w3.org/1999/02/22-rdf-syntax-ns#"
   xmlns:svg="http://www.w3.org/2000/svg"
   xmlns="http://www.w3.org/2000/svg"
   xmlns:sodipodi="http://sodipodi.sourceforge.net/DTD/sodipodi-0.dtd"
   xmlns:inkscape="http://www.inkscape.org/namespaces/inkscape"
   width="48"
   height="48"
   viewBox="0 0 48 48"
   id="svg2"
   version="1.1"
   inkscape:version="0.92.2 (5c3e80d, 2017-08-06)"
   sodipodi:docname="KNOP_VESTIGEN_NIEUW_BEDRIJF.svg">
  <defs
     id="defs4">
    <filter
       color-interpolation-filters="sRGB"
       inkscape:menu-tooltip="Blur as if the object flies vertically; adjust Standard Deviation to vary force"
       inkscape:menu="Blurs"
       inkscape:label="Motion blur, vertical"
       id="filter3853">
      <feGaussianBlur
         result="fbSourceGraphic"
         stdDeviation="5 0.01"
         in="SourceGraphic"
         id="feGaussianBlur3855" />
      <feColorMatrix
         id="feColorMatrix3857"
         values="0 0 0 -1 0 0 0 0 -1 0 0 0 0 -1 0 0 0 0 1 0"
         in="fbSourceGraphic"
         result="fbSourceGraphicAlpha" />
      <feGaussianBlur
         stdDeviation="0.01 5"
         in="fbSourceGraphic"
         id="feGaussianBlur3859" />
    </filter>
    <inkscape:perspective
       inkscape:persp3d-origin="290 : 193.33333 : 1"
       id="perspective3653-9"
       sodipodi:type="inkscape:persp3d"
       inkscape:vp_x="0 : 290 : 1"
       inkscape:vp_y="0 : 1000 : 0"
       inkscape:vp_z="580 : 290 : 1" />
    <inkscape:perspective
       inkscape:persp3d-origin="290 : 193.33333 : 1"
       id="perspective3653-5-5"
       sodipodi:type="inkscape:persp3d"
       inkscape:vp_x="0 : 290 : 1"
       inkscape:vp_y="0 : 1000 : 0"
       inkscape:vp_z="580 : 290 : 1" />
    <inkscape:perspective
       inkscape:persp3d-origin="290 : 193.33333 : 1"
       id="perspective3653"
       sodipodi:type="inkscape:persp3d"
       inkscape:vp_x="0 : 290 : 1"
       inkscape:vp_y="0 : 1000 : 0"
       inkscape:vp_z="580 : 290 : 1" />
    <inkscape:perspective
       inkscape:persp3d-origin="290 : 193.33333 : 1"
       id="perspective3653-5"
       sodipodi:type="inkscape:persp3d"
       inkscape:vp_x="0 : 290 : 1"
       inkscape:vp_y="0 : 1000 : 0"
       inkscape:vp_z="580 : 290 : 1" />
    <filter
       color-interpolation-filters="sRGB"
       inkscape:menu-tooltip="Blur as if the object flies vertically; adjust Standard Deviation to vary force"
       inkscape:menu="Blurs"
       inkscape:label="Motion blur, vertical"
       id="filter3853-0">
      <feGaussianBlur
         result="fbSourceGraphic"
         stdDeviation="5 0.01"
         in="SourceGraphic"
         id="feGaussianBlur3855-21" />
      <feColorMatrix
         id="feColorMatrix3857-0"
         values="0 0 0 -1 0 0 0 0 -1 0 0 0 0 -1 0 0 0 0 1 0"
         in="fbSourceGraphic"
         result="fbSourceGraphicAlpha" />
      <feGaussianBlur
         stdDeviation="0.01 5"
         in="fbSourceGraphic"
         id="feGaussianBlur3859-0" />
    </filter>
    <inkscape:perspective
       inkscape:persp3d-origin="290 : 193.33333 : 1"
       id="perspective3653-9-4"
       sodipodi:type="inkscape:persp3d"
       inkscape:vp_x="0 : 290 : 1"
       inkscape:vp_y="0 : 1000 : 0"
       inkscape:vp_z="580 : 290 : 1" />
    <inkscape:perspective
       inkscape:persp3d-origin="290 : 193.33333 : 1"
       id="perspective3653-5-5-2"
       sodipodi:type="inkscape:persp3d"
       inkscape:vp_x="0 : 290 : 1"
       inkscape:vp_y="0 : 1000 : 0"
       inkscape:vp_z="580 : 290 : 1" />
    <inkscape:perspective
       inkscape:persp3d-origin="290 : 193.33333 : 1"
       id="perspective3653-2"
       sodipodi:type="inkscape:persp3d"
       inkscape:vp_x="0 : 290 : 1"
       inkscape:vp_y="0 : 1000 : 0"
       inkscape:vp_z="580 : 290 : 1" />
    <inkscape:perspective
       inkscape:persp3d-origin="290 : 193.33333 : 1"
       id="perspective3653-5-4"
       sodipodi:type="inkscape:persp3d"
       inkscape:vp_x="0 : 290 : 1"
       inkscape:vp_y="0 : 1000 : 0"
       inkscape:vp_z="580 : 290 : 1" />
    <filter
       color-interpolation-filters="sRGB"
       inkscape:menu-tooltip="Blur as if the object flies vertically; adjust Standard Deviation to vary force"
       inkscape:menu="Blurs"
       inkscape:label="Motion blur, vertical"
       id="filter3853-3">
      <feGaussianBlur
         result="fbSourceGraphic"
         stdDeviation="5 0.01"
         in="SourceGraphic"
         id="feGaussianBlur3855-2" />
      <feColorMatrix
         id="feColorMatrix3857-2"
         values="0 0 0 -1 0 0 0 0 -1 0 0 0 0 -1 0 0 0 0 1 0"
         in="fbSourceGraphic"
         result="fbSourceGraphicAlpha" />
      <feGaussianBlur
         stdDeviation="0.01 5"
         in="fbSourceGraphic"
         id="feGaussianBlur3859-5" />
    </filter>
    <inkscape:perspective
       inkscape:persp3d-origin="290 : 193.33333 : 1"
       id="perspective3653-9-8"
       sodipodi:type="inkscape:persp3d"
       inkscape:vp_x="0 : 290 : 1"
       inkscape:vp_y="0 : 1000 : 0"
       inkscape:vp_z="580 : 290 : 1" />
    <inkscape:perspective
       inkscape:persp3d-origin="290 : 193.33333 : 1"
       id="perspective3653-5-5-7"
       sodipodi:type="inkscape:persp3d"
       inkscape:vp_x="0 : 290 : 1"
       inkscape:vp_y="0 : 1000 : 0"
       inkscape:vp_z="580 : 290 : 1" />
    <inkscape:perspective
       inkscape:persp3d-origin="290 : 193.33333 : 1"
       id="perspective3653-54"
       sodipodi:type="inkscape:persp3d"
       inkscape:vp_x="0 : 290 : 1"
       inkscape:vp_y="0 : 1000 : 0"
       inkscape:vp_z="580 : 290 : 1" />
    <inkscape:perspective
       inkscape:persp3d-origin="290 : 193.33333 : 1"
       id="perspective3653-5-0"
       sodipodi:type="inkscape:persp3d"
       inkscape:vp_x="0 : 290 : 1"
       inkscape:vp_y="0 : 1000 : 0"
       inkscape:vp_z="580 : 290 : 1" />
    <filter
       color-interpolation-filters="sRGB"
       inkscape:menu-tooltip="Blur as if the object flies vertically; adjust Standard Deviation to vary force"
       inkscape:menu="Blurs"
       inkscape:label="Motion blur, vertical"
       id="filter3853-5">
      <feGaussianBlur
         result="fbSourceGraphic"
         stdDeviation="5 0.01"
         in="SourceGraphic"
         id="feGaussianBlur3855-0" />
      <feColorMatrix
         id="feColorMatrix3857-29"
         values="0 0 0 -1 0 0 0 0 -1 0 0 0 0 -1 0 0 0 0 1 0"
         in="fbSourceGraphic"
         result="fbSourceGraphicAlpha" />
      <feGaussianBlur
         stdDeviation="0.01 5"
         in="fbSourceGraphic"
         id="feGaussianBlur3859-08" />
    </filter>
    <inkscape:perspective
       inkscape:persp3d-origin="290 : 193.33333 : 1"
       id="perspective3653-9-9"
       sodipodi:type="inkscape:persp3d"
       inkscape:vp_x="0 : 290 : 1"
       inkscape:vp_y="0 : 1000 : 0"
       inkscape:vp_z="580 : 290 : 1" />
    <inkscape:perspective
       inkscape:persp3d-origin="290 : 193.33333 : 1"
       id="perspective3653-5-5-4"
       sodipodi:type="inkscape:persp3d"
       inkscape:vp_x="0 : 290 : 1"
       inkscape:vp_y="0 : 1000 : 0"
       inkscape:vp_z="580 : 290 : 1" />
    <inkscape:perspective
       inkscape:persp3d-origin="290 : 193.33333 : 1"
       id="perspective3653-4"
       sodipodi:type="inkscape:persp3d"
       inkscape:vp_x="0 : 290 : 1"
       inkscape:vp_y="0 : 1000 : 0"
       inkscape:vp_z="580 : 290 : 1" />
    <inkscape:perspective
       inkscape:persp3d-origin="290 : 193.33333 : 1"
       id="perspective3653-5-6"
       sodipodi:type="inkscape:persp3d"
       inkscape:vp_x="0 : 290 : 1"
       inkscape:vp_y="0 : 1000 : 0"
       inkscape:vp_z="580 : 290 : 1" />
    <filter
       color-interpolation-filters="sRGB"
       inkscape:menu-tooltip="Blur as if the object flies vertically; adjust Standard Deviation to vary force"
       inkscape:menu="Blurs"
       inkscape:label="Motion blur, vertical"
       id="filter3853-9">
      <feGaussianBlur
         result="fbSourceGraphic"
         stdDeviation="5 0.01"
         in="SourceGraphic"
         id="feGaussianBlur3855-20" />
      <feColorMatrix
         id="feColorMatrix3857-8"
         values="0 0 0 -1 0 0 0 0 -1 0 0 0 0 -1 0 0 0 0 1 0"
         in="fbSourceGraphic"
         result="fbSourceGraphicAlpha" />
      <feGaussianBlur
         stdDeviation="0.01 5"
         in="fbSourceGraphic"
         id="feGaussianBlur3859-4" />
    </filter>
    <inkscape:perspective
       inkscape:persp3d-origin="290 : 193.33333 : 1"
       id="perspective3653-9-41"
       sodipodi:type="inkscape:persp3d"
       inkscape:vp_x="0 : 290 : 1"
       inkscape:vp_y="0 : 1000 : 0"
       inkscape:vp_z="580 : 290 : 1" />
    <inkscape:perspective
       inkscape:persp3d-origin="290 : 193.33333 : 1"
       id="perspective3653-5-5-8"
       sodipodi:type="inkscape:persp3d"
       inkscape:vp_x="0 : 290 : 1"
       inkscape:vp_y="0 : 1000 : 0"
       inkscape:vp_z="580 : 290 : 1" />
    <inkscape:perspective
       inkscape:persp3d-origin="290 : 193.33333 : 1"
       id="perspective3653-91"
       sodipodi:type="inkscape:persp3d"
       inkscape:vp_x="0 : 290 : 1"
       inkscape:vp_y="0 : 1000 : 0"
       inkscape:vp_z="580 : 290 : 1" />
    <inkscape:perspective
       inkscape:persp3d-origin="290 : 193.33333 : 1"
       id="perspective3653-5-05"
       sodipodi:type="inkscape:persp3d"
       inkscape:vp_x="0 : 290 : 1"
       inkscape:vp_y="0 : 1000 : 0"
       inkscape:vp_z="580 : 290 : 1" />
    <filter
       color-interpolation-filters="sRGB"
       inkscape:menu-tooltip="Blur as if the object flies vertically; adjust Standard Deviation to vary force"
       inkscape:menu="Blurs"
       inkscape:label="Motion blur, vertical"
       id="filter3853-53">
      <feGaussianBlur
         result="fbSourceGraphic"
         stdDeviation="5 0.01"
         in="SourceGraphic"
         id="feGaussianBlur3855-8" />
      <feColorMatrix
         id="feColorMatrix3857-6"
         values="0 0 0 -1 0 0 0 0 -1 0 0 0 0 -1 0 0 0 0 1 0"
         in="fbSourceGraphic"
         result="fbSourceGraphicAlpha" />
      <feGaussianBlur
         stdDeviation="0.01 5"
         in="fbSourceGraphic"
         id="feGaussianBlur3859-3" />
    </filter>
    <inkscape:perspective
       inkscape:persp3d-origin="290 : 193.33333 : 1"
       id="perspective3653-9-2"
       sodipodi:type="inkscape:persp3d"
       inkscape:vp_x="0 : 290 : 1"
       inkscape:vp_y="0 : 1000 : 0"
       inkscape:vp_z="580 : 290 : 1" />
    <inkscape:perspective
       inkscape:persp3d-origin="290 : 193.33333 : 1"
       id="perspective3653-5-5-3"
       sodipodi:type="inkscape:persp3d"
       inkscape:vp_x="0 : 290 : 1"
       inkscape:vp_y="0 : 1000 : 0"
       inkscape:vp_z="580 : 290 : 1" />
    <inkscape:perspective
       inkscape:persp3d-origin="290 : 193.33333 : 1"
       id="perspective3653-1"
       sodipodi:type="inkscape:persp3d"
       inkscape:vp_x="0 : 290 : 1"
       inkscape:vp_y="0 : 1000 : 0"
       inkscape:vp_z="580 : 290 : 1" />
    <inkscape:perspective
       inkscape:persp3d-origin="290 : 193.33333 : 1"
       id="perspective3653-5-7"
       sodipodi:type="inkscape:persp3d"
       inkscape:vp_x="0 : 290 : 1"
       inkscape:vp_y="0 : 1000 : 0"
       inkscape:vp_z="580 : 290 : 1" />
  </defs>
  <sodipodi:namedview
     id="base"
     pagecolor="#ffffff"
     bordercolor="#666666"
     borderopacity="1.0"
     inkscape:pageopacity="0.0"
     inkscape:pageshadow="2"
     inkscape:zoom="15.839192"
     inkscape:cx="22.063565"
     inkscape:cy="26.779067"
     inkscape:document-units="px"
     inkscape:current-layer="layer1"
     showgrid="false"
     inkscape:window-width="1920"
     inkscape:window-height="1017"
     inkscape:window-x="1912"
     inkscape:window-y="-8"
     inkscape:window-maximized="1" />
  <metadata
     id="metadata7">
    <rdf:RDF>
      <cc:Work
         rdf:about="">
        <dc:format>image/svg+xml</dc:format>
        <dc:type
           rdf:resource="http://purl.org/dc/dcmitype/StillImage" />
        <dc:title />
      </cc:Work>
    </rdf:RDF>
  </metadata>
  <g
     inkscape:label="Laag 1"
     inkscape:groupmode="layer"
     id="layer1"
     transform="translate(0,-1004.3622)">
    <rect
       ry="9.6995745"
       y="1005.8802"
       x="1.3561161"
       height="45.234459"
       width="44.999073"
       id="rect3435"
       style="fill:#ffffff;fill-opacity:0.54901963;stroke:#002353;stroke-width:0.88619024;stroke-opacity:1" />
    <path
       style="fill:#730049;fill-opacity:1"
       d="m 5.5474578,1042.9266 0,-2.911 2.514969,-1.2884 c 1.383233,-0.7085 2.5631272,-1.2988 2.6219862,-1.3117 0.05886,-0.013 0.31917,0.2701 0.578463,0.6288 0.259303,0.3587 0.676855,0.9225 0.927897,1.253 l 0.45645,0.6008 2.441905,-1.2541 c 1.343051,-0.6897 2.481498,-1.2333 2.529889,-1.208 0.04839,0.025 0.504273,0.609 1.013069,1.2969 l 0.92509,1.2507 2.524518,-1.2948 c 1.388487,-0.7121 2.546051,-1.2948 2.572366,-1.2948 0.02629,0 0.481502,0.58 1.01153,1.2888 l 0.963686,1.2888 0,2.9329 0,2.9331 -10.540908,0 -10.5409102,0 0,-2.911 z m 5.6147562,-0.01 0,-1.3922 -1.6950213,0 -1.6950209,0 0,1.3922 0,1.3923 1.6950209,0 1.6950213,0 0,-1.3923 z m 6.886019,0 0,-1.3922 -1.747989,0 -1.747989,0 0,1.3922 0,1.3923 1.747989,0 1.747989,0 0,-1.3923 z m 6.991958,0 0,-1.3922 -1.695021,0 -1.695016,0 0,1.3922 0,1.3923 1.695016,0 1.695021,0 0,-1.3923 z m -5.402874,-6.8266 0,-3.2787 0.794537,0 0.794543,0 -0.0042,2.8969 -0.0042,2.8969 -0.723631,0.3817 c -0.397999,0.21 -0.753596,0.3818 -0.79022,0.3818 -0.03664,0 -0.06658,-1.4754 -0.06658,-3.2786 z m -6.038513,-1.3474 0,-4.1769 0.847511,0 0.84751,0 0,3.766 0,3.7659 -0.798299,0.4109 c -0.439062,0.226 -0.82044,0.411 -0.847506,0.411 -0.02708,0 -0.04921,-1.8797 -0.04921,-4.1769 z"
       id="path3394"
       inkscape:connector-curvature="0" />
    <path
       style="fill:#730049;fill-opacity:1"
       d="m 5.5474578,1018.3053 0,-6.7251 10.5013562,0 10.501358,0 0,6.7251 0,6.7253 -10.501358,0 -10.5013562,0 0,-6.7253 z m 6.5993112,4.091 0,-1.4295 -2.6882751,0 -2.6882754,0 0,1.4295 0,1.4294 2.6882754,0 2.6882751,0 0,-1.4294 z m 6.599313,0 0,-1.4295 -2.688277,0 -2.688275,0 0,1.4295 0,1.4294 2.688275,0 2.688277,0 0,-1.4294 z m 6.581329,0 0,-1.4295 -2.688278,0 -2.688273,0 0,1.4295 0,1.4294 2.688273,0 2.688278,0 0,-1.4294 z m -13.180642,-4.082 0,-1.4295 -2.6882751,0 -2.6882754,0 0,1.4295 0,1.4295 2.6882754,0 2.6882751,0 0,-1.4295 z m 6.599313,0 0,-1.4295 -2.688277,0 -2.688275,0 0,1.4295 0,1.4295 2.688275,0 2.688277,0 0,-1.4295 z m 6.581329,0 0,-1.4295 -2.688278,0 -2.688273,0 0,1.4295 0,1.4295 2.688273,0 2.688278,0 0,-1.4295 z m -13.180642,-4.0819 0,-1.4295 -2.6882751,0 -2.6882754,0 0,1.4295 0,1.4297 2.6882754,0 2.6882751,0 0,-1.4297 z m 6.599313,0 0,-1.4295 -2.688277,0 -2.688275,0 0,1.4295 0,1.4297 2.688275,0 2.688277,0 0,-1.4297 z m 6.581329,0 0,-1.4295 -2.688278,0 -2.688273,0 0,1.4295 0,1.4297 2.688273,0 2.688278,0 0,-1.4297 z"
       id="path4208"
       inkscape:connector-curvature="0" />
    <path
       style="fill:#007519;fill-opacity:1"
       d="m 35.686053,1034.9122 c -0.80356,-0.1019 -1.545042,-0.318 -2.197407,-0.6406 -0.363161,-0.1796 -0.898544,-0.5168 -1.195929,-0.7532 -0.356868,-0.2838 -0.857054,-0.7763 -1.107274,-1.0903 -0.968547,-1.2153 -1.487876,-2.6915 -1.488888,-4.2321 -9.62e-4,-1.3442 0.388562,-2.6385 1.125264,-3.7399 0.645402,-0.9648 1.483731,-1.7258 2.470871,-2.2428 0.740298,-0.3877 1.438801,-0.6125 2.265961,-0.7291 0.484402,-0.068 1.324228,-0.068 1.807855,10e-5 2.561002,0.3621 4.655695,2.0834 5.496374,4.5165 0.272391,0.7883 0.385788,1.5445 0.359144,2.3949 -0.01463,0.4674 -0.03815,0.6922 -0.111184,1.0631 -0.265798,1.3498 -0.907347,2.5575 -1.861808,3.5045 -1.076558,1.0683 -2.301237,1.6828 -3.841251,1.9272 -0.319481,0.051 -1.386251,0.064 -1.721728,0.022 z m 2.125169,-3.344 0,-2.0172 2.017202,0 2.017202,0 0,-1.3602 0,-1.3601 -2.017202,0 -2.017202,0 0,-2.0172 0,-2.0173 -1.360171,0 -1.360168,0 0,2.0173 0,2.0172 -2.005676,0 -2.005675,0 0,1.3601 0,1.3602 2.005675,0 2.005676,0 0,2.0172 0,2.0172 1.360168,0 1.360171,0 0,-2.0172 z"
       id="path4221"
       inkscape:connector-curvature="0" />
  </g>
</svg>
