<?xml version="1.0" encoding="UTF-8" standalone="no"?>
<!-- Created with Inkscape (http://www.inkscape.org/) -->

<svg
   xmlns:dc="http://purl.org/dc/elements/1.1/"
   xmlns:cc="http://creativecommons.org/ns#"
   xmlns:rdf="http://www.w3.org/1999/02/22-rdf-syntax-ns#"
   xmlns:svg="http://www.w3.org/2000/svg"
   xmlns="http://www.w3.org/2000/svg"
   xmlns:sodipodi="http://sodipodi.sourceforge.net/DTD/sodipodi-0.dtd"
   xmlns:inkscape="http://www.inkscape.org/namespaces/inkscape"
   width="48"
   height="48"
   id="svg2"
   version="1.1"
   inkscape:version="0.92.2 (5c3e80d, 2017-08-06)"
   sodipodi:docname="KNOP_NAAR_DE_KAART.svg">
  <defs
     id="defs4">
    <filter
       color-interpolation-filters="sRGB"
       inkscape:menu-tooltip="Blur as if the object flies vertically; adjust Standard Deviation to vary force"
       inkscape:menu="Blurs"
       inkscape:label="Motion blur, vertical"
       id="filter3853">
      <feGaussianBlur
         result="fbSourceGraphic"
         stdDeviation="5 0.01"
         in="SourceGraphic"
         id="feGaussianBlur3855" />
      <feColorMatrix
         id="feColorMatrix3857"
         values="0 0 0 -1 0 0 0 0 -1 0 0 0 0 -1 0 0 0 0 1 0"
         in="fbSourceGraphic"
         result="fbSourceGraphicAlpha" />
      <feGaussianBlur
         stdDeviation="0.01 5"
         in="fbSourceGraphic"
         id="feGaussianBlur3859" />
    </filter>
    <inkscape:perspective
       inkscape:persp3d-origin="290 : 193.33333 : 1"
       id="perspective3653-9"
       sodipodi:type="inkscape:persp3d"
       inkscape:vp_x="0 : 290 : 1"
       inkscape:vp_y="0 : 1000 : 0"
       inkscape:vp_z="580 : 290 : 1" />
    <inkscape:perspective
       inkscape:persp3d-origin="290 : 193.33333 : 1"
       id="perspective3653-5-5"
       sodipodi:type="inkscape:persp3d"
       inkscape:vp_x="0 : 290 : 1"
       inkscape:vp_y="0 : 1000 : 0"
       inkscape:vp_z="580 : 290 : 1" />
    <inkscape:perspective
       inkscape:persp3d-origin="290 : 193.33333 : 1"
       id="perspective3653"
       sodipodi:type="inkscape:persp3d"
       inkscape:vp_x="0 : 290 : 1"
       inkscape:vp_y="0 : 1000 : 0"
       inkscape:vp_z="580 : 290 : 1" />
    <inkscape:perspective
       inkscape:persp3d-origin="290 : 193.33333 : 1"
       id="perspective3653-5"
       sodipodi:type="inkscape:persp3d"
       inkscape:vp_x="0 : 290 : 1"
       inkscape:vp_y="0 : 1000 : 0"
       inkscape:vp_z="580 : 290 : 1" />
    <filter
       color-interpolation-filters="sRGB"
       inkscape:menu-tooltip="Blur as if the object flies vertically; adjust Standard Deviation to vary force"
       inkscape:menu="Blurs"
       inkscape:label="Motion blur, vertical"
       id="filter3853-0">
      <feGaussianBlur
         result="fbSourceGraphic"
         stdDeviation="5 0.01"
         in="SourceGraphic"
         id="feGaussianBlur3855-21" />
      <feColorMatrix
         id="feColorMatrix3857-0"
         values="0 0 0 -1 0 0 0 0 -1 0 0 0 0 -1 0 0 0 0 1 0"
         in="fbSourceGraphic"
         result="fbSourceGraphicAlpha" />
      <feGaussianBlur
         stdDeviation="0.01 5"
         in="fbSourceGraphic"
         id="feGaussianBlur3859-0" />
    </filter>
    <inkscape:perspective
       inkscape:persp3d-origin="290 : 193.33333 : 1"
       id="perspective3653-9-4"
       sodipodi:type="inkscape:persp3d"
       inkscape:vp_x="0 : 290 : 1"
       inkscape:vp_y="0 : 1000 : 0"
       inkscape:vp_z="580 : 290 : 1" />
    <inkscape:perspective
       inkscape:persp3d-origin="290 : 193.33333 : 1"
       id="perspective3653-5-5-2"
       sodipodi:type="inkscape:persp3d"
       inkscape:vp_x="0 : 290 : 1"
       inkscape:vp_y="0 : 1000 : 0"
       inkscape:vp_z="580 : 290 : 1" />
    <inkscape:perspective
       inkscape:persp3d-origin="290 : 193.33333 : 1"
       id="perspective3653-2"
       sodipodi:type="inkscape:persp3d"
       inkscape:vp_x="0 : 290 : 1"
       inkscape:vp_y="0 : 1000 : 0"
       inkscape:vp_z="580 : 290 : 1" />
    <inkscape:perspective
       inkscape:persp3d-origin="290 : 193.33333 : 1"
       id="perspective3653-5-4"
       sodipodi:type="inkscape:persp3d"
       inkscape:vp_x="0 : 290 : 1"
       inkscape:vp_y="0 : 1000 : 0"
       inkscape:vp_z="580 : 290 : 1" />
    <filter
       color-interpolation-filters="sRGB"
       inkscape:menu-tooltip="Blur as if the object flies vertically; adjust Standard Deviation to vary force"
       inkscape:menu="Blurs"
       inkscape:label="Motion blur, vertical"
       id="filter3853-3">
      <feGaussianBlur
         result="fbSourceGraphic"
         stdDeviation="5 0.01"
         in="SourceGraphic"
         id="feGaussianBlur3855-2" />
      <feColorMatrix
         id="feColorMatrix3857-2"
         values="0 0 0 -1 0 0 0 0 -1 0 0 0 0 -1 0 0 0 0 1 0"
         in="fbSourceGraphic"
         result="fbSourceGraphicAlpha" />
      <feGaussianBlur
         stdDeviation="0.01 5"
         in="fbSourceGraphic"
         id="feGaussianBlur3859-5" />
    </filter>
    <inkscape:perspective
       inkscape:persp3d-origin="290 : 193.33333 : 1"
       id="perspective3653-9-8"
       sodipodi:type="inkscape:persp3d"
       inkscape:vp_x="0 : 290 : 1"
       inkscape:vp_y="0 : 1000 : 0"
       inkscape:vp_z="580 : 290 : 1" />
    <inkscape:perspective
       inkscape:persp3d-origin="290 : 193.33333 : 1"
       id="perspective3653-5-5-7"
       sodipodi:type="inkscape:persp3d"
       inkscape:vp_x="0 : 290 : 1"
       inkscape:vp_y="0 : 1000 : 0"
       inkscape:vp_z="580 : 290 : 1" />
    <inkscape:perspective
       inkscape:persp3d-origin="290 : 193.33333 : 1"
       id="perspective3653-54"
       sodipodi:type="inkscape:persp3d"
       inkscape:vp_x="0 : 290 : 1"
       inkscape:vp_y="0 : 1000 : 0"
       inkscape:vp_z="580 : 290 : 1" />
    <inkscape:perspective
       inkscape:persp3d-origin="290 : 193.33333 : 1"
       id="perspective3653-5-0"
       sodipodi:type="inkscape:persp3d"
       inkscape:vp_x="0 : 290 : 1"
       inkscape:vp_y="0 : 1000 : 0"
       inkscape:vp_z="580 : 290 : 1" />
    <filter
       color-interpolation-filters="sRGB"
       inkscape:menu-tooltip="Blur as if the object flies vertically; adjust Standard Deviation to vary force"
       inkscape:menu="Blurs"
       inkscape:label="Motion blur, vertical"
       id="filter3853-5">
      <feGaussianBlur
         result="fbSourceGraphic"
         stdDeviation="5 0.01"
         in="SourceGraphic"
         id="feGaussianBlur3855-0" />
      <feColorMatrix
         id="feColorMatrix3857-29"
         values="0 0 0 -1 0 0 0 0 -1 0 0 0 0 -1 0 0 0 0 1 0"
         in="fbSourceGraphic"
         result="fbSourceGraphicAlpha" />
      <feGaussianBlur
         stdDeviation="0.01 5"
         in="fbSourceGraphic"
         id="feGaussianBlur3859-08" />
    </filter>
    <inkscape:perspective
       inkscape:persp3d-origin="290 : 193.33333 : 1"
       id="perspective3653-9-9"
       sodipodi:type="inkscape:persp3d"
       inkscape:vp_x="0 : 290 : 1"
       inkscape:vp_y="0 : 1000 : 0"
       inkscape:vp_z="580 : 290 : 1" />
    <inkscape:perspective
       inkscape:persp3d-origin="290 : 193.33333 : 1"
       id="perspective3653-5-5-4"
       sodipodi:type="inkscape:persp3d"
       inkscape:vp_x="0 : 290 : 1"
       inkscape:vp_y="0 : 1000 : 0"
       inkscape:vp_z="580 : 290 : 1" />
    <inkscape:perspective
       inkscape:persp3d-origin="290 : 193.33333 : 1"
       id="perspective3653-4"
       sodipodi:type="inkscape:persp3d"
       inkscape:vp_x="0 : 290 : 1"
       inkscape:vp_y="0 : 1000 : 0"
       inkscape:vp_z="580 : 290 : 1" />
    <inkscape:perspective
       inkscape:persp3d-origin="290 : 193.33333 : 1"
       id="perspective3653-5-6"
       sodipodi:type="inkscape:persp3d"
       inkscape:vp_x="0 : 290 : 1"
       inkscape:vp_y="0 : 1000 : 0"
       inkscape:vp_z="580 : 290 : 1" />
    <filter
       color-interpolation-filters="sRGB"
       inkscape:menu-tooltip="Blur as if the object flies vertically; adjust Standard Deviation to vary force"
       inkscape:menu="Blurs"
       inkscape:label="Motion blur, vertical"
       id="filter3853-9">
      <feGaussianBlur
         result="fbSourceGraphic"
         stdDeviation="5 0.01"
         in="SourceGraphic"
         id="feGaussianBlur3855-20" />
      <feColorMatrix
         id="feColorMatrix3857-8"
         values="0 0 0 -1 0 0 0 0 -1 0 0 0 0 -1 0 0 0 0 1 0"
         in="fbSourceGraphic"
         result="fbSourceGraphicAlpha" />
      <feGaussianBlur
         stdDeviation="0.01 5"
         in="fbSourceGraphic"
         id="feGaussianBlur3859-4" />
    </filter>
    <inkscape:perspective
       inkscape:persp3d-origin="290 : 193.33333 : 1"
       id="perspective3653-9-41"
       sodipodi:type="inkscape:persp3d"
       inkscape:vp_x="0 : 290 : 1"
       inkscape:vp_y="0 : 1000 : 0"
       inkscape:vp_z="580 : 290 : 1" />
    <inkscape:perspective
       inkscape:persp3d-origin="290 : 193.33333 : 1"
       id="perspective3653-5-5-8"
       sodipodi:type="inkscape:persp3d"
       inkscape:vp_x="0 : 290 : 1"
       inkscape:vp_y="0 : 1000 : 0"
       inkscape:vp_z="580 : 290 : 1" />
    <inkscape:perspective
       inkscape:persp3d-origin="290 : 193.33333 : 1"
       id="perspective3653-91"
       sodipodi:type="inkscape:persp3d"
       inkscape:vp_x="0 : 290 : 1"
       inkscape:vp_y="0 : 1000 : 0"
       inkscape:vp_z="580 : 290 : 1" />
    <inkscape:perspective
       inkscape:persp3d-origin="290 : 193.33333 : 1"
       id="perspective3653-5-05"
       sodipodi:type="inkscape:persp3d"
       inkscape:vp_x="0 : 290 : 1"
       inkscape:vp_y="0 : 1000 : 0"
       inkscape:vp_z="580 : 290 : 1" />
    <filter
       color-interpolation-filters="sRGB"
       inkscape:menu-tooltip="Blur as if the object flies vertically; adjust Standard Deviation to vary force"
       inkscape:menu="Blurs"
       inkscape:label="Motion blur, vertical"
       id="filter3853-53">
      <feGaussianBlur
         result="fbSourceGraphic"
         stdDeviation="5 0.01"
         in="SourceGraphic"
         id="feGaussianBlur3855-8" />
      <feColorMatrix
         id="feColorMatrix3857-6"
         values="0 0 0 -1 0 0 0 0 -1 0 0 0 0 -1 0 0 0 0 1 0"
         in="fbSourceGraphic"
         result="fbSourceGraphicAlpha" />
      <feGaussianBlur
         stdDeviation="0.01 5"
         in="fbSourceGraphic"
         id="feGaussianBlur3859-3" />
    </filter>
    <inkscape:perspective
       inkscape:persp3d-origin="290 : 193.33333 : 1"
       id="perspective3653-9-2"
       sodipodi:type="inkscape:persp3d"
       inkscape:vp_x="0 : 290 : 1"
       inkscape:vp_y="0 : 1000 : 0"
       inkscape:vp_z="580 : 290 : 1" />
    <inkscape:perspective
       inkscape:persp3d-origin="290 : 193.33333 : 1"
       id="perspective3653-5-5-3"
       sodipodi:type="inkscape:persp3d"
       inkscape:vp_x="0 : 290 : 1"
       inkscape:vp_y="0 : 1000 : 0"
       inkscape:vp_z="580 : 290 : 1" />
    <inkscape:perspective
       inkscape:persp3d-origin="290 : 193.33333 : 1"
       id="perspective3653-1"
       sodipodi:type="inkscape:persp3d"
       inkscape:vp_x="0 : 290 : 1"
       inkscape:vp_y="0 : 1000 : 0"
       inkscape:vp_z="580 : 290 : 1" />
    <inkscape:perspective
       inkscape:persp3d-origin="290 : 193.33333 : 1"
       id="perspective3653-5-7"
       sodipodi:type="inkscape:persp3d"
       inkscape:vp_x="0 : 290 : 1"
       inkscape:vp_y="0 : 1000 : 0"
       inkscape:vp_z="580 : 290 : 1" />
  </defs>
  <sodipodi:namedview
     id="base"
     pagecolor="#ffffff"
     bordercolor="#666666"
     borderopacity="1.0"
     inkscape:pageopacity="0.0"
     inkscape:pageshadow="2"
     inkscape:zoom="11.2"
     inkscape:cx="18.930309"
     inkscape:cy="12.292692"
     inkscape:document-units="px"
     inkscape:current-layer="layer1"
     showgrid="false"
     inkscape:window-width="1920"
     inkscape:window-height="1017"
     inkscape:window-x="1912"
     inkscape:window-y="-8"
     inkscape:window-maximized="1" />
  <metadata
     id="metadata7">
    <rdf:RDF>
      <cc:Work
         rdf:about="">
        <dc:format>image/svg+xml</dc:format>
        <dc:type
           rdf:resource="http://purl.org/dc/dcmitype/StillImage" />
        <dc:title />
      </cc:Work>
    </rdf:RDF>
  </metadata>
  <g
     inkscape:label="Laag 1"
     inkscape:groupmode="layer"
     id="layer1"
     transform="translate(0,-1004.3622)">
    <rect
       ry="9.6995745"
       y="1005.8802"
       x="1.3561161"
       height="45.234459"
       width="44.999073"
       id="rect3435"
       style="fill:#ffffff;fill-opacity:0.54901963;stroke:#002353;stroke-width:0.88619024;stroke-opacity:1" />
    <path
       style="fill:#0086d6;fill-opacity:1"
       d="m 19.394439,1032.9365 c -0.06069,-0.013 -0.201379,-0.036 -0.31264,-0.049 -0.111264,-0.016 -0.25195,-0.04 -0.31264,-0.053 -0.06069,-0.015 -0.399999,-0.029 -0.754016,-0.032 -0.354017,-0.013 -0.880758,-0.013 -1.170532,-0.021 -0.366375,-0.013 -0.550893,-0.013 -0.605737,0.013 -0.138601,0.049 -0.623529,0.099 -0.853579,0.083 -0.15451,-0.013 -0.269351,-0.013 -0.382975,0.025 -0.176911,0.044 -0.424104,0.033 -0.679107,-0.027 -0.07839,-0.019 -0.190375,-0.033 -0.248828,-0.033 -0.102796,0 -0.455955,-0.1176 -0.597278,-0.1995 -0.03803,-0.021 -0.100391,-0.091 -0.138595,-0.1533 -0.152802,-0.2495 -0.237428,-0.3499 -0.316403,-0.3755 -0.0858,-0.028 -0.110043,-0.09 -0.04597,-0.1162 0.02023,-0.013 0.03678,-0.024 0.03678,-0.036 0,-0.048 -0.628384,-0.5177 -0.731369,-0.5474 -0.123346,-0.036 -0.136815,-0.06 -0.07489,-0.14 0.0308,-0.04 0.02641,-0.061 -0.01953,-0.095 -0.08982,-0.068 -0.107743,-0.2692 -0.03832,-0.4298 0.119099,-0.2757 0.125015,-0.2601 -0.127588,-0.3377 l -0.225733,-0.068 0.01099,-0.1283 0.01099,-0.1282 0.215584,-0.048 0.215585,-0.048 -0.02208,-0.091 c -0.01214,-0.051 -0.02226,-0.1378 -0.02249,-0.1947 -1.83e-4,-0.079 -0.01803,-0.1096 -0.07308,-0.1256 -0.03997,-0.013 -0.213944,-0.1109 -0.386605,-0.2198 l -0.313929,-0.1973 -0.179233,0.091 c -0.09857,0.049 -0.19357,0.091 -0.211089,0.091 -0.01753,0 -0.271123,-0.1526 -0.563561,-0.3391 -0.359359,-0.2289 -0.5450546,-0.3311 -0.5728847,-0.3154 -0.047301,0.025 -0.2919466,-0.1309 -0.2926566,-0.1894 -5.667e-4,-0.043 -1.1348664,-0.7689 -1.2003149,-0.7689 -0.024919,0 -0.088605,0.036 -0.1415165,0.08 -0.094582,0.079 -0.098035,0.079 -0.2049764,0.039 -0.059839,-0.023 -0.1728409,-0.08 -0.2511431,-0.1255 l -0.1423687,-0.086 0.1699536,-0.083 c 0.093471,-0.045 0.169955,-0.091 0.169955,-0.099 0,-0.023 -0.4316718,-0.2787 -0.4714192,-0.2787 -0.019235,0 -0.072037,0.063 -0.1173334,0.139 -0.045302,0.076 -0.094001,0.144 -0.1082293,0.15 -0.021999,0.013 -0.3533537,-0.093 -0.3961655,-0.1229 -0.00793,-0.013 0.052914,-0.085 0.135241,-0.1772 l 0.1496868,-0.1676 -0.1180253,-0.044 c -0.064911,-0.023 -0.1768507,-0.087 -0.2487498,-0.1404 -0.071899,-0.053 -0.2227538,-0.1296 -0.3352274,-0.1682 -0.1124782,-0.04 -0.2283331,-0.091 -0.257467,-0.1148 -0.029136,-0.025 -0.1357282,-0.083 -0.2368803,-0.1283 -0.10115,-0.047 -0.3245912,-0.1576 -0.4965425,-0.2471 -0.1719502,-0.089 -0.360051,-0.1703 -0.4179973,-0.1788 -0.057944,-0.013 -0.1788562,-0.064 -0.2686888,-0.1216 -0.089833,-0.059 -0.271675,-0.1506 -0.4040944,-0.2054 -0.1324148,-0.053 -0.3324737,-0.1545 -0.4445711,-0.2221 -0.1120988,-0.068 -0.2759808,-0.1447 -0.3641903,-0.1715 -0.088202,-0.025 -0.1985499,-0.074 -0.2452065,-0.1042 -0.046659,-0.029 -0.1133384,-0.067 -0.148171,-0.082 -0.051802,-0.021 -0.069964,-0.087 -0.099689,-0.3653 -0.061985,-0.5802 -0.1049929,-0.9355 -0.1433586,-1.1845 -0.020295,-0.1322 -0.053929,-0.4039 -0.074739,-0.6048 -0.034895,-0.337 -0.056735,-0.5351 -0.1887941,-1.7116 l -0.046436,-0.4136 0.1862606,-0.1162 c 0.1024403,-0.064 0.3048807,-0.1836 0.449863,-0.2669 0.1449804,-0.083 0.3594692,-0.2077 0.4766438,-0.277 0.1171692,-0.068 0.3435294,-0.1999 0.50302,-0.29 0.1594914,-0.091 0.4063492,-0.236 0.5485739,-0.3243 0.1422238,-0.088 0.3016496,-0.179 0.3542795,-0.2016 0.084837,-0.037 0.7222383,-0.505 1.4402027,-1.0588 0.1367091,-0.1055 0.5168315,-0.3646 0.8447182,-0.576 0.4732537,-0.305 0.6229601,-0.3874 0.7261433,-0.3996 0.071493,-0.013 0.2482114,-0.036 0.392721,-0.061 0.1445075,-0.025 0.3431256,-0.053 0.4413737,-0.063 0.1938099,-0.017 0.6259997,-0.076 1.3188476,-0.1765 0.242756,-0.036 0.615163,-0.085 0.827575,-0.1122 0.825279,-0.1041 1.389886,-0.1785 1.63676,-0.2163 0.141607,-0.021 0.431258,-0.06 0.643669,-0.086 1.206183,-0.1438 1.927772,-0.2311 2.188477,-0.2645 0.161837,-0.021 0.443209,-0.051 0.625276,-0.067 0.182071,-0.017 0.471721,-0.056 0.643672,-0.091 0.622753,-0.1242 1.461102,-0.2654 1.839054,-0.3102 0.212414,-0.025 0.625975,-0.083 0.919024,-0.1269 0.584188,-0.088 0.498496,-0.088 1.563701,0 0.386325,0.033 0.796987,0.088 1.195386,0.1614 0.333788,0.061 1.018964,0.1806 1.522609,0.265 0.503649,0.084 1.049854,0.1854 1.213779,0.2247 0.16393,0.04 0.38909,0.086 0.500352,0.1015 0.111264,0.017 0.376087,0.06 0.588495,0.095 0.212416,0.036 0.485513,0.073 0.60689,0.087 0.121375,0.013 0.302115,0.033 0.401636,0.047 0.15215,0.021 0.191595,0.02 0.247839,-0.016 0.03681,-0.023 0.343383,-0.3248 0.681316,-0.6704 l 0.614424,-0.6289 0.149215,0.017 c 0.216387,0.025 0.545938,0.057 0.903229,0.087 0.171949,0.015 0.560912,0.055 0.864354,0.087 0.30344,0.033 0.670906,0.068 0.816579,0.076 0.145664,0.013 0.31475,0.025 0.375734,0.037 0.109127,0.021 0.485437,0.06 1.927563,0.1924 0.778792,0.071 0.681251,0.072 1.459375,-0.017 0.111264,-0.013 0.417461,-0.047 0.680456,-0.075 0.81487,-0.087 1.385207,-0.1522 1.698074,-0.193 0.315748,-0.041 0.397573,-0.032 0.369376,0.041 -0.0098,0.025 -0.0068,0.057 0.0059,0.071 0.03019,0.033 0.634041,0.1309 0.807591,0.1309 0.259423,0 0.292571,-0.017 0.275768,-0.1343 -0.01659,-0.1162 0.05134,-0.2308 0.1362,-0.2308 0.05367,0 0.152663,0.1149 0.25392,0.296 0.02902,0.052 0.08152,0.1015 0.116673,0.1082 0.1087,0.023 0.324844,0.2081 0.420965,0.3592 0.120841,0.1899 0.418181,0.5877 0.475108,0.6355 0.02475,0.02 0.107511,0.1255 0.18383,0.2329 0.0763,0.1069 0.156185,0.1955 0.177472,0.1955 0.02125,0 0.06484,0.016 0.09677,0.035 0.03194,0.02 0.146149,0.053 0.253793,0.079 0.107644,0.024 0.20329,0.057 0.21255,0.073 0.02145,0.039 0.371367,0.033 0.428994,-0.013 0.023,-0.016 0.06638,-0.029 0.09638,-0.029 0.117835,0 0.372065,-0.1055 0.372065,-0.154 0,-0.027 0.04008,-0.061 0.09191,-0.079 0.05057,-0.016 0.09192,-0.039 0.09192,-0.049 0,-0.013 0.01806,-0.021 0.04018,-0.021 0.02213,0 0.08415,-0.023 0.137928,-0.052 0.05379,-0.029 0.160727,-0.08 0.23767,-0.1135 l 0.139898,-0.063 0.06844,0.1069 c 0.03765,0.06 0.146276,0.2264 0.241418,0.3718 0.391012,0.5983 0.458626,0.7085 0.458626,0.7475 0,0.023 0.02455,0.053 0.05466,0.068 0.06844,0.036 0.297356,0.5643 0.348392,0.8053 0.02097,0.099 0.05726,0.2542 0.08065,0.3441 0.02339,0.091 0.04493,0.2155 0.04785,0.2787 0.0029,0.063 0.02398,0.1483 0.04687,0.189 0.122751,0.2193 0.304285,1.1915 0.304285,1.6295 l 0,0.3284 -0.103637,-0.015 c -0.0957,-0.013 -0.102502,-0.013 -0.08901,0.053 0.0079,0.039 -0.02146,0.1702 -0.06561,0.2946 -0.04417,0.1242 -0.118397,0.3622 -0.165038,0.5285 -0.0466,0.1663 -0.104639,0.3657 -0.128909,0.4432 -0.04183,0.1336 -0.03881,0.1486 0.05814,0.2898 0.05621,0.083 0.166841,0.2092 0.245775,0.2828 0.07893,0.073 0.1686,0.175 0.199252,0.2253 0.03068,0.049 0.09562,0.1269 0.144305,0.1709 0.04873,0.045 0.08862,0.086 0.08862,0.092 0,0.013 -0.111718,0.021 -0.248268,0.029 -0.136551,0.013 -0.355866,0.032 -0.487349,0.052 -0.235177,0.035 -1.264946,0.161 -1.498831,0.1842 -0.0925,0.013 -0.119545,0.013 -0.119545,-0.028 0,-0.036 -0.06736,-0.042 -0.529125,-0.042 -0.378538,0 -0.55701,-0.013 -0.627119,-0.036 -0.07298,-0.025 -0.137035,-0.029 -0.250784,-0.013 -0.09697,0.015 -0.2139,0.015 -0.319981,0 -0.571406,-0.086 -0.854017,-0.099 -1.587014,-0.073 -0.266857,0.013 -0.395651,0.025 -0.527116,0.069 -0.145867,0.048 -0.214782,0.056 -0.42642,0.045 -0.242378,-0.013 -0.256559,-0.013 -0.355623,0.063 -0.120894,0.087 -0.311438,0.1516 -0.618122,0.2088 -0.604028,0.1122 -0.809124,0.1704 -0.97491,0.2755 -0.135433,0.087 -0.209375,0.1109 -0.404591,0.1377 -0.265217,0.036 -0.612231,0.1203 -0.701529,0.171 -0.03194,0.017 -0.06979,0.032 -0.08415,0.032 -0.02824,0 -0.374444,0.1042 -1.071529,0.3215 -0.242756,0.075 -0.561824,0.1697 -0.709041,0.2085 -0.147216,0.039 -0.296189,0.092 -0.331037,0.1189 -0.03485,0.025 -0.137839,0.064 -0.228865,0.08 -0.431674,0.082 -0.884136,0.2396 -1.169086,0.4086 -0.06912,0.041 -0.163766,0.071 -0.221103,0.071 -0.05514,0 -0.182857,0.04 -0.283775,0.087 -0.100912,0.048 -0.241417,0.1082 -0.312216,0.1322 -0.07075,0.025 -0.150362,0.066 -0.176802,0.089 -0.02641,0.024 -0.06425,0.045 -0.08396,0.045 -0.0197,0 -0.09741,0.019 -0.172629,0.041 -0.07523,0.023 -0.14779,0.043 -0.16127,0.044 -0.0135,0 -0.03833,0.013 -0.05514,0.025 -0.01815,0.013 -0.0079,0.015 0.02455,0.013 0.09183,-0.035 0.0029,0.021 -0.303443,0.1864 l -0.285057,0.154 0,0.1508 c 0,0.1381 -0.0099,0.1566 -0.117555,0.2203 -0.06465,0.039 -0.184656,0.1095 -0.266664,0.1595 -0.08202,0.049 -0.281806,0.1573 -0.444001,0.2395 -0.347633,0.176 -0.425158,0.2159 -0.790061,0.4075 -0.151674,0.08 -0.466149,0.2263 -0.698838,0.3256 -0.232688,0.1002 -0.472725,0.2051 -0.533415,0.2344 -0.206037,0.1002 -0.617677,0.278 -0.643421,0.278 -0.01409,0 -0.05559,0.023 -0.0922,0.049 -0.03661,0.028 -0.08073,0.051 -0.09804,0.051 -0.01732,0 -0.117796,0.041 -0.223331,0.092 -0.10552,0.051 -0.212028,0.092 -0.236658,0.092 -0.02463,0 -0.04154,0.013 -0.03764,0.027 0.004,0.016 -0.01353,0.025 -0.03882,0.021 -0.02529,-0.013 -0.04185,0.013 -0.03677,0.023 0.0056,0.017 -0.229618,0.085 -0.592173,0.1702 -0.493779,0.1148 -0.61732,0.1536 -0.690525,0.2157 -0.04906,0.041 -0.109448,0.071 -0.134251,0.068 -0.02478,-0.013 -0.03326,0 -0.01878,0.013 0.01451,0.013 -0.02573,0.068 -0.0894,0.1282 -0.115285,0.1095 -0.214112,0.1545 -0.856504,0.3867 -0.161838,0.059 -0.360456,0.1339 -0.441368,0.1676 -0.08093,0.033 -0.236859,0.091 -0.346539,0.1269 l -0.199414,0.066 0.08395,0.047 c 0.04618,0.025 0.112066,0.047 0.146408,0.047 0.03435,0 0.08897,0.015 0.121402,0.031 0.05255,0.028 0.04309,0.045 -0.08691,0.1644 -0.08399,0.078 -0.163019,0.1256 -0.186327,0.1162 -0.02324,-0.013 -0.03013,-0.013 -0.01615,0.013 0.01337,0.015 -0.01718,0.06 -0.06788,0.1015 -0.05069,0.041 -0.0922,0.087 -0.0922,0.099 0,0.013 -0.03107,0.044 -0.069,0.067 -0.06503,0.041 -0.08015,0.04 -0.262507,-0.013 l -0.193492,-0.051 -0.164721,0.1255 c -0.0906,0.068 -0.239167,0.1874 -0.330163,0.263 -0.09099,0.075 -0.182679,0.1309 -0.20374,0.1216 -0.02135,-0.013 -0.02741,-0.013 -0.01366,0.013 0.01353,0.016 -0.01907,0.06 -0.07248,0.099 -0.0534,0.04 -0.0743,0.048 -0.04648,0.021 0.04663,-0.047 0.04551,-0.048 -0.01469,-0.016 -0.0359,0.02 -0.05715,0.04 -0.04726,0.048 0.03405,0.023 -0.05671,0.1082 -0.09729,0.091 -0.02277,-0.013 -0.03035,-0.013 -0.01712,0.013 0.02113,0.023 -0.05475,0.075 -0.459176,0.3206 -0.06768,0.04 -0.134863,0.071 -0.149307,0.069 -0.01445,-0.013 -0.01769,0.013 -0.0072,0.029 0.02211,0.04 -0.154919,0.1936 -0.218046,0.1897 -0.02349,0 -0.09236,-0.013 -0.15305,-0.025 z"
       id="path4196"
       inkscape:connector-curvature="0" />
    <path
       style="fill:#730049;fill-opacity:1"
       d="m 32.648991,1041.8864 c -2.455809,-3.0159 -4.493301,-5.5178 -4.527747,-5.5599 -0.06045,-0.073 -0.07263,-0.072 -0.34861,0.065 -0.665003,0.3308 -1.542571,0.6406 -2.234068,0.7887 -1.087944,0.2334 -2.357115,0.2334 -3.445059,0 -0.812167,-0.174 -1.912172,-0.5879 -2.54278,-0.9566 -0.92141,-0.539 -1.921051,-1.4418 -2.606518,-2.3543 -0.639351,-0.8512 -0.94501,-1.4466 -1.269533,-2.4732 -0.21652,-0.6849 -0.293762,-1.0314 -0.370349,-1.6609 -0.141189,-1.1608 -0.02816,-2.276 0.355373,-3.5066 0.418978,-1.3444 1.023046,-2.3491 2.043537,-3.3992 0.496191,-0.5106 1.370312,-1.2039 1.87616,-1.4882 0.697471,-0.3919 1.757119,-0.7797 2.61664,-0.9575 0.863698,-0.1788 2.377089,-0.179 3.237435,-6e-4 0.890219,0.1846 1.98116,0.5871 2.647874,0.977 0.518143,0.3032 1.185692,0.8219 1.697166,1.319 0.510567,0.496 1.203913,1.3702 1.488149,1.8761 0.391771,0.6972 0.779361,1.7561 0.95766,2.6167 0.178866,0.8631 0.178809,2.3753 -1.28e-4,3.2399 -0.114319,0.5526 -0.408995,1.4715 -0.624557,1.9482 -0.268192,0.5927 -0.450399,0.8948 -0.91635,1.5186 l -0.426641,0.5713 4.506713,5.5353 c 2.478691,3.0443 4.517364,5.5523 4.530388,5.5735 0.01858,0.029 -1.9273,1.656 -2.130567,1.7803 -0.03224,0.019 -1.579584,-1.8494 -4.514194,-5.4534 z m -8.017358,-7.4334 c 0.705476,-0.1104 1.214648,-0.2734 1.83966,-0.5921 0.637267,-0.3251 1.087957,-0.6791 1.60374,-1.2597 0.410239,-0.4619 0.549354,-0.6669 0.865117,-1.2748 0.786503,-1.5141 0.787975,-3.5492 0.0035,-5.0602 -0.302199,-0.5822 -0.45468,-0.8135 -0.784762,-1.1908 -0.915934,-1.0469 -2.082523,-1.7087 -3.392495,-1.9247 -0.520994,-0.086 -1.391776,-0.086 -1.914305,0 -1.045362,0.1717 -2.007816,0.6396 -2.844665,1.383 -0.580636,0.5158 -0.934624,0.9664 -1.259632,1.6038 -0.318754,0.6249 -0.482709,1.1342 -0.59237,1.8396 -0.10195,0.656 -0.10171,0.9853 0.0011,1.6524 0.103208,0.6687 0.263174,1.1687 0.569025,1.7786 0.530022,1.0571 1.380369,1.9149 2.427541,2.4489 0.623506,0.3179 1.142484,0.4898 1.788364,0.5923 0.639345,0.1008 1.05605,0.102 1.689882,0 z"
       id="path4209"
       inkscape:connector-curvature="0" />
  </g>
</svg>
