<?xml version="1.0" encoding="UTF-8" standalone="no"?>
<!-- Created with Inkscape (http://www.inkscape.org/) -->

<svg
   xmlns:dc="http://purl.org/dc/elements/1.1/"
   xmlns:cc="http://creativecommons.org/ns#"
   xmlns:rdf="http://www.w3.org/1999/02/22-rdf-syntax-ns#"
   xmlns:svg="http://www.w3.org/2000/svg"
   xmlns="http://www.w3.org/2000/svg"
   xmlns:sodipodi="http://sodipodi.sourceforge.net/DTD/sodipodi-0.dtd"
   xmlns:inkscape="http://www.inkscape.org/namespaces/inkscape"
   width="48"
   height="48"
   viewBox="0 0 48 48"
   id="svg2"
   version="1.1"
   inkscape:version="0.92.2 (5c3e80d, 2017-08-06)"
   sodipodi:docname="47.8_MARKTHANDEL.svg">
  <defs
     id="defs4">
    <filter
       color-interpolation-filters="sRGB"
       inkscape:menu-tooltip="Blur as if the object flies vertically; adjust Standard Deviation to vary force"
       inkscape:menu="Blurs"
       inkscape:label="Motion blur, vertical"
       id="filter3853">
      <feGaussianBlur
         result="fbSourceGraphic"
         stdDeviation="5 0.01"
         in="SourceGraphic"
         id="feGaussianBlur3855" />
      <feColorMatrix
         id="feColorMatrix3857"
         values="0 0 0 -1 0 0 0 0 -1 0 0 0 0 -1 0 0 0 0 1 0"
         in="fbSourceGraphic"
         result="fbSourceGraphicAlpha" />
      <feGaussianBlur
         stdDeviation="0.01 5"
         in="fbSourceGraphic"
         id="feGaussianBlur3859" />
    </filter>
    <inkscape:perspective
       inkscape:persp3d-origin="290 : 193.33333 : 1"
       id="perspective3653-9"
       sodipodi:type="inkscape:persp3d"
       inkscape:vp_x="0 : 290 : 1"
       inkscape:vp_y="0 : 1000 : 0"
       inkscape:vp_z="580 : 290 : 1" />
    <inkscape:perspective
       inkscape:persp3d-origin="290 : 193.33333 : 1"
       id="perspective3653-5-5"
       sodipodi:type="inkscape:persp3d"
       inkscape:vp_x="0 : 290 : 1"
       inkscape:vp_y="0 : 1000 : 0"
       inkscape:vp_z="580 : 290 : 1" />
    <inkscape:perspective
       inkscape:persp3d-origin="290 : 193.33333 : 1"
       id="perspective3653"
       sodipodi:type="inkscape:persp3d"
       inkscape:vp_x="0 : 290 : 1"
       inkscape:vp_y="0 : 1000 : 0"
       inkscape:vp_z="580 : 290 : 1" />
    <inkscape:perspective
       inkscape:persp3d-origin="290 : 193.33333 : 1"
       id="perspective3653-5"
       sodipodi:type="inkscape:persp3d"
       inkscape:vp_x="0 : 290 : 1"
       inkscape:vp_y="0 : 1000 : 0"
       inkscape:vp_z="580 : 290 : 1" />
    <filter
       color-interpolation-filters="sRGB"
       inkscape:menu-tooltip="Blur as if the object flies vertically; adjust Standard Deviation to vary force"
       inkscape:menu="Blurs"
       inkscape:label="Motion blur, vertical"
       id="filter3853-0">
      <feGaussianBlur
         result="fbSourceGraphic"
         stdDeviation="5 0.01"
         in="SourceGraphic"
         id="feGaussianBlur3855-21" />
      <feColorMatrix
         id="feColorMatrix3857-0"
         values="0 0 0 -1 0 0 0 0 -1 0 0 0 0 -1 0 0 0 0 1 0"
         in="fbSourceGraphic"
         result="fbSourceGraphicAlpha" />
      <feGaussianBlur
         stdDeviation="0.01 5"
         in="fbSourceGraphic"
         id="feGaussianBlur3859-0" />
    </filter>
    <inkscape:perspective
       inkscape:persp3d-origin="290 : 193.33333 : 1"
       id="perspective3653-9-4"
       sodipodi:type="inkscape:persp3d"
       inkscape:vp_x="0 : 290 : 1"
       inkscape:vp_y="0 : 1000 : 0"
       inkscape:vp_z="580 : 290 : 1" />
    <inkscape:perspective
       inkscape:persp3d-origin="290 : 193.33333 : 1"
       id="perspective3653-5-5-2"
       sodipodi:type="inkscape:persp3d"
       inkscape:vp_x="0 : 290 : 1"
       inkscape:vp_y="0 : 1000 : 0"
       inkscape:vp_z="580 : 290 : 1" />
    <inkscape:perspective
       inkscape:persp3d-origin="290 : 193.33333 : 1"
       id="perspective3653-2"
       sodipodi:type="inkscape:persp3d"
       inkscape:vp_x="0 : 290 : 1"
       inkscape:vp_y="0 : 1000 : 0"
       inkscape:vp_z="580 : 290 : 1" />
    <inkscape:perspective
       inkscape:persp3d-origin="290 : 193.33333 : 1"
       id="perspective3653-5-4"
       sodipodi:type="inkscape:persp3d"
       inkscape:vp_x="0 : 290 : 1"
       inkscape:vp_y="0 : 1000 : 0"
       inkscape:vp_z="580 : 290 : 1" />
    <filter
       color-interpolation-filters="sRGB"
       inkscape:menu-tooltip="Blur as if the object flies vertically; adjust Standard Deviation to vary force"
       inkscape:menu="Blurs"
       inkscape:label="Motion blur, vertical"
       id="filter3853-3">
      <feGaussianBlur
         result="fbSourceGraphic"
         stdDeviation="5 0.01"
         in="SourceGraphic"
         id="feGaussianBlur3855-2" />
      <feColorMatrix
         id="feColorMatrix3857-2"
         values="0 0 0 -1 0 0 0 0 -1 0 0 0 0 -1 0 0 0 0 1 0"
         in="fbSourceGraphic"
         result="fbSourceGraphicAlpha" />
      <feGaussianBlur
         stdDeviation="0.01 5"
         in="fbSourceGraphic"
         id="feGaussianBlur3859-5" />
    </filter>
    <inkscape:perspective
       inkscape:persp3d-origin="290 : 193.33333 : 1"
       id="perspective3653-9-8"
       sodipodi:type="inkscape:persp3d"
       inkscape:vp_x="0 : 290 : 1"
       inkscape:vp_y="0 : 1000 : 0"
       inkscape:vp_z="580 : 290 : 1" />
    <inkscape:perspective
       inkscape:persp3d-origin="290 : 193.33333 : 1"
       id="perspective3653-5-5-7"
       sodipodi:type="inkscape:persp3d"
       inkscape:vp_x="0 : 290 : 1"
       inkscape:vp_y="0 : 1000 : 0"
       inkscape:vp_z="580 : 290 : 1" />
    <inkscape:perspective
       inkscape:persp3d-origin="290 : 193.33333 : 1"
       id="perspective3653-54"
       sodipodi:type="inkscape:persp3d"
       inkscape:vp_x="0 : 290 : 1"
       inkscape:vp_y="0 : 1000 : 0"
       inkscape:vp_z="580 : 290 : 1" />
    <inkscape:perspective
       inkscape:persp3d-origin="290 : 193.33333 : 1"
       id="perspective3653-5-0"
       sodipodi:type="inkscape:persp3d"
       inkscape:vp_x="0 : 290 : 1"
       inkscape:vp_y="0 : 1000 : 0"
       inkscape:vp_z="580 : 290 : 1" />
    <filter
       color-interpolation-filters="sRGB"
       inkscape:menu-tooltip="Blur as if the object flies vertically; adjust Standard Deviation to vary force"
       inkscape:menu="Blurs"
       inkscape:label="Motion blur, vertical"
       id="filter3853-5">
      <feGaussianBlur
         result="fbSourceGraphic"
         stdDeviation="5 0.01"
         in="SourceGraphic"
         id="feGaussianBlur3855-0" />
      <feColorMatrix
         id="feColorMatrix3857-29"
         values="0 0 0 -1 0 0 0 0 -1 0 0 0 0 -1 0 0 0 0 1 0"
         in="fbSourceGraphic"
         result="fbSourceGraphicAlpha" />
      <feGaussianBlur
         stdDeviation="0.01 5"
         in="fbSourceGraphic"
         id="feGaussianBlur3859-08" />
    </filter>
    <inkscape:perspective
       inkscape:persp3d-origin="290 : 193.33333 : 1"
       id="perspective3653-9-9"
       sodipodi:type="inkscape:persp3d"
       inkscape:vp_x="0 : 290 : 1"
       inkscape:vp_y="0 : 1000 : 0"
       inkscape:vp_z="580 : 290 : 1" />
    <inkscape:perspective
       inkscape:persp3d-origin="290 : 193.33333 : 1"
       id="perspective3653-5-5-4"
       sodipodi:type="inkscape:persp3d"
       inkscape:vp_x="0 : 290 : 1"
       inkscape:vp_y="0 : 1000 : 0"
       inkscape:vp_z="580 : 290 : 1" />
    <inkscape:perspective
       inkscape:persp3d-origin="290 : 193.33333 : 1"
       id="perspective3653-4"
       sodipodi:type="inkscape:persp3d"
       inkscape:vp_x="0 : 290 : 1"
       inkscape:vp_y="0 : 1000 : 0"
       inkscape:vp_z="580 : 290 : 1" />
    <inkscape:perspective
       inkscape:persp3d-origin="290 : 193.33333 : 1"
       id="perspective3653-5-6"
       sodipodi:type="inkscape:persp3d"
       inkscape:vp_x="0 : 290 : 1"
       inkscape:vp_y="0 : 1000 : 0"
       inkscape:vp_z="580 : 290 : 1" />
    <filter
       color-interpolation-filters="sRGB"
       inkscape:menu-tooltip="Blur as if the object flies vertically; adjust Standard Deviation to vary force"
       inkscape:menu="Blurs"
       inkscape:label="Motion blur, vertical"
       id="filter3853-9">
      <feGaussianBlur
         result="fbSourceGraphic"
         stdDeviation="5 0.01"
         in="SourceGraphic"
         id="feGaussianBlur3855-20" />
      <feColorMatrix
         id="feColorMatrix3857-8"
         values="0 0 0 -1 0 0 0 0 -1 0 0 0 0 -1 0 0 0 0 1 0"
         in="fbSourceGraphic"
         result="fbSourceGraphicAlpha" />
      <feGaussianBlur
         stdDeviation="0.01 5"
         in="fbSourceGraphic"
         id="feGaussianBlur3859-4" />
    </filter>
    <inkscape:perspective
       inkscape:persp3d-origin="290 : 193.33333 : 1"
       id="perspective3653-9-41"
       sodipodi:type="inkscape:persp3d"
       inkscape:vp_x="0 : 290 : 1"
       inkscape:vp_y="0 : 1000 : 0"
       inkscape:vp_z="580 : 290 : 1" />
    <inkscape:perspective
       inkscape:persp3d-origin="290 : 193.33333 : 1"
       id="perspective3653-5-5-8"
       sodipodi:type="inkscape:persp3d"
       inkscape:vp_x="0 : 290 : 1"
       inkscape:vp_y="0 : 1000 : 0"
       inkscape:vp_z="580 : 290 : 1" />
    <inkscape:perspective
       inkscape:persp3d-origin="290 : 193.33333 : 1"
       id="perspective3653-91"
       sodipodi:type="inkscape:persp3d"
       inkscape:vp_x="0 : 290 : 1"
       inkscape:vp_y="0 : 1000 : 0"
       inkscape:vp_z="580 : 290 : 1" />
    <inkscape:perspective
       inkscape:persp3d-origin="290 : 193.33333 : 1"
       id="perspective3653-5-05"
       sodipodi:type="inkscape:persp3d"
       inkscape:vp_x="0 : 290 : 1"
       inkscape:vp_y="0 : 1000 : 0"
       inkscape:vp_z="580 : 290 : 1" />
    <filter
       color-interpolation-filters="sRGB"
       inkscape:menu-tooltip="Blur as if the object flies vertically; adjust Standard Deviation to vary force"
       inkscape:menu="Blurs"
       inkscape:label="Motion blur, vertical"
       id="filter3853-53">
      <feGaussianBlur
         result="fbSourceGraphic"
         stdDeviation="5 0.01"
         in="SourceGraphic"
         id="feGaussianBlur3855-8" />
      <feColorMatrix
         id="feColorMatrix3857-6"
         values="0 0 0 -1 0 0 0 0 -1 0 0 0 0 -1 0 0 0 0 1 0"
         in="fbSourceGraphic"
         result="fbSourceGraphicAlpha" />
      <feGaussianBlur
         stdDeviation="0.01 5"
         in="fbSourceGraphic"
         id="feGaussianBlur3859-3" />
    </filter>
    <inkscape:perspective
       inkscape:persp3d-origin="290 : 193.33333 : 1"
       id="perspective3653-9-2"
       sodipodi:type="inkscape:persp3d"
       inkscape:vp_x="0 : 290 : 1"
       inkscape:vp_y="0 : 1000 : 0"
       inkscape:vp_z="580 : 290 : 1" />
    <inkscape:perspective
       inkscape:persp3d-origin="290 : 193.33333 : 1"
       id="perspective3653-5-5-3"
       sodipodi:type="inkscape:persp3d"
       inkscape:vp_x="0 : 290 : 1"
       inkscape:vp_y="0 : 1000 : 0"
       inkscape:vp_z="580 : 290 : 1" />
    <inkscape:perspective
       inkscape:persp3d-origin="290 : 193.33333 : 1"
       id="perspective3653-1"
       sodipodi:type="inkscape:persp3d"
       inkscape:vp_x="0 : 290 : 1"
       inkscape:vp_y="0 : 1000 : 0"
       inkscape:vp_z="580 : 290 : 1" />
    <inkscape:perspective
       inkscape:persp3d-origin="290 : 193.33333 : 1"
       id="perspective3653-5-7"
       sodipodi:type="inkscape:persp3d"
       inkscape:vp_x="0 : 290 : 1"
       inkscape:vp_y="0 : 1000 : 0"
       inkscape:vp_z="580 : 290 : 1" />
  </defs>
  <sodipodi:namedview
     id="base"
     pagecolor="#ffffff"
     bordercolor="#666666"
     borderopacity="1.0"
     inkscape:pageopacity="0.0"
     inkscape:pageshadow="2"
     inkscape:zoom="14.481547"
     inkscape:cx="13.796604"
     inkscape:cy="20.915491"
     inkscape:document-units="px"
     inkscape:current-layer="layer1"
     showgrid="false"
     inkscape:window-width="1920"
     inkscape:window-height="1017"
     inkscape:window-x="1912"
     inkscape:window-y="-8"
     inkscape:window-maximized="1" />
  <metadata
     id="metadata7">
    <rdf:RDF>
      <cc:Work
         rdf:about="">
        <dc:format>image/svg+xml</dc:format>
        <dc:type
           rdf:resource="http://purl.org/dc/dcmitype/StillImage" />
        <dc:title />
      </cc:Work>
    </rdf:RDF>
  </metadata>
  <g
     inkscape:label="Laag 1"
     inkscape:groupmode="layer"
     id="layer1"
     transform="translate(0,-1004.3622)">
    <rect
       ry="9.6995745"
       y="1005.8802"
       x="1.3561161"
       height="45.234459"
       width="44.999073"
       id="rect3435"
       style="fill:#ffffff;fill-opacity:1;stroke:#ff7f2a;stroke-width:0.88619024;stroke-opacity:1" />
    <rect
       style="fill:#ff7f2a;fill-opacity:1;stroke:#ff7f2a;stroke-width:0.73167545;stroke-opacity:1"
       id="rect3803"
       width="41.709263"
       height="41.236824"
       x="2.9865186"
       y="1007.6642"
       ry="8.8423662" />
    <g
       transform="matrix(0.08784922,0,0,0.0842626,5.3940796,1010.7024)"
       id="g866">
      <g
         transform="matrix(12.979711,0,0,12.628214,-0.24920763,13.450713)"
         id="g1010" />
      <g
         transform="matrix(12.979711,0,0,12.628214,-0.24920763,13.450713)"
         id="g1012" />
      <g
         transform="matrix(12.979711,0,0,12.628214,-0.24920763,13.450713)"
         id="g1014" />
      <g
         transform="matrix(12.979711,0,0,12.628214,-0.24920763,13.450713)"
         id="g1016" />
      <g
         transform="matrix(12.979711,0,0,12.628214,-0.24920763,13.450713)"
         id="g1018" />
      <g
         transform="matrix(12.979711,0,0,12.628214,-0.24920763,13.450713)"
         id="g1020" />
      <g
         transform="matrix(12.979711,0,0,12.628214,-0.24920763,13.450713)"
         id="g1022" />
      <g
         transform="matrix(12.979711,0,0,12.628214,-0.24920763,13.450713)"
         id="g1024" />
      <g
         transform="matrix(12.979711,0,0,12.628214,-0.24920763,13.450713)"
         id="g1026" />
      <g
         transform="matrix(12.979711,0,0,12.628214,-0.24920763,13.450713)"
         id="g1028" />
      <g
         transform="matrix(12.979711,0,0,12.628214,-0.24920763,13.450713)"
         id="g1030" />
      <g
         transform="matrix(12.979711,0,0,12.628214,-0.24920763,13.450713)"
         id="g1032" />
      <g
         transform="matrix(12.979711,0,0,12.628214,-0.24920763,13.450713)"
         id="g1034" />
      <g
         transform="matrix(12.979711,0,0,12.628214,-0.24920763,13.450713)"
         id="g1036" />
      <g
         transform="matrix(12.979711,0,0,12.628214,-0.24920763,13.450713)"
         id="g1038" />
      <g
         transform="matrix(1.0436439,0,0,1.1322711,32.802565,-8.6731193)"
         id="g1666" />
      <g
         transform="matrix(1.0436439,0,0,1.1322711,32.802565,-8.6731193)"
         id="g1668" />
      <g
         transform="matrix(1.0436439,0,0,1.1322711,32.802565,-8.6731193)"
         id="g1670" />
      <g
         transform="matrix(1.0436439,0,0,1.1322711,32.802565,-8.6731193)"
         id="g1672" />
      <g
         transform="matrix(1.0436439,0,0,1.1322711,32.802565,-8.6731193)"
         id="g1674" />
      <g
         transform="matrix(1.0436439,0,0,1.1322711,32.802565,-8.6731193)"
         id="g1676" />
      <g
         transform="matrix(1.0436439,0,0,1.1322711,32.802565,-8.6731193)"
         id="g1678" />
      <g
         transform="matrix(1.0436439,0,0,1.1322711,32.802565,-8.6731193)"
         id="g1680" />
      <g
         transform="matrix(1.0436439,0,0,1.1322711,32.802565,-8.6731193)"
         id="g1682" />
      <g
         transform="matrix(1.0436439,0,0,1.1322711,32.802565,-8.6731193)"
         id="g1684" />
      <g
         transform="matrix(1.0436439,0,0,1.1322711,32.802565,-8.6731193)"
         id="g1686" />
      <g
         transform="matrix(1.0436439,0,0,1.1322711,32.802565,-8.6731193)"
         id="g1688" />
      <g
         transform="matrix(1.0436439,0,0,1.1322711,32.802565,-8.6731193)"
         id="g1690" />
      <g
         transform="matrix(1.0436439,0,0,1.1322711,32.802565,-8.6731193)"
         id="g1692" />
      <g
         transform="matrix(1.0436439,0,0,1.1322711,32.802565,-8.6731193)"
         id="g1694" />
      <g
         transform="matrix(0.49069219,0,0,0.52453302,22.876292,170.40704)"
         id="g3575"
         style="fill:#ffffff;fill-opacity:1">
        <g
           id="g3573"
           style="fill:#ffffff;fill-opacity:1">
          <path
             inkscape:connector-curvature="0"
             d="m 512.603,270.913 c -17.002,-3.118 -45.795,-3.146 -80.104,-9.534 l 4.714,28.257 c 0.813,4.82 -2.457,9.381 -7.268,10.174 -0.497,0.086 -0.984,0.115 -1.473,0.115 -4.245,0 -7.994,-3.051 -8.711,-7.373 l -4.905,-29.366 c -0.536,-3.213 -3.529,-6.445 -6.665,-7.287 -1.77,-0.487 -3.548,-0.985 -5.346,-1.501 -3.127,-0.899 -5.222,0.927 -4.686,4.131 l 2.467,14.812 c 0.812,4.819 -2.457,9.371 -7.268,10.184 -0.497,0.077 -0.984,0.125 -1.473,0.125 -4.236,0 -7.984,-3.051 -8.711,-7.383 L 379.1,251.864 c -0.535,-3.223 -3.423,-6.78 -6.436,-8.042 -2.113,-0.87 -4.227,-1.788 -6.35,-2.745 -2.974,-1.329 -4.915,0.134 -4.37,3.347 l 2.104,12.613 c 0.812,4.829 -2.448,9.39 -7.268,10.184 -0.497,0.076 -0.976,0.134 -1.463,0.134 -4.236,0 -7.985,-3.069 -8.712,-7.392 l -4.332,-25.962 c -0.525,-3.213 -3.241,-7.153 -6.015,-8.845 -2.63,-1.635 -5.278,-3.337 -7.918,-5.097 -2.706,-1.798 -4.437,-0.717 -3.901,2.496 l 3.031,18.188 c 0.813,4.819 -2.447,9.371 -7.268,10.165 -0.497,0.095 -0.984,0.134 -1.463,0.134 -4.245,0 -7.994,-3.06 -8.711,-7.392 l -7.526,-45.116 c -1.759,-2.018 -3.385,-3.988 -4.666,-5.699 -10.882,-14.458 -32.627,-40.841 -50.585,-47.191 -18.8,-6.636 -33.87,6.923 -37.112,19.498 -1.616,6.321 1.224,16.82 3.242,23.017 1.253,3.844 3.204,8.042 6.235,11.504 4.284,4.905 5.91,10.098 0.937,14.296 -11.628,9.888 -33.622,26.622 -58.551,35.85 -49.142,18.188 -57.748,-6.875 -57.748,-6.875 0,0 -10.873,-35.228 -28.286,-47.917 -5.259,-3.844 -16.161,-5.221 -22.491,-3.729 -2.247,0.545 -4.312,1.387 -6.282,2.362 3.882,22.692 20.913,77.456 95.396,113.393 96.61,46.654 289.006,55.959 325.057,57.307 3.261,0.125 3.3,0.68 0.096,1.225 -23.485,3.959 -114.491,17.441 -205.01,6.34 C 151.476,358.237 49.08,326.212 22.277,236.047 c -0.555,1.97 -1.081,3.815 -1.587,5.403 -4.322,13.626 -8.329,22.701 -9.161,52.326 -0.172,6.512 -2.85,16.352 -5.145,22.453 -2.754,7.285 -5.67,18.053 -6.053,31.355 -0.382,13.244 -0.373,24.557 -0.268,32.426 0.086,6.512 4.188,15.387 9.801,18.695 4.007,2.381 9.094,4.809 14.927,6.311 6.312,1.635 16.094,4.553 22.31,6.531 2.687,0.861 5.814,1.588 9.294,1.951 6.483,0.668 14.066,-0.201 16.916,-0.039 2.85,0.154 5.154,1.635 5.154,3.318 0,1.683 3.404,3.041 7.612,3.041 4.208,0 8.826,-1.77 10.318,-3.93 1.492,-2.172 4.466,-3.93 6.636,-3.93 2.171,0 3.94,1.768 3.94,3.93 0,2.17 3.184,3.93 7.124,3.93 3.94,0 8.224,-1.865 9.572,-4.188 1.367,-2.295 4.121,-4.18 6.158,-4.18 2.027,0 4.886,1.875 6.378,4.18 1.501,2.312 5.575,4.188 9.104,4.188 3.529,0 7.488,-1.77 8.845,-3.93 1.358,-2.172 4.542,-2.172 7.115,0 2.582,2.17 8.53,3.93 13.273,3.93 4.743,0 9.151,-1.424 9.83,-3.184 0.669,-1.77 3.203,-3.203 5.651,-3.203 2.438,0 5.527,1.424 6.885,3.203 1.358,1.76 6.082,2.408 10.557,1.473 4.476,-0.957 9.094,-3.711 10.318,-6.148 1.224,-2.439 3.758,-2.889 5.661,-0.996 1.884,1.914 7.057,4.008 11.542,4.668 4.475,0.688 9.869,-0.086 12.039,-1.723 2.171,-1.625 5.69,-2.609 7.851,-2.219 2.17,0.422 3.93,2.391 3.93,4.428 0,2.047 3.749,3.691 8.357,3.691 4.619,0 9.677,-1.09 11.312,-2.457 1.625,-1.357 4.81,-2.133 7.114,-1.721 2.305,0.4 4.179,1.836 4.179,3.193 0,1.357 2.305,2.447 5.154,2.447 2.859,0 7.038,-0.879 9.343,-1.959 2.305,-1.092 5.498,-1.75 7.124,-1.473 1.636,0.268 2.955,1.701 2.955,3.203 0,1.49 5.278,2.695 11.79,2.695 h 0.985 c 6.521,0 11.79,-1.768 11.79,-3.93 0,-2.17 1.875,-3.93 4.17,-3.93 2.305,0 4.179,1.77 4.179,3.93 0,2.172 4.618,3.93 10.317,3.93 5.699,0 12.298,-1.205 14.746,-2.695 2.438,-1.502 6.072,-1.502 8.108,0 2.027,1.49 8.855,2.695 15.233,2.695 6.378,0 12.651,-1.539 14.009,-3.432 1.358,-1.895 4.332,-3.988 6.627,-4.676 2.305,-0.66 5.059,0.314 6.14,2.209 1.09,1.902 7.143,2.418 13.55,1.186 l 1.912,-0.383 c 6.388,-1.254 12.24,-4.361 13.053,-6.953 0.813,-2.572 2.688,-4.885 4.179,-5.154 1.492,-0.268 4.026,1.168 5.652,3.195 1.625,2.037 6.474,2.695 10.805,1.463 4.342,-1.215 8.415,-5.289 9.095,-9.084 0.679,-3.797 3.538,-7.65 6.388,-8.588 2.85,-0.957 5.154,0.479 5.154,3.193 0,2.717 4.943,3.041 11.035,0.756 6.139,-2.334 11.082,-6.396 11.082,-9.113 0,-2.715 1.646,-5.584 3.682,-6.387 2.037,-0.814 4.677,-0.488 5.9,0.727 1.215,1.223 4.849,0.354 8.109,-1.961 3.261,-2.295 6.34,-5.938 6.885,-8.1 0.545,-2.17 5.565,-6.637 10.337,-11.072 9.85,-9.172 23.142,-27.197 16.677,-54.508 -9.838,-41.526 -17.21,-29.496 -53.328,-36.141 z"
             id="path3571"
             style="fill:#ffffff;fill-opacity:1" />
        </g>
      </g>
      <g
         transform="matrix(0.40068237,0,0,0.63581632,-505.34555,537.92047)"
         id="g3577" />
      <g
         transform="matrix(0.40068237,0,0,0.63581632,-505.34555,537.92047)"
         id="g3579" />
      <g
         transform="matrix(0.40068237,0,0,0.63581632,-505.34555,537.92047)"
         id="g3581" />
      <g
         transform="matrix(0.40068237,0,0,0.63581632,-505.34555,537.92047)"
         id="g3583" />
      <g
         transform="matrix(0.40068237,0,0,0.63581632,-505.34555,537.92047)"
         id="g3585" />
      <g
         transform="matrix(0.40068237,0,0,0.63581632,-505.34555,537.92047)"
         id="g3587" />
      <g
         transform="matrix(0.40068237,0,0,0.63581632,-505.34555,537.92047)"
         id="g3589" />
      <g
         transform="matrix(0.40068237,0,0,0.63581632,-505.34555,537.92047)"
         id="g3591" />
      <g
         transform="matrix(0.40068237,0,0,0.63581632,-505.34555,537.92047)"
         id="g3593" />
      <g
         transform="matrix(0.40068237,0,0,0.63581632,-505.34555,537.92047)"
         id="g3595" />
      <g
         transform="matrix(0.40068237,0,0,0.63581632,-505.34555,537.92047)"
         id="g3597" />
      <g
         transform="matrix(0.40068237,0,0,0.63581632,-505.34555,537.92047)"
         id="g3599" />
      <g
         transform="matrix(0.40068237,0,0,0.63581632,-505.34555,537.92047)"
         id="g3601" />
      <g
         transform="matrix(0.40068237,0,0,0.63581632,-505.34555,537.92047)"
         id="g3603" />
      <g
         transform="matrix(0.40068237,0,0,0.63581632,-505.34555,537.92047)"
         id="g3605" />
      <g
         transform="matrix(0.79909367,0,0,0.80292174,159.08975,-6.0044495)"
         id="g2946"
         style="fill:#ffffff;fill-opacity:1">
        <path
           inkscape:connector-curvature="0"
           d="m 147.763,44.074 c 12.801,0 23.858,-8.162 27.83,-20.169 -7.578,2.086 -17.237,3.345 -27.83,3.345 -10.592,0 -20.251,-1.259 -27.828,-3.345 3.97,12.006 15.026,20.169 27.828,20.169 z"
           id="path2942"
           style="fill:#ffffff;fill-opacity:1" />
        <path
           inkscape:connector-curvature="0"
           d="m 295.158,58.839 c -0.608,-1.706 -1.873,-3.109 -3.521,-3.873 l -56.343,-26.01 c -11.985,-4.06 -24.195,-7.267 -36.524,-9.611 -0.434,-0.085 -0.866,-0.126 -1.292,-0.126 -3.052,0 -5.785,2.107 -6.465,5.197 -4.502,19.82 -22.047,34.659 -43.251,34.659 -21.203,0 -38.749,-14.838 -43.25,-34.659 -0.688,-3.09 -3.416,-5.197 -6.466,-5.197 -0.426,0 -0.858,0.041 -1.292,0.126 -12.328,2.344 -24.538,5.551 -36.542,9.611 L 3.889,54.965 c -1.658,0.764 -2.932,2.167 -3.511,3.873 -0.599,1.726 -0.491,3.589 0.353,5.217 l 24.46,48.272 c 1.145,2.291 3.474,3.666 5.938,3.666 0.636,0 1.281,-0.092 1.917,-0.283 l 27.167,-8.052 v 161.97 c 0,3.678 3.001,6.678 6.689,6.678 h 161.723 c 3.678,0 6.67,-3.001 6.67,-6.678 V 107.66 l 27.186,8.052 c 0.636,0.191 1.28,0.283 1.915,0.283 2.459,0 4.779,-1.375 5.94,-3.666 l 24.469,-48.272 c 0.824,-1.629 0.942,-3.492 0.353,-5.218 z"
           id="path2944"
           style="fill:#ffffff;fill-opacity:1" />
      </g>
      <g
         transform="matrix(0.5198136,0,0,0.47140657,234.5499,4.4644522)"
         id="g2948" />
      <g
         transform="matrix(0.5198136,0,0,0.47140657,234.5499,4.4644522)"
         id="g2950" />
      <g
         transform="matrix(0.5198136,0,0,0.47140657,234.5499,4.4644522)"
         id="g2952" />
      <g
         transform="matrix(0.5198136,0,0,0.47140657,234.5499,4.4644522)"
         id="g2954" />
      <g
         transform="matrix(0.5198136,0,0,0.47140657,234.5499,4.4644522)"
         id="g2956" />
      <g
         transform="matrix(0.5198136,0,0,0.47140657,234.5499,4.4644522)"
         id="g2958" />
      <g
         transform="matrix(0.5198136,0,0,0.47140657,234.5499,4.4644522)"
         id="g2960" />
      <g
         transform="matrix(0.5198136,0,0,0.47140657,234.5499,4.4644522)"
         id="g2962" />
      <g
         transform="matrix(0.5198136,0,0,0.47140657,234.5499,4.4644522)"
         id="g2964" />
      <g
         transform="matrix(0.5198136,0,0,0.47140657,234.5499,4.4644522)"
         id="g2966" />
      <g
         transform="matrix(0.5198136,0,0,0.47140657,234.5499,4.4644522)"
         id="g2968" />
      <g
         transform="matrix(0.5198136,0,0,0.47140657,234.5499,4.4644522)"
         id="g2970" />
      <g
         transform="matrix(0.5198136,0,0,0.47140657,234.5499,4.4644522)"
         id="g2972" />
      <g
         transform="matrix(0.5198136,0,0,0.47140657,234.5499,4.4644522)"
         id="g2974" />
      <g
         transform="matrix(0.5198136,0,0,0.47140657,234.5499,4.4644522)"
         id="g2976" />
    </g>
    <g
       transform="matrix(0.09063537,0,0,0.0842626,4.7072253,1010.7024)"
       id="g868" />
    <g
       transform="matrix(0.09063537,0,0,0.0842626,4.7072253,1010.7024)"
       id="g870" />
    <g
       transform="matrix(0.09063537,0,0,0.0842626,4.7072253,1010.7024)"
       id="g872" />
    <g
       transform="matrix(0.09063537,0,0,0.0842626,4.7072253,1010.7024)"
       id="g874" />
    <g
       transform="matrix(0.09063537,0,0,0.0842626,4.7072253,1010.7024)"
       id="g876" />
    <g
       transform="matrix(0.09063537,0,0,0.0842626,4.7072253,1010.7024)"
       id="g878" />
    <g
       transform="matrix(0.09063537,0,0,0.0842626,4.7072253,1010.7024)"
       id="g880" />
    <g
       transform="matrix(0.09063537,0,0,0.0842626,4.7072253,1010.7024)"
       id="g882" />
    <g
       transform="matrix(0.09063537,0,0,0.0842626,4.7072253,1010.7024)"
       id="g884" />
    <g
       transform="matrix(0.09063537,0,0,0.0842626,4.7072253,1010.7024)"
       id="g886" />
    <g
       transform="matrix(0.09063537,0,0,0.0842626,4.7072253,1010.7024)"
       id="g888" />
    <g
       transform="matrix(0.09063537,0,0,0.0842626,4.7072253,1010.7024)"
       id="g890" />
    <g
       transform="matrix(0.09063537,0,0,0.0842626,4.7072253,1010.7024)"
       id="g892" />
    <g
       transform="matrix(0.09063537,0,0,0.0842626,4.7072253,1010.7024)"
       id="g894" />
    <g
       transform="matrix(0.09063537,0,0,0.0842626,4.7072253,1010.7024)"
       id="g896" />
  </g>
</svg>
