<?xml version="1.0" encoding="UTF-8" standalone="no"?>
<!-- Created with Inkscape (http://www.inkscape.org/) -->

<svg
   xmlns:dc="http://purl.org/dc/elements/1.1/"
   xmlns:cc="http://creativecommons.org/ns#"
   xmlns:rdf="http://www.w3.org/1999/02/22-rdf-syntax-ns#"
   xmlns:svg="http://www.w3.org/2000/svg"
   xmlns="http://www.w3.org/2000/svg"
   xmlns:sodipodi="http://sodipodi.sourceforge.net/DTD/sodipodi-0.dtd"
   xmlns:inkscape="http://www.inkscape.org/namespaces/inkscape"
   width="48"
   height="48"
   viewBox="0 0 48 48"
   id="svg2"
   version="1.1"
   inkscape:version="0.92.2 (5c3e80d, 2017-08-06)"
   sodipodi:docname="45_HANDEL_AUTO.svg">
  <defs
     id="defs4">
    <filter
       color-interpolation-filters="sRGB"
       inkscape:menu-tooltip="Blur as if the object flies vertically; adjust Standard Deviation to vary force"
       inkscape:menu="Blurs"
       inkscape:label="Motion blur, vertical"
       id="filter3853">
      <feGaussianBlur
         result="fbSourceGraphic"
         stdDeviation="5 0.01"
         in="SourceGraphic"
         id="feGaussianBlur3855" />
      <feColorMatrix
         id="feColorMatrix3857"
         values="0 0 0 -1 0 0 0 0 -1 0 0 0 0 -1 0 0 0 0 1 0"
         in="fbSourceGraphic"
         result="fbSourceGraphicAlpha" />
      <feGaussianBlur
         stdDeviation="0.01 5"
         in="fbSourceGraphic"
         id="feGaussianBlur3859" />
    </filter>
    <inkscape:perspective
       inkscape:persp3d-origin="290 : 193.33333 : 1"
       id="perspective3653-9"
       sodipodi:type="inkscape:persp3d"
       inkscape:vp_x="0 : 290 : 1"
       inkscape:vp_y="0 : 1000 : 0"
       inkscape:vp_z="580 : 290 : 1" />
    <inkscape:perspective
       inkscape:persp3d-origin="290 : 193.33333 : 1"
       id="perspective3653-5-5"
       sodipodi:type="inkscape:persp3d"
       inkscape:vp_x="0 : 290 : 1"
       inkscape:vp_y="0 : 1000 : 0"
       inkscape:vp_z="580 : 290 : 1" />
    <inkscape:perspective
       inkscape:persp3d-origin="290 : 193.33333 : 1"
       id="perspective3653"
       sodipodi:type="inkscape:persp3d"
       inkscape:vp_x="0 : 290 : 1"
       inkscape:vp_y="0 : 1000 : 0"
       inkscape:vp_z="580 : 290 : 1" />
    <inkscape:perspective
       inkscape:persp3d-origin="290 : 193.33333 : 1"
       id="perspective3653-5"
       sodipodi:type="inkscape:persp3d"
       inkscape:vp_x="0 : 290 : 1"
       inkscape:vp_y="0 : 1000 : 0"
       inkscape:vp_z="580 : 290 : 1" />
    <filter
       color-interpolation-filters="sRGB"
       inkscape:menu-tooltip="Blur as if the object flies vertically; adjust Standard Deviation to vary force"
       inkscape:menu="Blurs"
       inkscape:label="Motion blur, vertical"
       id="filter3853-0">
      <feGaussianBlur
         result="fbSourceGraphic"
         stdDeviation="5 0.01"
         in="SourceGraphic"
         id="feGaussianBlur3855-21" />
      <feColorMatrix
         id="feColorMatrix3857-0"
         values="0 0 0 -1 0 0 0 0 -1 0 0 0 0 -1 0 0 0 0 1 0"
         in="fbSourceGraphic"
         result="fbSourceGraphicAlpha" />
      <feGaussianBlur
         stdDeviation="0.01 5"
         in="fbSourceGraphic"
         id="feGaussianBlur3859-0" />
    </filter>
    <inkscape:perspective
       inkscape:persp3d-origin="290 : 193.33333 : 1"
       id="perspective3653-9-4"
       sodipodi:type="inkscape:persp3d"
       inkscape:vp_x="0 : 290 : 1"
       inkscape:vp_y="0 : 1000 : 0"
       inkscape:vp_z="580 : 290 : 1" />
    <inkscape:perspective
       inkscape:persp3d-origin="290 : 193.33333 : 1"
       id="perspective3653-5-5-2"
       sodipodi:type="inkscape:persp3d"
       inkscape:vp_x="0 : 290 : 1"
       inkscape:vp_y="0 : 1000 : 0"
       inkscape:vp_z="580 : 290 : 1" />
    <inkscape:perspective
       inkscape:persp3d-origin="290 : 193.33333 : 1"
       id="perspective3653-2"
       sodipodi:type="inkscape:persp3d"
       inkscape:vp_x="0 : 290 : 1"
       inkscape:vp_y="0 : 1000 : 0"
       inkscape:vp_z="580 : 290 : 1" />
    <inkscape:perspective
       inkscape:persp3d-origin="290 : 193.33333 : 1"
       id="perspective3653-5-4"
       sodipodi:type="inkscape:persp3d"
       inkscape:vp_x="0 : 290 : 1"
       inkscape:vp_y="0 : 1000 : 0"
       inkscape:vp_z="580 : 290 : 1" />
    <filter
       color-interpolation-filters="sRGB"
       inkscape:menu-tooltip="Blur as if the object flies vertically; adjust Standard Deviation to vary force"
       inkscape:menu="Blurs"
       inkscape:label="Motion blur, vertical"
       id="filter3853-3">
      <feGaussianBlur
         result="fbSourceGraphic"
         stdDeviation="5 0.01"
         in="SourceGraphic"
         id="feGaussianBlur3855-2" />
      <feColorMatrix
         id="feColorMatrix3857-2"
         values="0 0 0 -1 0 0 0 0 -1 0 0 0 0 -1 0 0 0 0 1 0"
         in="fbSourceGraphic"
         result="fbSourceGraphicAlpha" />
      <feGaussianBlur
         stdDeviation="0.01 5"
         in="fbSourceGraphic"
         id="feGaussianBlur3859-5" />
    </filter>
    <inkscape:perspective
       inkscape:persp3d-origin="290 : 193.33333 : 1"
       id="perspective3653-9-8"
       sodipodi:type="inkscape:persp3d"
       inkscape:vp_x="0 : 290 : 1"
       inkscape:vp_y="0 : 1000 : 0"
       inkscape:vp_z="580 : 290 : 1" />
    <inkscape:perspective
       inkscape:persp3d-origin="290 : 193.33333 : 1"
       id="perspective3653-5-5-7"
       sodipodi:type="inkscape:persp3d"
       inkscape:vp_x="0 : 290 : 1"
       inkscape:vp_y="0 : 1000 : 0"
       inkscape:vp_z="580 : 290 : 1" />
    <inkscape:perspective
       inkscape:persp3d-origin="290 : 193.33333 : 1"
       id="perspective3653-54"
       sodipodi:type="inkscape:persp3d"
       inkscape:vp_x="0 : 290 : 1"
       inkscape:vp_y="0 : 1000 : 0"
       inkscape:vp_z="580 : 290 : 1" />
    <inkscape:perspective
       inkscape:persp3d-origin="290 : 193.33333 : 1"
       id="perspective3653-5-0"
       sodipodi:type="inkscape:persp3d"
       inkscape:vp_x="0 : 290 : 1"
       inkscape:vp_y="0 : 1000 : 0"
       inkscape:vp_z="580 : 290 : 1" />
    <filter
       color-interpolation-filters="sRGB"
       inkscape:menu-tooltip="Blur as if the object flies vertically; adjust Standard Deviation to vary force"
       inkscape:menu="Blurs"
       inkscape:label="Motion blur, vertical"
       id="filter3853-5">
      <feGaussianBlur
         result="fbSourceGraphic"
         stdDeviation="5 0.01"
         in="SourceGraphic"
         id="feGaussianBlur3855-0" />
      <feColorMatrix
         id="feColorMatrix3857-29"
         values="0 0 0 -1 0 0 0 0 -1 0 0 0 0 -1 0 0 0 0 1 0"
         in="fbSourceGraphic"
         result="fbSourceGraphicAlpha" />
      <feGaussianBlur
         stdDeviation="0.01 5"
         in="fbSourceGraphic"
         id="feGaussianBlur3859-08" />
    </filter>
    <inkscape:perspective
       inkscape:persp3d-origin="290 : 193.33333 : 1"
       id="perspective3653-9-9"
       sodipodi:type="inkscape:persp3d"
       inkscape:vp_x="0 : 290 : 1"
       inkscape:vp_y="0 : 1000 : 0"
       inkscape:vp_z="580 : 290 : 1" />
    <inkscape:perspective
       inkscape:persp3d-origin="290 : 193.33333 : 1"
       id="perspective3653-5-5-4"
       sodipodi:type="inkscape:persp3d"
       inkscape:vp_x="0 : 290 : 1"
       inkscape:vp_y="0 : 1000 : 0"
       inkscape:vp_z="580 : 290 : 1" />
    <inkscape:perspective
       inkscape:persp3d-origin="290 : 193.33333 : 1"
       id="perspective3653-4"
       sodipodi:type="inkscape:persp3d"
       inkscape:vp_x="0 : 290 : 1"
       inkscape:vp_y="0 : 1000 : 0"
       inkscape:vp_z="580 : 290 : 1" />
    <inkscape:perspective
       inkscape:persp3d-origin="290 : 193.33333 : 1"
       id="perspective3653-5-6"
       sodipodi:type="inkscape:persp3d"
       inkscape:vp_x="0 : 290 : 1"
       inkscape:vp_y="0 : 1000 : 0"
       inkscape:vp_z="580 : 290 : 1" />
    <filter
       color-interpolation-filters="sRGB"
       inkscape:menu-tooltip="Blur as if the object flies vertically; adjust Standard Deviation to vary force"
       inkscape:menu="Blurs"
       inkscape:label="Motion blur, vertical"
       id="filter3853-9">
      <feGaussianBlur
         result="fbSourceGraphic"
         stdDeviation="5 0.01"
         in="SourceGraphic"
         id="feGaussianBlur3855-20" />
      <feColorMatrix
         id="feColorMatrix3857-8"
         values="0 0 0 -1 0 0 0 0 -1 0 0 0 0 -1 0 0 0 0 1 0"
         in="fbSourceGraphic"
         result="fbSourceGraphicAlpha" />
      <feGaussianBlur
         stdDeviation="0.01 5"
         in="fbSourceGraphic"
         id="feGaussianBlur3859-4" />
    </filter>
    <inkscape:perspective
       inkscape:persp3d-origin="290 : 193.33333 : 1"
       id="perspective3653-9-41"
       sodipodi:type="inkscape:persp3d"
       inkscape:vp_x="0 : 290 : 1"
       inkscape:vp_y="0 : 1000 : 0"
       inkscape:vp_z="580 : 290 : 1" />
    <inkscape:perspective
       inkscape:persp3d-origin="290 : 193.33333 : 1"
       id="perspective3653-5-5-8"
       sodipodi:type="inkscape:persp3d"
       inkscape:vp_x="0 : 290 : 1"
       inkscape:vp_y="0 : 1000 : 0"
       inkscape:vp_z="580 : 290 : 1" />
    <inkscape:perspective
       inkscape:persp3d-origin="290 : 193.33333 : 1"
       id="perspective3653-91"
       sodipodi:type="inkscape:persp3d"
       inkscape:vp_x="0 : 290 : 1"
       inkscape:vp_y="0 : 1000 : 0"
       inkscape:vp_z="580 : 290 : 1" />
    <inkscape:perspective
       inkscape:persp3d-origin="290 : 193.33333 : 1"
       id="perspective3653-5-05"
       sodipodi:type="inkscape:persp3d"
       inkscape:vp_x="0 : 290 : 1"
       inkscape:vp_y="0 : 1000 : 0"
       inkscape:vp_z="580 : 290 : 1" />
    <filter
       color-interpolation-filters="sRGB"
       inkscape:menu-tooltip="Blur as if the object flies vertically; adjust Standard Deviation to vary force"
       inkscape:menu="Blurs"
       inkscape:label="Motion blur, vertical"
       id="filter3853-53">
      <feGaussianBlur
         result="fbSourceGraphic"
         stdDeviation="5 0.01"
         in="SourceGraphic"
         id="feGaussianBlur3855-8" />
      <feColorMatrix
         id="feColorMatrix3857-6"
         values="0 0 0 -1 0 0 0 0 -1 0 0 0 0 -1 0 0 0 0 1 0"
         in="fbSourceGraphic"
         result="fbSourceGraphicAlpha" />
      <feGaussianBlur
         stdDeviation="0.01 5"
         in="fbSourceGraphic"
         id="feGaussianBlur3859-3" />
    </filter>
    <inkscape:perspective
       inkscape:persp3d-origin="290 : 193.33333 : 1"
       id="perspective3653-9-2"
       sodipodi:type="inkscape:persp3d"
       inkscape:vp_x="0 : 290 : 1"
       inkscape:vp_y="0 : 1000 : 0"
       inkscape:vp_z="580 : 290 : 1" />
    <inkscape:perspective
       inkscape:persp3d-origin="290 : 193.33333 : 1"
       id="perspective3653-5-5-3"
       sodipodi:type="inkscape:persp3d"
       inkscape:vp_x="0 : 290 : 1"
       inkscape:vp_y="0 : 1000 : 0"
       inkscape:vp_z="580 : 290 : 1" />
    <inkscape:perspective
       inkscape:persp3d-origin="290 : 193.33333 : 1"
       id="perspective3653-1"
       sodipodi:type="inkscape:persp3d"
       inkscape:vp_x="0 : 290 : 1"
       inkscape:vp_y="0 : 1000 : 0"
       inkscape:vp_z="580 : 290 : 1" />
    <inkscape:perspective
       inkscape:persp3d-origin="290 : 193.33333 : 1"
       id="perspective3653-5-7"
       sodipodi:type="inkscape:persp3d"
       inkscape:vp_x="0 : 290 : 1"
       inkscape:vp_y="0 : 1000 : 0"
       inkscape:vp_z="580 : 290 : 1" />
  </defs>
  <sodipodi:namedview
     id="base"
     pagecolor="#ffffff"
     bordercolor="#666666"
     borderopacity="1.0"
     inkscape:pageopacity="0.0"
     inkscape:pageshadow="2"
     inkscape:zoom="10.24"
     inkscape:cx="2.9983254"
     inkscape:cy="20.980234"
     inkscape:document-units="px"
     inkscape:current-layer="layer1"
     showgrid="false"
     inkscape:window-width="1920"
     inkscape:window-height="1017"
     inkscape:window-x="1912"
     inkscape:window-y="-8"
     inkscape:window-maximized="1" />
  <metadata
     id="metadata7">
    <rdf:RDF>
      <cc:Work
         rdf:about="">
        <dc:format>image/svg+xml</dc:format>
        <dc:type
           rdf:resource="http://purl.org/dc/dcmitype/StillImage" />
        <dc:title />
      </cc:Work>
    </rdf:RDF>
  </metadata>
  <g
     inkscape:label="Laag 1"
     inkscape:groupmode="layer"
     id="layer1"
     transform="translate(0,-1004.3622)">
    <rect
       ry="9.6995745"
       y="1005.8802"
       x="1.3561161"
       height="45.234459"
       width="44.999073"
       id="rect3435"
       style="fill:#ffffff;fill-opacity:1;stroke:#aa4400;stroke-width:0.88619024;stroke-opacity:1" />
    <rect
       style="fill:#aa4400;fill-opacity:1;stroke:#aa4400;stroke-width:0.73167545;stroke-opacity:1"
       id="rect3803"
       width="41.709263"
       height="41.236824"
       x="2.9865186"
       y="1007.6642"
       ry="8.8423662" />
    <g
       transform="matrix(0.08784922,0,0,0.0842626,5.3940796,1010.7024)"
       id="g866">
      <path
         style="fill:#ffffff;fill-opacity:1"
         inkscape:connector-curvature="0"
         d="m 377.728,227.722 h -22.089 c 0.228,-1.265 0.354,-2.565 0.354,-3.895 v -16.669 c 7.443,-6.523 12.648,-15.604 14.116,-25.951 l 5.583,-39.364 c 1.69,-11.918 -2.382,-24.115 -10.894,-32.626 l -12.53,-12.53 11.742,-1.418 c 9.785,-1.182 17.163,-9.506 17.163,-19.362 0,-10.754 -8.749,-19.502 -19.502,-19.502 h -11.889 c -6.397,0 -12.067,3.11 -15.626,7.883 L 319.676,32.591 C 313.171,18.343 300.173,7.747 284.905,4.247 c -24.706,-5.662 -122.157,-5.662 -146.864,0 -15.267,3.5 -28.265,14.096 -34.769,28.342 L 88.792,64.286 C 85.233,59.514 79.563,56.405 73.167,56.405 h -11.89 c -10.753,0 -19.502,8.749 -19.502,19.502 0,9.856 7.379,18.179 17.164,19.362 l 11.741,1.418 -12.531,12.53 c -8.511,8.511 -12.583,20.708 -10.894,32.626 l 5.584,39.364 c 1.467,10.346 6.671,19.426 14.112,25.948 v 16.672 c 0,1.33 0.126,2.63 0.354,3.895 H 45.221 c -4.971,0 -9,4.029 -9,9 v 35.028 c 0,4.971 4.029,9 9,9 h 124.255 v 25.68 c 0,4.971 4.029,9 9,9 h 9.836 v 98.518 c 0,4.971 4.029,9 9,9 4.971,0 9,-4.029 9,-9 V 315.43 h 10.33 v 98.518 c 0,4.971 4.029,9 9,9 4.971,0 9,-4.029 9,-9 V 315.43 h 9.831 c 4.971,0 9,-4.029 9,-9 v -25.68 h 124.255 c 4.971,0 9,-4.029 9,-9 v -35.028 c 0,-4.971 -4.03,-9 -9,-9 z m -39.736,-3.895 c 0,2.147 -1.747,3.895 -3.895,3.895 h -31.973 c -2.147,0 -3.895,-1.747 -3.895,-3.895 v -6.074 h 29.782 c 3.423,0 6.765,-0.422 9.979,-1.208 v 7.282 z M 71.743,183.15 h 279.464 c -3.34,9.72 -12.62,16.603 -23.194,16.603 H 94.936 c -10.575,0 -19.854,-6.882 -23.193,-16.603 z M 90.448,102.376 H 332.5 l 19.57,19.57 c 2.672,2.672 4.514,6.028 5.398,9.631 H 65.481 c 0.884,-3.604 2.726,-6.96 5.398,-9.631 z m 218.119,62.774 -4.865,-15.574 h 52.712 l -2.209,15.574 z m -23.724,-15.573 4.865,15.574 H 133.24 l 4.866,-15.574 z m -165.596,0 -4.866,15.574 H 68.744 l -2.209,-15.574 z m 23.476,68.176 H 280.23 v 6.074 c 0,1.33 0.126,2.63 0.354,3.895 H 142.369 c 0.228,-1.265 0.354,-2.565 0.354,-3.895 z M 348.28,75.907 c 0,-0.828 0.674,-1.502 1.502,-1.502 h 11.889 c 0.828,0 1.502,0.674 1.502,1.502 0,0.759 -0.568,1.4 -1.321,1.491 l -13.571,1.639 v -3.13 z M 119.647,40.066 c 4.193,-9.187 12.574,-16.019 22.416,-18.275 22.057,-5.055 116.767,-5.054 138.821,0 9.843,2.257 18.224,9.088 22.418,18.277 l 20.244,44.307 H 99.405 Z M 59.775,75.907 c 0,-0.828 0.674,-1.502 1.502,-1.502 h 11.889 c 0.829,0 1.503,0.674 1.503,1.502 v 3.131 L 61.098,77.399 c -0.754,-0.091 -1.323,-0.732 -1.323,-1.492 z m 25.178,147.92 v -7.283 c 3.215,0.786 6.559,1.209 9.982,1.209 h 29.787 v 6.074 c 0,2.147 -1.747,3.895 -3.895,3.895 H 88.849 c -2.149,0 -3.896,-1.747 -3.896,-3.895 z m 150.52,73.603 h -47.997 v -16.68 h 47.997 z M 368.728,262.75 H 54.221 v -17.028 h 314.507 z"
         id="path860" />
      <path
         style="fill:#ffffff;fill-opacity:1"
         inkscape:connector-curvature="0"
         d="m 337.523,293.605 c -1.607,-2.785 -4.578,-4.5 -7.794,-4.5 -3.215,0 -6.187,1.715 -7.794,4.5 l -34.281,59.375 c -1.608,2.785 -1.608,6.215 0,9 1.607,2.785 4.578,4.5 7.794,4.5 h 8.782 v 47.468 c 0,4.971 4.029,9 9,9 4.971,0 9,-4.029 9,-9 V 357.48 c 0,-4.971 -4.029,-9 -9,-9 h -2.193 l 18.692,-32.375 18.691,32.375 h -2.192 c -4.971,0 -9,4.029 -9,9 v 56.468 c 0,4.971 4.029,9 9,9 4.971,0 9,-4.029 9,-9 V 366.48 h 8.781 c 3.216,0 6.187,-1.715 7.794,-4.5 1.608,-2.785 1.608,-6.215 0,-9 z"
         id="path862" />
      <path
         style="fill:#ffffff;fill-opacity:1"
         inkscape:connector-curvature="0"
         d="m 102.035,293.605 c -1.607,-2.785 -4.578,-4.5 -7.794,-4.5 -3.216,0 -6.187,1.715 -7.794,4.5 l -34.28,59.375 c -1.608,2.785 -1.608,6.215 0,9 1.607,2.785 4.578,4.5 7.794,4.5 h 8.781 v 47.468 c 0,4.971 4.029,9 9,9 4.971,0 9,-4.029 9,-9 V 357.48 c 0,-4.971 -4.029,-9 -9,-9 H 75.55 l 18.691,-32.375 18.691,32.375 h -2.192 c -4.971,0 -9,4.029 -9,9 v 56.468 c 0,4.971 4.029,9 9,9 4.971,0 9,-4.029 9,-9 V 366.48 h 8.781 c 3.216,0 6.187,-1.715 7.794,-4.5 1.608,-2.785 1.608,-6.215 0,-9 z"
         id="path864" />
    </g>
    <g
       transform="matrix(0.09063537,0,0,0.0842626,4.7072253,1010.7024)"
       id="g868" />
    <g
       transform="matrix(0.09063537,0,0,0.0842626,4.7072253,1010.7024)"
       id="g870" />
    <g
       transform="matrix(0.09063537,0,0,0.0842626,4.7072253,1010.7024)"
       id="g872" />
    <g
       transform="matrix(0.09063537,0,0,0.0842626,4.7072253,1010.7024)"
       id="g874" />
    <g
       transform="matrix(0.09063537,0,0,0.0842626,4.7072253,1010.7024)"
       id="g876" />
    <g
       transform="matrix(0.09063537,0,0,0.0842626,4.7072253,1010.7024)"
       id="g878" />
    <g
       transform="matrix(0.09063537,0,0,0.0842626,4.7072253,1010.7024)"
       id="g880" />
    <g
       transform="matrix(0.09063537,0,0,0.0842626,4.7072253,1010.7024)"
       id="g882" />
    <g
       transform="matrix(0.09063537,0,0,0.0842626,4.7072253,1010.7024)"
       id="g884" />
    <g
       transform="matrix(0.09063537,0,0,0.0842626,4.7072253,1010.7024)"
       id="g886" />
    <g
       transform="matrix(0.09063537,0,0,0.0842626,4.7072253,1010.7024)"
       id="g888" />
    <g
       transform="matrix(0.09063537,0,0,0.0842626,4.7072253,1010.7024)"
       id="g890" />
    <g
       transform="matrix(0.09063537,0,0,0.0842626,4.7072253,1010.7024)"
       id="g892" />
    <g
       transform="matrix(0.09063537,0,0,0.0842626,4.7072253,1010.7024)"
       id="g894" />
    <g
       transform="matrix(0.09063537,0,0,0.0842626,4.7072253,1010.7024)"
       id="g896" />
  </g>
</svg>
