<?xml version="1.0" encoding="UTF-8" standalone="no"?>
<!-- Created with Inkscape (http://www.inkscape.org/) -->

<svg
   xmlns:dc="http://purl.org/dc/elements/1.1/"
   xmlns:cc="http://creativecommons.org/ns#"
   xmlns:rdf="http://www.w3.org/1999/02/22-rdf-syntax-ns#"
   xmlns:svg="http://www.w3.org/2000/svg"
   xmlns="http://www.w3.org/2000/svg"
   xmlns:sodipodi="http://sodipodi.sourceforge.net/DTD/sodipodi-0.dtd"
   xmlns:inkscape="http://www.inkscape.org/namespaces/inkscape"
   width="48"
   height="48"
   viewBox="0 0 48 48"
   id="svg2"
   version="1.1"
   inkscape:version="0.92.2 (5c3e80d, 2017-08-06)"
   sodipodi:docname="47.9_DETAILHANDEL_NIET_WINKEL.svg">
  <defs
     id="defs4">
    <filter
       color-interpolation-filters="sRGB"
       inkscape:menu-tooltip="Blur as if the object flies vertically; adjust Standard Deviation to vary force"
       inkscape:menu="Blurs"
       inkscape:label="Motion blur, vertical"
       id="filter3853">
      <feGaussianBlur
         result="fbSourceGraphic"
         stdDeviation="5 0.01"
         in="SourceGraphic"
         id="feGaussianBlur3855" />
      <feColorMatrix
         id="feColorMatrix3857"
         values="0 0 0 -1 0 0 0 0 -1 0 0 0 0 -1 0 0 0 0 1 0"
         in="fbSourceGraphic"
         result="fbSourceGraphicAlpha" />
      <feGaussianBlur
         stdDeviation="0.01 5"
         in="fbSourceGraphic"
         id="feGaussianBlur3859" />
    </filter>
    <inkscape:perspective
       inkscape:persp3d-origin="290 : 193.33333 : 1"
       id="perspective3653-9"
       sodipodi:type="inkscape:persp3d"
       inkscape:vp_x="0 : 290 : 1"
       inkscape:vp_y="0 : 1000 : 0"
       inkscape:vp_z="580 : 290 : 1" />
    <inkscape:perspective
       inkscape:persp3d-origin="290 : 193.33333 : 1"
       id="perspective3653-5-5"
       sodipodi:type="inkscape:persp3d"
       inkscape:vp_x="0 : 290 : 1"
       inkscape:vp_y="0 : 1000 : 0"
       inkscape:vp_z="580 : 290 : 1" />
    <inkscape:perspective
       inkscape:persp3d-origin="290 : 193.33333 : 1"
       id="perspective3653"
       sodipodi:type="inkscape:persp3d"
       inkscape:vp_x="0 : 290 : 1"
       inkscape:vp_y="0 : 1000 : 0"
       inkscape:vp_z="580 : 290 : 1" />
    <inkscape:perspective
       inkscape:persp3d-origin="290 : 193.33333 : 1"
       id="perspective3653-5"
       sodipodi:type="inkscape:persp3d"
       inkscape:vp_x="0 : 290 : 1"
       inkscape:vp_y="0 : 1000 : 0"
       inkscape:vp_z="580 : 290 : 1" />
    <filter
       color-interpolation-filters="sRGB"
       inkscape:menu-tooltip="Blur as if the object flies vertically; adjust Standard Deviation to vary force"
       inkscape:menu="Blurs"
       inkscape:label="Motion blur, vertical"
       id="filter3853-0">
      <feGaussianBlur
         result="fbSourceGraphic"
         stdDeviation="5 0.01"
         in="SourceGraphic"
         id="feGaussianBlur3855-21" />
      <feColorMatrix
         id="feColorMatrix3857-0"
         values="0 0 0 -1 0 0 0 0 -1 0 0 0 0 -1 0 0 0 0 1 0"
         in="fbSourceGraphic"
         result="fbSourceGraphicAlpha" />
      <feGaussianBlur
         stdDeviation="0.01 5"
         in="fbSourceGraphic"
         id="feGaussianBlur3859-0" />
    </filter>
    <inkscape:perspective
       inkscape:persp3d-origin="290 : 193.33333 : 1"
       id="perspective3653-9-4"
       sodipodi:type="inkscape:persp3d"
       inkscape:vp_x="0 : 290 : 1"
       inkscape:vp_y="0 : 1000 : 0"
       inkscape:vp_z="580 : 290 : 1" />
    <inkscape:perspective
       inkscape:persp3d-origin="290 : 193.33333 : 1"
       id="perspective3653-5-5-2"
       sodipodi:type="inkscape:persp3d"
       inkscape:vp_x="0 : 290 : 1"
       inkscape:vp_y="0 : 1000 : 0"
       inkscape:vp_z="580 : 290 : 1" />
    <inkscape:perspective
       inkscape:persp3d-origin="290 : 193.33333 : 1"
       id="perspective3653-2"
       sodipodi:type="inkscape:persp3d"
       inkscape:vp_x="0 : 290 : 1"
       inkscape:vp_y="0 : 1000 : 0"
       inkscape:vp_z="580 : 290 : 1" />
    <inkscape:perspective
       inkscape:persp3d-origin="290 : 193.33333 : 1"
       id="perspective3653-5-4"
       sodipodi:type="inkscape:persp3d"
       inkscape:vp_x="0 : 290 : 1"
       inkscape:vp_y="0 : 1000 : 0"
       inkscape:vp_z="580 : 290 : 1" />
    <filter
       color-interpolation-filters="sRGB"
       inkscape:menu-tooltip="Blur as if the object flies vertically; adjust Standard Deviation to vary force"
       inkscape:menu="Blurs"
       inkscape:label="Motion blur, vertical"
       id="filter3853-3">
      <feGaussianBlur
         result="fbSourceGraphic"
         stdDeviation="5 0.01"
         in="SourceGraphic"
         id="feGaussianBlur3855-2" />
      <feColorMatrix
         id="feColorMatrix3857-2"
         values="0 0 0 -1 0 0 0 0 -1 0 0 0 0 -1 0 0 0 0 1 0"
         in="fbSourceGraphic"
         result="fbSourceGraphicAlpha" />
      <feGaussianBlur
         stdDeviation="0.01 5"
         in="fbSourceGraphic"
         id="feGaussianBlur3859-5" />
    </filter>
    <inkscape:perspective
       inkscape:persp3d-origin="290 : 193.33333 : 1"
       id="perspective3653-9-8"
       sodipodi:type="inkscape:persp3d"
       inkscape:vp_x="0 : 290 : 1"
       inkscape:vp_y="0 : 1000 : 0"
       inkscape:vp_z="580 : 290 : 1" />
    <inkscape:perspective
       inkscape:persp3d-origin="290 : 193.33333 : 1"
       id="perspective3653-5-5-7"
       sodipodi:type="inkscape:persp3d"
       inkscape:vp_x="0 : 290 : 1"
       inkscape:vp_y="0 : 1000 : 0"
       inkscape:vp_z="580 : 290 : 1" />
    <inkscape:perspective
       inkscape:persp3d-origin="290 : 193.33333 : 1"
       id="perspective3653-54"
       sodipodi:type="inkscape:persp3d"
       inkscape:vp_x="0 : 290 : 1"
       inkscape:vp_y="0 : 1000 : 0"
       inkscape:vp_z="580 : 290 : 1" />
    <inkscape:perspective
       inkscape:persp3d-origin="290 : 193.33333 : 1"
       id="perspective3653-5-0"
       sodipodi:type="inkscape:persp3d"
       inkscape:vp_x="0 : 290 : 1"
       inkscape:vp_y="0 : 1000 : 0"
       inkscape:vp_z="580 : 290 : 1" />
    <filter
       color-interpolation-filters="sRGB"
       inkscape:menu-tooltip="Blur as if the object flies vertically; adjust Standard Deviation to vary force"
       inkscape:menu="Blurs"
       inkscape:label="Motion blur, vertical"
       id="filter3853-5">
      <feGaussianBlur
         result="fbSourceGraphic"
         stdDeviation="5 0.01"
         in="SourceGraphic"
         id="feGaussianBlur3855-0" />
      <feColorMatrix
         id="feColorMatrix3857-29"
         values="0 0 0 -1 0 0 0 0 -1 0 0 0 0 -1 0 0 0 0 1 0"
         in="fbSourceGraphic"
         result="fbSourceGraphicAlpha" />
      <feGaussianBlur
         stdDeviation="0.01 5"
         in="fbSourceGraphic"
         id="feGaussianBlur3859-08" />
    </filter>
    <inkscape:perspective
       inkscape:persp3d-origin="290 : 193.33333 : 1"
       id="perspective3653-9-9"
       sodipodi:type="inkscape:persp3d"
       inkscape:vp_x="0 : 290 : 1"
       inkscape:vp_y="0 : 1000 : 0"
       inkscape:vp_z="580 : 290 : 1" />
    <inkscape:perspective
       inkscape:persp3d-origin="290 : 193.33333 : 1"
       id="perspective3653-5-5-4"
       sodipodi:type="inkscape:persp3d"
       inkscape:vp_x="0 : 290 : 1"
       inkscape:vp_y="0 : 1000 : 0"
       inkscape:vp_z="580 : 290 : 1" />
    <inkscape:perspective
       inkscape:persp3d-origin="290 : 193.33333 : 1"
       id="perspective3653-4"
       sodipodi:type="inkscape:persp3d"
       inkscape:vp_x="0 : 290 : 1"
       inkscape:vp_y="0 : 1000 : 0"
       inkscape:vp_z="580 : 290 : 1" />
    <inkscape:perspective
       inkscape:persp3d-origin="290 : 193.33333 : 1"
       id="perspective3653-5-6"
       sodipodi:type="inkscape:persp3d"
       inkscape:vp_x="0 : 290 : 1"
       inkscape:vp_y="0 : 1000 : 0"
       inkscape:vp_z="580 : 290 : 1" />
    <filter
       color-interpolation-filters="sRGB"
       inkscape:menu-tooltip="Blur as if the object flies vertically; adjust Standard Deviation to vary force"
       inkscape:menu="Blurs"
       inkscape:label="Motion blur, vertical"
       id="filter3853-9">
      <feGaussianBlur
         result="fbSourceGraphic"
         stdDeviation="5 0.01"
         in="SourceGraphic"
         id="feGaussianBlur3855-20" />
      <feColorMatrix
         id="feColorMatrix3857-8"
         values="0 0 0 -1 0 0 0 0 -1 0 0 0 0 -1 0 0 0 0 1 0"
         in="fbSourceGraphic"
         result="fbSourceGraphicAlpha" />
      <feGaussianBlur
         stdDeviation="0.01 5"
         in="fbSourceGraphic"
         id="feGaussianBlur3859-4" />
    </filter>
    <inkscape:perspective
       inkscape:persp3d-origin="290 : 193.33333 : 1"
       id="perspective3653-9-41"
       sodipodi:type="inkscape:persp3d"
       inkscape:vp_x="0 : 290 : 1"
       inkscape:vp_y="0 : 1000 : 0"
       inkscape:vp_z="580 : 290 : 1" />
    <inkscape:perspective
       inkscape:persp3d-origin="290 : 193.33333 : 1"
       id="perspective3653-5-5-8"
       sodipodi:type="inkscape:persp3d"
       inkscape:vp_x="0 : 290 : 1"
       inkscape:vp_y="0 : 1000 : 0"
       inkscape:vp_z="580 : 290 : 1" />
    <inkscape:perspective
       inkscape:persp3d-origin="290 : 193.33333 : 1"
       id="perspective3653-91"
       sodipodi:type="inkscape:persp3d"
       inkscape:vp_x="0 : 290 : 1"
       inkscape:vp_y="0 : 1000 : 0"
       inkscape:vp_z="580 : 290 : 1" />
    <inkscape:perspective
       inkscape:persp3d-origin="290 : 193.33333 : 1"
       id="perspective3653-5-05"
       sodipodi:type="inkscape:persp3d"
       inkscape:vp_x="0 : 290 : 1"
       inkscape:vp_y="0 : 1000 : 0"
       inkscape:vp_z="580 : 290 : 1" />
    <filter
       color-interpolation-filters="sRGB"
       inkscape:menu-tooltip="Blur as if the object flies vertically; adjust Standard Deviation to vary force"
       inkscape:menu="Blurs"
       inkscape:label="Motion blur, vertical"
       id="filter3853-53">
      <feGaussianBlur
         result="fbSourceGraphic"
         stdDeviation="5 0.01"
         in="SourceGraphic"
         id="feGaussianBlur3855-8" />
      <feColorMatrix
         id="feColorMatrix3857-6"
         values="0 0 0 -1 0 0 0 0 -1 0 0 0 0 -1 0 0 0 0 1 0"
         in="fbSourceGraphic"
         result="fbSourceGraphicAlpha" />
      <feGaussianBlur
         stdDeviation="0.01 5"
         in="fbSourceGraphic"
         id="feGaussianBlur3859-3" />
    </filter>
    <inkscape:perspective
       inkscape:persp3d-origin="290 : 193.33333 : 1"
       id="perspective3653-9-2"
       sodipodi:type="inkscape:persp3d"
       inkscape:vp_x="0 : 290 : 1"
       inkscape:vp_y="0 : 1000 : 0"
       inkscape:vp_z="580 : 290 : 1" />
    <inkscape:perspective
       inkscape:persp3d-origin="290 : 193.33333 : 1"
       id="perspective3653-5-5-3"
       sodipodi:type="inkscape:persp3d"
       inkscape:vp_x="0 : 290 : 1"
       inkscape:vp_y="0 : 1000 : 0"
       inkscape:vp_z="580 : 290 : 1" />
    <inkscape:perspective
       inkscape:persp3d-origin="290 : 193.33333 : 1"
       id="perspective3653-1"
       sodipodi:type="inkscape:persp3d"
       inkscape:vp_x="0 : 290 : 1"
       inkscape:vp_y="0 : 1000 : 0"
       inkscape:vp_z="580 : 290 : 1" />
    <inkscape:perspective
       inkscape:persp3d-origin="290 : 193.33333 : 1"
       id="perspective3653-5-7"
       sodipodi:type="inkscape:persp3d"
       inkscape:vp_x="0 : 290 : 1"
       inkscape:vp_y="0 : 1000 : 0"
       inkscape:vp_z="580 : 290 : 1" />
  </defs>
  <sodipodi:namedview
     id="base"
     pagecolor="#ffffff"
     bordercolor="#666666"
     borderopacity="1.0"
     inkscape:pageopacity="0.0"
     inkscape:pageshadow="2"
     inkscape:zoom="14.481547"
     inkscape:cx="7.590839"
     inkscape:cy="25.864201"
     inkscape:document-units="px"
     inkscape:current-layer="layer1"
     showgrid="false"
     inkscape:window-width="1920"
     inkscape:window-height="1017"
     inkscape:window-x="1912"
     inkscape:window-y="-8"
     inkscape:window-maximized="1" />
  <metadata
     id="metadata7">
    <rdf:RDF>
      <cc:Work
         rdf:about="">
        <dc:format>image/svg+xml</dc:format>
        <dc:type
           rdf:resource="http://purl.org/dc/dcmitype/StillImage" />
        <dc:title />
      </cc:Work>
    </rdf:RDF>
  </metadata>
  <g
     inkscape:label="Laag 1"
     inkscape:groupmode="layer"
     id="layer1"
     transform="translate(0,-1004.3622)">
    <rect
       ry="9.6995745"
       y="1005.8802"
       x="1.3561161"
       height="45.234459"
       width="44.999073"
       id="rect3435"
       style="fill:#ffffff;fill-opacity:1;stroke:#0000ff;stroke-width:0.88619024;stroke-opacity:1" />
    <rect
       style="fill:#0000ff;fill-opacity:1;stroke:#0000ff;stroke-width:0.73167545;stroke-opacity:1"
       id="rect3803"
       width="41.709263"
       height="41.236824"
       x="2.9865186"
       y="1007.6642"
       ry="8.8423662" />
    <g
       transform="matrix(0.08784922,0,0,0.0842626,5.3940796,1010.7024)"
       id="g866">
      <g
         transform="matrix(12.979711,0,0,12.628214,-0.24920763,13.450713)"
         id="g1010" />
      <g
         transform="matrix(12.979711,0,0,12.628214,-0.24920763,13.450713)"
         id="g1012" />
      <g
         transform="matrix(12.979711,0,0,12.628214,-0.24920763,13.450713)"
         id="g1014" />
      <g
         transform="matrix(12.979711,0,0,12.628214,-0.24920763,13.450713)"
         id="g1016" />
      <g
         transform="matrix(12.979711,0,0,12.628214,-0.24920763,13.450713)"
         id="g1018" />
      <g
         transform="matrix(12.979711,0,0,12.628214,-0.24920763,13.450713)"
         id="g1020" />
      <g
         transform="matrix(12.979711,0,0,12.628214,-0.24920763,13.450713)"
         id="g1022" />
      <g
         transform="matrix(12.979711,0,0,12.628214,-0.24920763,13.450713)"
         id="g1024" />
      <g
         transform="matrix(12.979711,0,0,12.628214,-0.24920763,13.450713)"
         id="g1026" />
      <g
         transform="matrix(12.979711,0,0,12.628214,-0.24920763,13.450713)"
         id="g1028" />
      <g
         transform="matrix(12.979711,0,0,12.628214,-0.24920763,13.450713)"
         id="g1030" />
      <g
         transform="matrix(12.979711,0,0,12.628214,-0.24920763,13.450713)"
         id="g1032" />
      <g
         transform="matrix(12.979711,0,0,12.628214,-0.24920763,13.450713)"
         id="g1034" />
      <g
         transform="matrix(12.979711,0,0,12.628214,-0.24920763,13.450713)"
         id="g1036" />
      <g
         transform="matrix(12.979711,0,0,12.628214,-0.24920763,13.450713)"
         id="g1038" />
      <g
         transform="matrix(1.0436439,0,0,1.1322711,32.802565,-8.6731193)"
         id="g1666" />
      <g
         transform="matrix(1.0436439,0,0,1.1322711,32.802565,-8.6731193)"
         id="g1668" />
      <g
         transform="matrix(1.0436439,0,0,1.1322711,32.802565,-8.6731193)"
         id="g1670" />
      <g
         transform="matrix(1.0436439,0,0,1.1322711,32.802565,-8.6731193)"
         id="g1672" />
      <g
         transform="matrix(1.0436439,0,0,1.1322711,32.802565,-8.6731193)"
         id="g1674" />
      <g
         transform="matrix(1.0436439,0,0,1.1322711,32.802565,-8.6731193)"
         id="g1676" />
      <g
         transform="matrix(1.0436439,0,0,1.1322711,32.802565,-8.6731193)"
         id="g1678" />
      <g
         transform="matrix(1.0436439,0,0,1.1322711,32.802565,-8.6731193)"
         id="g1680" />
      <g
         transform="matrix(1.0436439,0,0,1.1322711,32.802565,-8.6731193)"
         id="g1682" />
      <g
         transform="matrix(1.0436439,0,0,1.1322711,32.802565,-8.6731193)"
         id="g1684" />
      <g
         transform="matrix(1.0436439,0,0,1.1322711,32.802565,-8.6731193)"
         id="g1686" />
      <g
         transform="matrix(1.0436439,0,0,1.1322711,32.802565,-8.6731193)"
         id="g1688" />
      <g
         transform="matrix(1.0436439,0,0,1.1322711,32.802565,-8.6731193)"
         id="g1690" />
      <g
         transform="matrix(1.0436439,0,0,1.1322711,32.802565,-8.6731193)"
         id="g1692" />
      <g
         transform="matrix(1.0436439,0,0,1.1322711,32.802565,-8.6731193)"
         id="g1694" />
      <g
         transform="matrix(0.40068237,0,0,0.63581632,-505.34555,537.92047)"
         id="g3577" />
      <g
         transform="matrix(0.40068237,0,0,0.63581632,-505.34555,537.92047)"
         id="g3579" />
      <g
         transform="matrix(0.40068237,0,0,0.63581632,-505.34555,537.92047)"
         id="g3581" />
      <g
         transform="matrix(0.40068237,0,0,0.63581632,-505.34555,537.92047)"
         id="g3583" />
      <g
         transform="matrix(0.40068237,0,0,0.63581632,-505.34555,537.92047)"
         id="g3585" />
      <g
         transform="matrix(0.40068237,0,0,0.63581632,-505.34555,537.92047)"
         id="g3587" />
      <g
         transform="matrix(0.40068237,0,0,0.63581632,-505.34555,537.92047)"
         id="g3589" />
      <g
         transform="matrix(0.40068237,0,0,0.63581632,-505.34555,537.92047)"
         id="g3591" />
      <g
         transform="matrix(0.40068237,0,0,0.63581632,-505.34555,537.92047)"
         id="g3593" />
      <g
         transform="matrix(0.40068237,0,0,0.63581632,-505.34555,537.92047)"
         id="g3595" />
      <g
         transform="matrix(0.40068237,0,0,0.63581632,-505.34555,537.92047)"
         id="g3597" />
      <g
         transform="matrix(0.40068237,0,0,0.63581632,-505.34555,537.92047)"
         id="g3599" />
      <g
         transform="matrix(0.40068237,0,0,0.63581632,-505.34555,537.92047)"
         id="g3601" />
      <g
         transform="matrix(0.40068237,0,0,0.63581632,-505.34555,537.92047)"
         id="g3603" />
      <g
         transform="matrix(0.40068237,0,0,0.63581632,-505.34555,537.92047)"
         id="g3605" />
      <g
         transform="matrix(0.5198136,0,0,0.47140657,234.5499,4.4644522)"
         id="g2948" />
      <g
         transform="matrix(0.5198136,0,0,0.47140657,234.5499,4.4644522)"
         id="g2950" />
      <g
         transform="matrix(0.5198136,0,0,0.47140657,234.5499,4.4644522)"
         id="g2952" />
      <g
         transform="matrix(0.5198136,0,0,0.47140657,234.5499,4.4644522)"
         id="g2954" />
      <g
         transform="matrix(0.5198136,0,0,0.47140657,234.5499,4.4644522)"
         id="g2956" />
      <g
         transform="matrix(0.5198136,0,0,0.47140657,234.5499,4.4644522)"
         id="g2958" />
      <g
         transform="matrix(0.5198136,0,0,0.47140657,234.5499,4.4644522)"
         id="g2960" />
      <g
         transform="matrix(0.5198136,0,0,0.47140657,234.5499,4.4644522)"
         id="g2962" />
      <g
         transform="matrix(0.5198136,0,0,0.47140657,234.5499,4.4644522)"
         id="g2964" />
      <g
         transform="matrix(0.5198136,0,0,0.47140657,234.5499,4.4644522)"
         id="g2966" />
      <g
         transform="matrix(0.5198136,0,0,0.47140657,234.5499,4.4644522)"
         id="g2968" />
      <g
         transform="matrix(0.5198136,0,0,0.47140657,234.5499,4.4644522)"
         id="g2970" />
      <g
         transform="matrix(0.5198136,0,0,0.47140657,234.5499,4.4644522)"
         id="g2972" />
      <g
         transform="matrix(0.5198136,0,0,0.47140657,234.5499,4.4644522)"
         id="g2974" />
      <g
         transform="matrix(0.5198136,0,0,0.47140657,234.5499,4.4644522)"
         id="g2976" />
      <g
         transform="matrix(0.81114066,0,0,1.0010088,14.086366,-44.28797)"
         id="g4260"
         style="fill:#ffffff;fill-opacity:1">
        <g
           id="g4258"
           style="fill:#ffffff;fill-opacity:1">
          <path
             inkscape:connector-curvature="0"
             d="m 486.8,371.304 -21.8,-26.7 c -3.5,-4.3 -5.4,-9.7 -5.4,-15.3 v -25.2 -16.1 -46.6 0 -129.1 c 0,-23.6 -19.2,-42.8 -42.8,-42.8 H 256.7 v 0 H 72.9 c -23.6,0 -42.8,19.2 -42.8,42.8 v 175.7 9.4 31.5 c 0,5.6 -1.9,10.9 -5.4,15.2 l -22.1,27.1 c -1.7,2 -2.6,4.6 -2.6,7.2 v 12.4 c 0,16 13,29 29,29 h 431.3 c 16,0 29,-13 29,-29 v -12.4 c 0.1,-2.5 -0.8,-5.1 -2.5,-7.1 z m -195.6,6.3 c 0,8.1 -6.6,14.8 -14.8,14.8 h -63.2 c -8.1,0 -14.8,-6.6 -14.8,-14.8 v -3.2 h 92.7 v 3.2 z m 125.7,-73.4 v 27.5 H 72.7 v -32.4 -11.3 -175.8 l 0.1,-0.1 H 276 v 0 h 140.7 c 0.1,0 0.1,0.1 0.1,0.1 v 175.8 11.3 2.9 0 2 z"
             id="path4254"
             style="fill:#ffffff;fill-opacity:1" />
          <path
             inkscape:connector-curvature="0"
             d="M 305.6,168.704 H 197.8 c -3.1,0 -6,0.9 -8.6,2.4 l -5.5,-19.3 c -0.9,-3.1 -3.8,-5.3 -7,-5.3 v 0 h -8.4 -16 c -3.1,0 -5.5,2.5 -5.5,5.5 v 0.6 c 0,3.1 2.5,5.5 5.5,5.5 h 21 l 10.7,37.8 14.7,52.2 c -8.4,2.1 -14.6,9.7 -14.6,18.7 0,10.2 8,18.6 18,19.2 -0.8,2.4 -1.2,5 -1,7.8 0.7,9.2 8.2,16.6 17.5,17.3 11,0.8 20.2,-8 20.2,-18.8 0,-2.2 -0.4,-4.3 -1.1,-6.2 h 22 c -0.9,2.6 -1.3,5.4 -0.9,8.4 1,8.9 8.4,16 17.4,16.6 11,0.8 20.2,-7.9 20.2,-18.8 0,-10.5 -8.7,-18.9 -19.2,-18.9 h -73.7 c -3.6,0 -6.6,-2.8 -6.8,-6.4 -0.1,-3.8 2.9,-6.9 6.6,-6.9 h 11.1 59.9 16.9 c 7.5,0 14,-5.1 15.8,-12.4 l 14.6,-59 c 1.2,-5 0.1,-10.2 -3.2,-14.2 -3,-3.7 -7.8,-5.8 -12.8,-5.8 z m -28.1,117.4 c 3.4,0 6.2,2.8 6.2,6.2 0,3.4 -2.8,6.2 -6.2,6.2 -3.4,0 -6.2,-2.8 -6.2,-6.2 0,-3.4 2.8,-6.2 6.2,-6.2 z m -57.6,0 c 3.4,0 6.2,2.8 6.2,6.2 0,3.4 -2.8,6.2 -6.2,6.2 -3.4,0 -6.2,-2.8 -6.2,-6.2 0,-3.4 2.7,-6.2 6.2,-6.2 z m -22.8,-90.1 -2.8,-10 c -0.4,-1.5 0.2,-2.7 0.6,-3.2 0.4,-0.5 1.3,-1.5 2.9,-1.5 h 11.8 l 3.2,14.6 h -15.7 z m 3.5,12.6 h 14.9 l 3,13.6 h -14.1 z m 13.8,39 c -1.6,0 -3.1,-1.1 -3.5,-2.7 l -2.9,-10.2 h 13.3 l 2.8,12.8 h -9.7 z m 31.6,0 h -8.9 l -2.8,-12.8 H 246 Z m 0,-25.4 h -14.5 l -3,-13.6 H 246 Z m 0,-26.2 h -20.2 l -3.2,-14.6 h 23.5 v 14.6 z m 22.6,51.6 h -10 v -12.8 h 12.7 z m 5.4,-25.4 h -15.3 v -13.6 h 18.2 z m -15.4,-26.2 v -14.6 h 24 l -3.1,14.6 z m 36.2,48.8 c -0.4,1.6 -1.9,2.8 -3.6,2.8 h -9.7 l 2.7,-12.8 h 13.1 z m 5.6,-22.6 h -13.5 l 2.9,-13.6 h 14 z m 9,-36.3 -2.5,10.1 h -14.5 l 3.1,-14.6 h 10.4 c 1.6,0 2.5,0.9 2.9,1.4 0.4,0.4 1,1.6 0.6,3.1 z"
             id="path4256"
             style="fill:#ffffff;fill-opacity:1" />
        </g>
      </g>
      <g
         transform="matrix(0.60069667,0,0,0.73197437,-532.21456,5.5520843)"
         id="g4262" />
      <g
         transform="matrix(0.60069667,0,0,0.73197437,-532.21456,5.5520843)"
         id="g4264" />
      <g
         transform="matrix(0.60069667,0,0,0.73197437,-532.21456,5.5520843)"
         id="g4266" />
      <g
         transform="matrix(0.60069667,0,0,0.73197437,-532.21456,5.5520843)"
         id="g4268" />
      <g
         transform="matrix(0.60069667,0,0,0.73197437,-532.21456,5.5520843)"
         id="g4270" />
      <g
         transform="matrix(0.60069667,0,0,0.73197437,-532.21456,5.5520843)"
         id="g4272" />
      <g
         transform="matrix(0.60069667,0,0,0.73197437,-532.21456,5.5520843)"
         id="g4274" />
      <g
         transform="matrix(0.60069667,0,0,0.73197437,-532.21456,5.5520843)"
         id="g4276" />
      <g
         transform="matrix(0.60069667,0,0,0.73197437,-532.21456,5.5520843)"
         id="g4278" />
      <g
         transform="matrix(0.60069667,0,0,0.73197437,-532.21456,5.5520843)"
         id="g4280" />
      <g
         transform="matrix(0.60069667,0,0,0.73197437,-532.21456,5.5520843)"
         id="g4282" />
      <g
         transform="matrix(0.60069667,0,0,0.73197437,-532.21456,5.5520843)"
         id="g4284" />
      <g
         transform="matrix(0.60069667,0,0,0.73197437,-532.21456,5.5520843)"
         id="g4286" />
      <g
         transform="matrix(0.60069667,0,0,0.73197437,-532.21456,5.5520843)"
         id="g4288" />
      <g
         transform="matrix(0.60069667,0,0,0.73197437,-532.21456,5.5520843)"
         id="g4290" />
    </g>
    <g
       transform="matrix(0.09063537,0,0,0.0842626,4.7072253,1010.7024)"
       id="g868" />
    <g
       transform="matrix(0.09063537,0,0,0.0842626,4.7072253,1010.7024)"
       id="g870" />
    <g
       transform="matrix(0.09063537,0,0,0.0842626,4.7072253,1010.7024)"
       id="g872" />
    <g
       transform="matrix(0.09063537,0,0,0.0842626,4.7072253,1010.7024)"
       id="g874" />
    <g
       transform="matrix(0.09063537,0,0,0.0842626,4.7072253,1010.7024)"
       id="g876" />
    <g
       transform="matrix(0.09063537,0,0,0.0842626,4.7072253,1010.7024)"
       id="g878" />
    <g
       transform="matrix(0.09063537,0,0,0.0842626,4.7072253,1010.7024)"
       id="g880" />
    <g
       transform="matrix(0.09063537,0,0,0.0842626,4.7072253,1010.7024)"
       id="g882" />
    <g
       transform="matrix(0.09063537,0,0,0.0842626,4.7072253,1010.7024)"
       id="g884" />
    <g
       transform="matrix(0.09063537,0,0,0.0842626,4.7072253,1010.7024)"
       id="g886" />
    <g
       transform="matrix(0.09063537,0,0,0.0842626,4.7072253,1010.7024)"
       id="g888" />
    <g
       transform="matrix(0.09063537,0,0,0.0842626,4.7072253,1010.7024)"
       id="g890" />
    <g
       transform="matrix(0.09063537,0,0,0.0842626,4.7072253,1010.7024)"
       id="g892" />
    <g
       transform="matrix(0.09063537,0,0,0.0842626,4.7072253,1010.7024)"
       id="g894" />
    <g
       transform="matrix(0.09063537,0,0,0.0842626,4.7072253,1010.7024)"
       id="g896" />
  </g>
</svg>
