<?xml version="1.0" encoding="UTF-8" standalone="no"?>
<!-- Created with Inkscape (http://www.inkscape.org/) -->

<svg
   xmlns:dc="http://purl.org/dc/elements/1.1/"
   xmlns:cc="http://creativecommons.org/ns#"
   xmlns:rdf="http://www.w3.org/1999/02/22-rdf-syntax-ns#"
   xmlns:svg="http://www.w3.org/2000/svg"
   xmlns="http://www.w3.org/2000/svg"
   xmlns:sodipodi="http://sodipodi.sourceforge.net/DTD/sodipodi-0.dtd"
   xmlns:inkscape="http://www.inkscape.org/namespaces/inkscape"
   width="48"
   height="48"
   viewBox="0 0 48 48"
   id="svg2"
   version="1.1"
   inkscape:version="0.92.2 (5c3e80d, 2017-08-06)"
   sodipodi:docname="47.5_WINKEL_HUISHOUDELIJK.svg">
  <defs
     id="defs4">
    <filter
       color-interpolation-filters="sRGB"
       inkscape:menu-tooltip="Blur as if the object flies vertically; adjust Standard Deviation to vary force"
       inkscape:menu="Blurs"
       inkscape:label="Motion blur, vertical"
       id="filter3853">
      <feGaussianBlur
         result="fbSourceGraphic"
         stdDeviation="5 0.01"
         in="SourceGraphic"
         id="feGaussianBlur3855" />
      <feColorMatrix
         id="feColorMatrix3857"
         values="0 0 0 -1 0 0 0 0 -1 0 0 0 0 -1 0 0 0 0 1 0"
         in="fbSourceGraphic"
         result="fbSourceGraphicAlpha" />
      <feGaussianBlur
         stdDeviation="0.01 5"
         in="fbSourceGraphic"
         id="feGaussianBlur3859" />
    </filter>
    <inkscape:perspective
       inkscape:persp3d-origin="290 : 193.33333 : 1"
       id="perspective3653-9"
       sodipodi:type="inkscape:persp3d"
       inkscape:vp_x="0 : 290 : 1"
       inkscape:vp_y="0 : 1000 : 0"
       inkscape:vp_z="580 : 290 : 1" />
    <inkscape:perspective
       inkscape:persp3d-origin="290 : 193.33333 : 1"
       id="perspective3653-5-5"
       sodipodi:type="inkscape:persp3d"
       inkscape:vp_x="0 : 290 : 1"
       inkscape:vp_y="0 : 1000 : 0"
       inkscape:vp_z="580 : 290 : 1" />
    <inkscape:perspective
       inkscape:persp3d-origin="290 : 193.33333 : 1"
       id="perspective3653"
       sodipodi:type="inkscape:persp3d"
       inkscape:vp_x="0 : 290 : 1"
       inkscape:vp_y="0 : 1000 : 0"
       inkscape:vp_z="580 : 290 : 1" />
    <inkscape:perspective
       inkscape:persp3d-origin="290 : 193.33333 : 1"
       id="perspective3653-5"
       sodipodi:type="inkscape:persp3d"
       inkscape:vp_x="0 : 290 : 1"
       inkscape:vp_y="0 : 1000 : 0"
       inkscape:vp_z="580 : 290 : 1" />
    <filter
       color-interpolation-filters="sRGB"
       inkscape:menu-tooltip="Blur as if the object flies vertically; adjust Standard Deviation to vary force"
       inkscape:menu="Blurs"
       inkscape:label="Motion blur, vertical"
       id="filter3853-0">
      <feGaussianBlur
         result="fbSourceGraphic"
         stdDeviation="5 0.01"
         in="SourceGraphic"
         id="feGaussianBlur3855-21" />
      <feColorMatrix
         id="feColorMatrix3857-0"
         values="0 0 0 -1 0 0 0 0 -1 0 0 0 0 -1 0 0 0 0 1 0"
         in="fbSourceGraphic"
         result="fbSourceGraphicAlpha" />
      <feGaussianBlur
         stdDeviation="0.01 5"
         in="fbSourceGraphic"
         id="feGaussianBlur3859-0" />
    </filter>
    <inkscape:perspective
       inkscape:persp3d-origin="290 : 193.33333 : 1"
       id="perspective3653-9-4"
       sodipodi:type="inkscape:persp3d"
       inkscape:vp_x="0 : 290 : 1"
       inkscape:vp_y="0 : 1000 : 0"
       inkscape:vp_z="580 : 290 : 1" />
    <inkscape:perspective
       inkscape:persp3d-origin="290 : 193.33333 : 1"
       id="perspective3653-5-5-2"
       sodipodi:type="inkscape:persp3d"
       inkscape:vp_x="0 : 290 : 1"
       inkscape:vp_y="0 : 1000 : 0"
       inkscape:vp_z="580 : 290 : 1" />
    <inkscape:perspective
       inkscape:persp3d-origin="290 : 193.33333 : 1"
       id="perspective3653-2"
       sodipodi:type="inkscape:persp3d"
       inkscape:vp_x="0 : 290 : 1"
       inkscape:vp_y="0 : 1000 : 0"
       inkscape:vp_z="580 : 290 : 1" />
    <inkscape:perspective
       inkscape:persp3d-origin="290 : 193.33333 : 1"
       id="perspective3653-5-4"
       sodipodi:type="inkscape:persp3d"
       inkscape:vp_x="0 : 290 : 1"
       inkscape:vp_y="0 : 1000 : 0"
       inkscape:vp_z="580 : 290 : 1" />
    <filter
       color-interpolation-filters="sRGB"
       inkscape:menu-tooltip="Blur as if the object flies vertically; adjust Standard Deviation to vary force"
       inkscape:menu="Blurs"
       inkscape:label="Motion blur, vertical"
       id="filter3853-3">
      <feGaussianBlur
         result="fbSourceGraphic"
         stdDeviation="5 0.01"
         in="SourceGraphic"
         id="feGaussianBlur3855-2" />
      <feColorMatrix
         id="feColorMatrix3857-2"
         values="0 0 0 -1 0 0 0 0 -1 0 0 0 0 -1 0 0 0 0 1 0"
         in="fbSourceGraphic"
         result="fbSourceGraphicAlpha" />
      <feGaussianBlur
         stdDeviation="0.01 5"
         in="fbSourceGraphic"
         id="feGaussianBlur3859-5" />
    </filter>
    <inkscape:perspective
       inkscape:persp3d-origin="290 : 193.33333 : 1"
       id="perspective3653-9-8"
       sodipodi:type="inkscape:persp3d"
       inkscape:vp_x="0 : 290 : 1"
       inkscape:vp_y="0 : 1000 : 0"
       inkscape:vp_z="580 : 290 : 1" />
    <inkscape:perspective
       inkscape:persp3d-origin="290 : 193.33333 : 1"
       id="perspective3653-5-5-7"
       sodipodi:type="inkscape:persp3d"
       inkscape:vp_x="0 : 290 : 1"
       inkscape:vp_y="0 : 1000 : 0"
       inkscape:vp_z="580 : 290 : 1" />
    <inkscape:perspective
       inkscape:persp3d-origin="290 : 193.33333 : 1"
       id="perspective3653-54"
       sodipodi:type="inkscape:persp3d"
       inkscape:vp_x="0 : 290 : 1"
       inkscape:vp_y="0 : 1000 : 0"
       inkscape:vp_z="580 : 290 : 1" />
    <inkscape:perspective
       inkscape:persp3d-origin="290 : 193.33333 : 1"
       id="perspective3653-5-0"
       sodipodi:type="inkscape:persp3d"
       inkscape:vp_x="0 : 290 : 1"
       inkscape:vp_y="0 : 1000 : 0"
       inkscape:vp_z="580 : 290 : 1" />
    <filter
       color-interpolation-filters="sRGB"
       inkscape:menu-tooltip="Blur as if the object flies vertically; adjust Standard Deviation to vary force"
       inkscape:menu="Blurs"
       inkscape:label="Motion blur, vertical"
       id="filter3853-5">
      <feGaussianBlur
         result="fbSourceGraphic"
         stdDeviation="5 0.01"
         in="SourceGraphic"
         id="feGaussianBlur3855-0" />
      <feColorMatrix
         id="feColorMatrix3857-29"
         values="0 0 0 -1 0 0 0 0 -1 0 0 0 0 -1 0 0 0 0 1 0"
         in="fbSourceGraphic"
         result="fbSourceGraphicAlpha" />
      <feGaussianBlur
         stdDeviation="0.01 5"
         in="fbSourceGraphic"
         id="feGaussianBlur3859-08" />
    </filter>
    <inkscape:perspective
       inkscape:persp3d-origin="290 : 193.33333 : 1"
       id="perspective3653-9-9"
       sodipodi:type="inkscape:persp3d"
       inkscape:vp_x="0 : 290 : 1"
       inkscape:vp_y="0 : 1000 : 0"
       inkscape:vp_z="580 : 290 : 1" />
    <inkscape:perspective
       inkscape:persp3d-origin="290 : 193.33333 : 1"
       id="perspective3653-5-5-4"
       sodipodi:type="inkscape:persp3d"
       inkscape:vp_x="0 : 290 : 1"
       inkscape:vp_y="0 : 1000 : 0"
       inkscape:vp_z="580 : 290 : 1" />
    <inkscape:perspective
       inkscape:persp3d-origin="290 : 193.33333 : 1"
       id="perspective3653-4"
       sodipodi:type="inkscape:persp3d"
       inkscape:vp_x="0 : 290 : 1"
       inkscape:vp_y="0 : 1000 : 0"
       inkscape:vp_z="580 : 290 : 1" />
    <inkscape:perspective
       inkscape:persp3d-origin="290 : 193.33333 : 1"
       id="perspective3653-5-6"
       sodipodi:type="inkscape:persp3d"
       inkscape:vp_x="0 : 290 : 1"
       inkscape:vp_y="0 : 1000 : 0"
       inkscape:vp_z="580 : 290 : 1" />
    <filter
       color-interpolation-filters="sRGB"
       inkscape:menu-tooltip="Blur as if the object flies vertically; adjust Standard Deviation to vary force"
       inkscape:menu="Blurs"
       inkscape:label="Motion blur, vertical"
       id="filter3853-9">
      <feGaussianBlur
         result="fbSourceGraphic"
         stdDeviation="5 0.01"
         in="SourceGraphic"
         id="feGaussianBlur3855-20" />
      <feColorMatrix
         id="feColorMatrix3857-8"
         values="0 0 0 -1 0 0 0 0 -1 0 0 0 0 -1 0 0 0 0 1 0"
         in="fbSourceGraphic"
         result="fbSourceGraphicAlpha" />
      <feGaussianBlur
         stdDeviation="0.01 5"
         in="fbSourceGraphic"
         id="feGaussianBlur3859-4" />
    </filter>
    <inkscape:perspective
       inkscape:persp3d-origin="290 : 193.33333 : 1"
       id="perspective3653-9-41"
       sodipodi:type="inkscape:persp3d"
       inkscape:vp_x="0 : 290 : 1"
       inkscape:vp_y="0 : 1000 : 0"
       inkscape:vp_z="580 : 290 : 1" />
    <inkscape:perspective
       inkscape:persp3d-origin="290 : 193.33333 : 1"
       id="perspective3653-5-5-8"
       sodipodi:type="inkscape:persp3d"
       inkscape:vp_x="0 : 290 : 1"
       inkscape:vp_y="0 : 1000 : 0"
       inkscape:vp_z="580 : 290 : 1" />
    <inkscape:perspective
       inkscape:persp3d-origin="290 : 193.33333 : 1"
       id="perspective3653-91"
       sodipodi:type="inkscape:persp3d"
       inkscape:vp_x="0 : 290 : 1"
       inkscape:vp_y="0 : 1000 : 0"
       inkscape:vp_z="580 : 290 : 1" />
    <inkscape:perspective
       inkscape:persp3d-origin="290 : 193.33333 : 1"
       id="perspective3653-5-05"
       sodipodi:type="inkscape:persp3d"
       inkscape:vp_x="0 : 290 : 1"
       inkscape:vp_y="0 : 1000 : 0"
       inkscape:vp_z="580 : 290 : 1" />
    <filter
       color-interpolation-filters="sRGB"
       inkscape:menu-tooltip="Blur as if the object flies vertically; adjust Standard Deviation to vary force"
       inkscape:menu="Blurs"
       inkscape:label="Motion blur, vertical"
       id="filter3853-53">
      <feGaussianBlur
         result="fbSourceGraphic"
         stdDeviation="5 0.01"
         in="SourceGraphic"
         id="feGaussianBlur3855-8" />
      <feColorMatrix
         id="feColorMatrix3857-6"
         values="0 0 0 -1 0 0 0 0 -1 0 0 0 0 -1 0 0 0 0 1 0"
         in="fbSourceGraphic"
         result="fbSourceGraphicAlpha" />
      <feGaussianBlur
         stdDeviation="0.01 5"
         in="fbSourceGraphic"
         id="feGaussianBlur3859-3" />
    </filter>
    <inkscape:perspective
       inkscape:persp3d-origin="290 : 193.33333 : 1"
       id="perspective3653-9-2"
       sodipodi:type="inkscape:persp3d"
       inkscape:vp_x="0 : 290 : 1"
       inkscape:vp_y="0 : 1000 : 0"
       inkscape:vp_z="580 : 290 : 1" />
    <inkscape:perspective
       inkscape:persp3d-origin="290 : 193.33333 : 1"
       id="perspective3653-5-5-3"
       sodipodi:type="inkscape:persp3d"
       inkscape:vp_x="0 : 290 : 1"
       inkscape:vp_y="0 : 1000 : 0"
       inkscape:vp_z="580 : 290 : 1" />
    <inkscape:perspective
       inkscape:persp3d-origin="290 : 193.33333 : 1"
       id="perspective3653-1"
       sodipodi:type="inkscape:persp3d"
       inkscape:vp_x="0 : 290 : 1"
       inkscape:vp_y="0 : 1000 : 0"
       inkscape:vp_z="580 : 290 : 1" />
    <inkscape:perspective
       inkscape:persp3d-origin="290 : 193.33333 : 1"
       id="perspective3653-5-7"
       sodipodi:type="inkscape:persp3d"
       inkscape:vp_x="0 : 290 : 1"
       inkscape:vp_y="0 : 1000 : 0"
       inkscape:vp_z="580 : 290 : 1" />
  </defs>
  <sodipodi:namedview
     id="base"
     pagecolor="#ffffff"
     bordercolor="#666666"
     borderopacity="1.0"
     inkscape:pageopacity="0.0"
     inkscape:pageshadow="2"
     inkscape:zoom="14.481547"
     inkscape:cx="15.117409"
     inkscape:cy="19.86834"
     inkscape:document-units="px"
     inkscape:current-layer="layer1"
     showgrid="false"
     inkscape:window-width="1920"
     inkscape:window-height="1017"
     inkscape:window-x="1912"
     inkscape:window-y="-8"
     inkscape:window-maximized="1" />
  <metadata
     id="metadata7">
    <rdf:RDF>
      <cc:Work
         rdf:about="">
        <dc:format>image/svg+xml</dc:format>
        <dc:type
           rdf:resource="http://purl.org/dc/dcmitype/StillImage" />
        <dc:title></dc:title>
      </cc:Work>
    </rdf:RDF>
  </metadata>
  <g
     inkscape:label="Laag 1"
     inkscape:groupmode="layer"
     id="layer1"
     transform="translate(0,-1004.3622)">
    <rect
       ry="9.6995745"
       y="1005.8802"
       x="1.3561161"
       height="45.234459"
       width="44.999073"
       id="rect3435"
       style="fill:#ffffff;fill-opacity:1;stroke:#cc00ff;stroke-width:0.88619024;stroke-opacity:1" />
    <rect
       style="fill:#cc00ff;fill-opacity:1;stroke:#cc00ff;stroke-width:0.73167545;stroke-opacity:1"
       id="rect3803"
       width="41.709263"
       height="41.236824"
       x="2.9865186"
       y="1007.6642"
       ry="8.8423662" />
    <g
       transform="matrix(0.09063537,0,0,0.0842626,4.7072253,1010.7024)"
       id="g868" />
    <g
       transform="matrix(0.09063537,0,0,0.0842626,4.7072253,1010.7024)"
       id="g870" />
    <g
       transform="matrix(0.09063537,0,0,0.0842626,4.7072253,1010.7024)"
       id="g872" />
    <g
       transform="matrix(0.09063537,0,0,0.0842626,4.7072253,1010.7024)"
       id="g874" />
    <g
       transform="matrix(0.09063537,0,0,0.0842626,4.7072253,1010.7024)"
       id="g876" />
    <g
       transform="matrix(0.09063537,0,0,0.0842626,4.7072253,1010.7024)"
       id="g878" />
    <g
       transform="matrix(0.09063537,0,0,0.0842626,4.7072253,1010.7024)"
       id="g880" />
    <g
       transform="matrix(0.09063537,0,0,0.0842626,4.7072253,1010.7024)"
       id="g882" />
    <g
       transform="matrix(0.09063537,0,0,0.0842626,4.7072253,1010.7024)"
       id="g884" />
    <g
       transform="matrix(0.09063537,0,0,0.0842626,4.7072253,1010.7024)"
       id="g886" />
    <g
       transform="matrix(0.09063537,0,0,0.0842626,4.7072253,1010.7024)"
       id="g888" />
    <g
       transform="matrix(0.09063537,0,0,0.0842626,4.7072253,1010.7024)"
       id="g890" />
    <g
       transform="matrix(0.09063537,0,0,0.0842626,4.7072253,1010.7024)"
       id="g892" />
    <g
       transform="matrix(0.09063537,0,0,0.0842626,4.7072253,1010.7024)"
       id="g894" />
    <g
       transform="matrix(0.09063537,0,0,0.0842626,4.7072253,1010.7024)"
       id="g896" />
    <g
       transform="matrix(0.0592448,0,0,0.06639183,9.8571282,1011.0429)"
       id="g7994"
       style="fill:#ffffff;fill-opacity:1" />
    <g
       transform="matrix(0.0592448,0,0,0.06639183,9.8571282,1011.0429)"
       id="g7996"
       style="fill:#ffffff;fill-opacity:1" />
    <g
       transform="matrix(0.0592448,0,0,0.06639183,9.8571282,1011.0429)"
       id="g7998"
       style="fill:#ffffff;fill-opacity:1" />
    <g
       transform="matrix(0.0592448,0,0,0.06639183,9.8571282,1011.0429)"
       id="g8000"
       style="fill:#ffffff;fill-opacity:1" />
    <g
       transform="matrix(0.0592448,0,0,0.06639183,9.8571282,1011.0429)"
       id="g8002"
       style="fill:#ffffff;fill-opacity:1" />
    <g
       transform="matrix(0.0592448,0,0,0.06639183,9.8571282,1011.0429)"
       id="g8004"
       style="fill:#ffffff;fill-opacity:1" />
    <g
       transform="matrix(0.0592448,0,0,0.06639183,9.8571282,1011.0429)"
       id="g8006"
       style="fill:#ffffff;fill-opacity:1" />
    <g
       transform="matrix(0.0592448,0,0,0.06639183,9.8571282,1011.0429)"
       id="g8008"
       style="fill:#ffffff;fill-opacity:1" />
    <g
       transform="matrix(0.0592448,0,0,0.06639183,9.8571282,1011.0429)"
       id="g8010"
       style="fill:#ffffff;fill-opacity:1" />
    <g
       transform="matrix(0.0592448,0,0,0.06639183,9.8571282,1011.0429)"
       id="g8012"
       style="fill:#ffffff;fill-opacity:1" />
    <g
       transform="matrix(0.0592448,0,0,0.06639183,9.8571282,1011.0429)"
       id="g8014"
       style="fill:#ffffff;fill-opacity:1" />
    <g
       transform="matrix(0.0592448,0,0,0.06639183,9.8571282,1011.0429)"
       id="g8016"
       style="fill:#ffffff;fill-opacity:1" />
    <g
       transform="matrix(0.0592448,0,0,0.06639183,9.8571282,1011.0429)"
       id="g8018"
       style="fill:#ffffff;fill-opacity:1" />
    <g
       transform="matrix(0.0592448,0,0,0.06639183,9.8571282,1011.0429)"
       id="g8020"
       style="fill:#ffffff;fill-opacity:1" />
    <g
       transform="matrix(0.0592448,0,0,0.06639183,9.8571282,1011.0429)"
       id="g8022"
       style="fill:#ffffff;fill-opacity:1" />
    <path
       style="stroke-width:0.02664666;fill:#ffffff;fill-opacity:1"
       inkscape:connector-curvature="0"
       d="M 8.6750813,1024.8259 H 21.729961 v 1.6186 H 8.6750813 Z m 0,0"
       id="path8764" />
    <path
       style="stroke-width:0.02664666;fill:#ffffff;fill-opacity:1"
       inkscape:connector-curvature="0"
       d="m 17.650318,1020.9099 h 0.815928 v 0.7833 h 0.815929 v -1.5665 h -1.093321 c -1.166843,0 -2.219373,0.6108 -2.774169,1.5665 h 2.235633 z m 0,0"
       id="path8766" />
    <path
       style="stroke-width:0.02664666;fill:#ffffff;fill-opacity:1"
       inkscape:connector-curvature="0"
       d="m 17.446329,1017.777 c -4.047031,0 -7.5637109,2.5612 -8.6652171,6.2657 H 20.987448 c 0.163186,-0.4542 0.62013,-0.7832 1.15049,-0.7832 h 0.462355 v -5.4825 z m -5.507527,5.4825 h -0.81593 v -0.7832 h 0.81593 z m 8.159302,-0.7832 h -5.866516 l 0.179439,-0.5169 c 0.538537,-1.5664 2.064365,-2.6159 3.777827,-2.6159 h 1.90925 z m 0,0"
       id="path8768" />
    <path
       style="stroke-width:0.02664666;fill:#ffffff;fill-opacity:1"
       inkscape:connector-curvature="0"
       d="m 12.346769,1013.0779 c -0.674844,0 -1.223897,0.527 -1.223897,1.1748 0,0.6478 0.549053,1.1748 1.223897,1.1748 h 7.34337 c 0.225128,0 0.407965,0.1755 0.407965,0.3916 v 0.3915 h -0.815929 v 0.7833 h 2.447786 v -0.7833 h -0.815928 v -0.3915 c 0,-0.6478 -0.549054,-1.1748 -1.223894,-1.1748 h -7.34337 c -0.225128,0 -0.407967,-0.1755 -0.407967,-0.3916 0,-0.2161 0.182839,-0.3916 0.407967,-0.3916 h 10.253524 v -0.7832 z m 0,0"
       id="path8770" />
    <path
       inkscape:connector-curvature="0"
       d="m 39.321865,1041.5728 c -0.01853,-0.042 -0.469737,-1.0382 -1.798862,-1.465 -0.256383,-0.082 -0.510936,-0.1241 -0.756655,-0.1241 -0.06024,0 -0.117361,0 -0.172977,0 l -1.771404,-9.5872 c 0.08166,-0.1601 0.114614,-0.3588 0.07936,-0.5586 l -0.211391,-1.1983 c -0.04591,-0.2602 -0.196183,-0.4582 -0.384284,-0.5424 -0.235513,-0.9435 -0.631007,-2.016 -1.371954,-2.5839 -0.529475,-0.406 -1.162608,-0.5017 -1.8816,-0.2849 -0.557848,0.1682 -0.998998,0.6034 -1.275799,1.2584 -0.150811,0.3569 -0.249719,0.7793 -0.29692,1.238 -0.245552,-0.1397 -0.500397,-0.2665 -0.764615,-0.3773 -0.06132,-0.025 -0.12882,-0.015 -0.181393,0.034 -0.05257,0.046 -0.08374,0.1226 -0.08374,0.2023 v 10.7816 c -0.514645,0.3777 -0.860682,1.0728 -0.860682,1.8668 0,1.1956 0.784277,2.1684 1.74832,2.1684 0.451571,0 0.863685,-0.2135 1.174273,-0.5633 0.930174,-0.1163 1.618546,-0.371 2.10607,-0.8903 0.728326,-0.776 1.012083,-2.0931 1.012083,-4.6977 0,-3.597 -1.296175,-6.5199 -3.534392,-8.1286 0.02104,-0.4802 0.104146,-0.9181 0.250091,-1.2635 0.191269,-0.4527 0.480107,-0.7399 0.85852,-0.8541 0.553554,-0.1668 1.008829,-0.1055 1.391992,0.1885 0.552346,0.4233 0.875765,1.2836 1.079991,2.0804 -0.140027,0.174 -0.20835,0.4295 -0.162816,0.6874 l 0.211391,1.1984 c 0.04087,0.2317 0.164479,0.4138 0.32375,0.5107 l 1.764323,9.5488 c -0.07032,0.04 -0.109775,0.071 -0.114655,0.074 -0.04615,0.037 -0.07404,0.099 -0.07404,0.1682 v 1.2006 c 0,0.1102 0.07216,0.1999 0.161185,0.1999 h 3.395413 c 0.05687,0 0.109571,-0.037 0.138606,-0.098 0.0289,-0.061 0.03003,-0.1366 0.003,-0.1978 z m -9.984589,-0.015 c -0.585967,0 -1.062697,-0.5912 -1.062697,-1.318 0,-0.7267 0.47673,-1.318 1.062697,-1.318 0.585969,0 1.062703,0.5913 1.062703,1.318 0,0.7268 -0.476734,1.318 -1.062703,1.318 z m 2.226975,-9.8158 c 0.11286,-0.067 0.247508,0 0.300797,0.1335 0.07545,0.1981 0.143855,0.4056 0.20322,0.6168 0.04112,0.1458 -0.02104,0.3058 -0.138858,0.3569 -0.02462,0.015 -0.04974,0.015 -0.07444,0.015 -0.09341,0 -0.180809,-0.073 -0.213348,-0.1879 -0.0542,-0.1928 -0.11649,-0.3819 -0.185223,-0.5624 -0.05325,-0.1396 -0.0049,-0.3069 0.107857,-0.373 z m -0.163065,-0.8393 c 0.07337,0.1257 0.05099,0.3004 -0.04995,0.3913 -0.04012,0.036 -0.08661,0.054 -0.132653,0.054 -0.06986,0 -0.138734,-0.04 -0.182978,-0.1148 -0.678414,-1.1577 -1.494352,-1.5778 -1.502521,-1.5818 -0.115647,-0.059 -0.17135,-0.2216 -0.124402,-0.3651 0.04691,-0.1428 0.178688,-0.2124 0.294299,-0.1536 0.03823,0.019 0.94463,0.4858 1.698203,1.7717 z"
       id="path9386"
       style="fill:#ffffff;fill-opacity:1;stroke-width:0.04639573" />
    <g
       transform="matrix(0.03064612,0,0,0.03329754,28.235596,1031.6805)"
       id="g9388" />
    <g
       transform="matrix(0.03064612,0,0,0.03329754,28.235596,1031.6805)"
       id="g9390" />
    <g
       transform="matrix(0.03064612,0,0,0.03329754,28.235596,1031.6805)"
       id="g9392" />
    <g
       transform="matrix(0.03064612,0,0,0.03329754,28.235596,1031.6805)"
       id="g9394" />
    <g
       transform="matrix(0.03064612,0,0,0.03329754,28.235596,1031.6805)"
       id="g9396" />
    <g
       transform="matrix(0.03064612,0,0,0.03329754,28.235596,1031.6805)"
       id="g9398" />
    <g
       transform="matrix(0.03064612,0,0,0.03329754,28.235596,1031.6805)"
       id="g9400" />
    <g
       transform="matrix(0.03064612,0,0,0.03329754,28.235596,1031.6805)"
       id="g9402" />
    <g
       transform="matrix(0.03064612,0,0,0.03329754,28.235596,1031.6805)"
       id="g9404" />
    <g
       transform="matrix(0.03064612,0,0,0.03329754,28.235596,1031.6805)"
       id="g9406" />
    <g
       transform="matrix(0.03064612,0,0,0.03329754,28.235596,1031.6805)"
       id="g9408" />
    <g
       transform="matrix(0.03064612,0,0,0.03329754,28.235596,1031.6805)"
       id="g9410" />
    <g
       transform="matrix(0.03064612,0,0,0.03329754,28.235596,1031.6805)"
       id="g9412" />
    <g
       transform="matrix(0.03064612,0,0,0.03329754,28.235596,1031.6805)"
       id="g9414" />
    <g
       transform="matrix(0.03064612,0,0,0.03329754,28.235596,1031.6805)"
       id="g9416" />
  </g>
</svg>
