<?xml version="1.0" encoding="UTF-8" standalone="no"?>
<!-- Created with Inkscape (http://www.inkscape.org/) -->

<svg
   xmlns:dc="http://purl.org/dc/elements/1.1/"
   xmlns:cc="http://creativecommons.org/ns#"
   xmlns:rdf="http://www.w3.org/1999/02/22-rdf-syntax-ns#"
   xmlns:svg="http://www.w3.org/2000/svg"
   xmlns="http://www.w3.org/2000/svg"
   xmlns:sodipodi="http://sodipodi.sourceforge.net/DTD/sodipodi-0.dtd"
   xmlns:inkscape="http://www.inkscape.org/namespaces/inkscape"
   width="48"
   height="48"
   viewBox="0 0 48 48"
   id="svg2"
   version="1.1"
   inkscape:version="0.91 r13725"
   sodipodi:docname="SBI_RUBRIEK_CODE_I_INFO_COMMUNICATIE.svg">
  <defs
     id="defs4">
    <filter
       color-interpolation-filters="sRGB"
       inkscape:menu-tooltip="Blur as if the object flies vertically; adjust Standard Deviation to vary force"
       inkscape:menu="Blurs"
       inkscape:label="Motion blur, vertical"
       id="filter3853">
      <feGaussianBlur
         result="fbSourceGraphic"
         stdDeviation="5 0.01"
         in="SourceGraphic"
         id="feGaussianBlur3855" />
      <feColorMatrix
         id="feColorMatrix3857"
         values="0 0 0 -1 0 0 0 0 -1 0 0 0 0 -1 0 0 0 0 1 0"
         in="fbSourceGraphic"
         result="fbSourceGraphicAlpha" />
      <feGaussianBlur
         stdDeviation="0.01 5"
         in="fbSourceGraphic"
         id="feGaussianBlur3859" />
    </filter>
    <inkscape:perspective
       inkscape:persp3d-origin="290 : 193.33333 : 1"
       id="perspective3653-9"
       sodipodi:type="inkscape:persp3d"
       inkscape:vp_x="0 : 290 : 1"
       inkscape:vp_y="0 : 1000 : 0"
       inkscape:vp_z="580 : 290 : 1" />
    <inkscape:perspective
       inkscape:persp3d-origin="290 : 193.33333 : 1"
       id="perspective3653-5-5"
       sodipodi:type="inkscape:persp3d"
       inkscape:vp_x="0 : 290 : 1"
       inkscape:vp_y="0 : 1000 : 0"
       inkscape:vp_z="580 : 290 : 1" />
    <inkscape:perspective
       inkscape:persp3d-origin="290 : 193.33333 : 1"
       id="perspective3653"
       sodipodi:type="inkscape:persp3d"
       inkscape:vp_x="0 : 290 : 1"
       inkscape:vp_y="0 : 1000 : 0"
       inkscape:vp_z="580 : 290 : 1" />
    <inkscape:perspective
       inkscape:persp3d-origin="290 : 193.33333 : 1"
       id="perspective3653-5"
       sodipodi:type="inkscape:persp3d"
       inkscape:vp_x="0 : 290 : 1"
       inkscape:vp_y="0 : 1000 : 0"
       inkscape:vp_z="580 : 290 : 1" />
    <filter
       color-interpolation-filters="sRGB"
       inkscape:menu-tooltip="Blur as if the object flies vertically; adjust Standard Deviation to vary force"
       inkscape:menu="Blurs"
       inkscape:label="Motion blur, vertical"
       id="filter3853-0">
      <feGaussianBlur
         result="fbSourceGraphic"
         stdDeviation="5 0.01"
         in="SourceGraphic"
         id="feGaussianBlur3855-21" />
      <feColorMatrix
         id="feColorMatrix3857-0"
         values="0 0 0 -1 0 0 0 0 -1 0 0 0 0 -1 0 0 0 0 1 0"
         in="fbSourceGraphic"
         result="fbSourceGraphicAlpha" />
      <feGaussianBlur
         stdDeviation="0.01 5"
         in="fbSourceGraphic"
         id="feGaussianBlur3859-0" />
    </filter>
    <inkscape:perspective
       inkscape:persp3d-origin="290 : 193.33333 : 1"
       id="perspective3653-9-4"
       sodipodi:type="inkscape:persp3d"
       inkscape:vp_x="0 : 290 : 1"
       inkscape:vp_y="0 : 1000 : 0"
       inkscape:vp_z="580 : 290 : 1" />
    <inkscape:perspective
       inkscape:persp3d-origin="290 : 193.33333 : 1"
       id="perspective3653-5-5-2"
       sodipodi:type="inkscape:persp3d"
       inkscape:vp_x="0 : 290 : 1"
       inkscape:vp_y="0 : 1000 : 0"
       inkscape:vp_z="580 : 290 : 1" />
    <inkscape:perspective
       inkscape:persp3d-origin="290 : 193.33333 : 1"
       id="perspective3653-2"
       sodipodi:type="inkscape:persp3d"
       inkscape:vp_x="0 : 290 : 1"
       inkscape:vp_y="0 : 1000 : 0"
       inkscape:vp_z="580 : 290 : 1" />
    <inkscape:perspective
       inkscape:persp3d-origin="290 : 193.33333 : 1"
       id="perspective3653-5-4"
       sodipodi:type="inkscape:persp3d"
       inkscape:vp_x="0 : 290 : 1"
       inkscape:vp_y="0 : 1000 : 0"
       inkscape:vp_z="580 : 290 : 1" />
    <filter
       color-interpolation-filters="sRGB"
       inkscape:menu-tooltip="Blur as if the object flies vertically; adjust Standard Deviation to vary force"
       inkscape:menu="Blurs"
       inkscape:label="Motion blur, vertical"
       id="filter3853-3">
      <feGaussianBlur
         result="fbSourceGraphic"
         stdDeviation="5 0.01"
         in="SourceGraphic"
         id="feGaussianBlur3855-2" />
      <feColorMatrix
         id="feColorMatrix3857-2"
         values="0 0 0 -1 0 0 0 0 -1 0 0 0 0 -1 0 0 0 0 1 0"
         in="fbSourceGraphic"
         result="fbSourceGraphicAlpha" />
      <feGaussianBlur
         stdDeviation="0.01 5"
         in="fbSourceGraphic"
         id="feGaussianBlur3859-5" />
    </filter>
    <inkscape:perspective
       inkscape:persp3d-origin="290 : 193.33333 : 1"
       id="perspective3653-9-8"
       sodipodi:type="inkscape:persp3d"
       inkscape:vp_x="0 : 290 : 1"
       inkscape:vp_y="0 : 1000 : 0"
       inkscape:vp_z="580 : 290 : 1" />
    <inkscape:perspective
       inkscape:persp3d-origin="290 : 193.33333 : 1"
       id="perspective3653-5-5-7"
       sodipodi:type="inkscape:persp3d"
       inkscape:vp_x="0 : 290 : 1"
       inkscape:vp_y="0 : 1000 : 0"
       inkscape:vp_z="580 : 290 : 1" />
    <inkscape:perspective
       inkscape:persp3d-origin="290 : 193.33333 : 1"
       id="perspective3653-54"
       sodipodi:type="inkscape:persp3d"
       inkscape:vp_x="0 : 290 : 1"
       inkscape:vp_y="0 : 1000 : 0"
       inkscape:vp_z="580 : 290 : 1" />
    <inkscape:perspective
       inkscape:persp3d-origin="290 : 193.33333 : 1"
       id="perspective3653-5-0"
       sodipodi:type="inkscape:persp3d"
       inkscape:vp_x="0 : 290 : 1"
       inkscape:vp_y="0 : 1000 : 0"
       inkscape:vp_z="580 : 290 : 1" />
    <filter
       color-interpolation-filters="sRGB"
       inkscape:menu-tooltip="Blur as if the object flies vertically; adjust Standard Deviation to vary force"
       inkscape:menu="Blurs"
       inkscape:label="Motion blur, vertical"
       id="filter3853-5">
      <feGaussianBlur
         result="fbSourceGraphic"
         stdDeviation="5 0.01"
         in="SourceGraphic"
         id="feGaussianBlur3855-0" />
      <feColorMatrix
         id="feColorMatrix3857-29"
         values="0 0 0 -1 0 0 0 0 -1 0 0 0 0 -1 0 0 0 0 1 0"
         in="fbSourceGraphic"
         result="fbSourceGraphicAlpha" />
      <feGaussianBlur
         stdDeviation="0.01 5"
         in="fbSourceGraphic"
         id="feGaussianBlur3859-08" />
    </filter>
    <inkscape:perspective
       inkscape:persp3d-origin="290 : 193.33333 : 1"
       id="perspective3653-9-9"
       sodipodi:type="inkscape:persp3d"
       inkscape:vp_x="0 : 290 : 1"
       inkscape:vp_y="0 : 1000 : 0"
       inkscape:vp_z="580 : 290 : 1" />
    <inkscape:perspective
       inkscape:persp3d-origin="290 : 193.33333 : 1"
       id="perspective3653-5-5-4"
       sodipodi:type="inkscape:persp3d"
       inkscape:vp_x="0 : 290 : 1"
       inkscape:vp_y="0 : 1000 : 0"
       inkscape:vp_z="580 : 290 : 1" />
    <inkscape:perspective
       inkscape:persp3d-origin="290 : 193.33333 : 1"
       id="perspective3653-4"
       sodipodi:type="inkscape:persp3d"
       inkscape:vp_x="0 : 290 : 1"
       inkscape:vp_y="0 : 1000 : 0"
       inkscape:vp_z="580 : 290 : 1" />
    <inkscape:perspective
       inkscape:persp3d-origin="290 : 193.33333 : 1"
       id="perspective3653-5-6"
       sodipodi:type="inkscape:persp3d"
       inkscape:vp_x="0 : 290 : 1"
       inkscape:vp_y="0 : 1000 : 0"
       inkscape:vp_z="580 : 290 : 1" />
    <filter
       color-interpolation-filters="sRGB"
       inkscape:menu-tooltip="Blur as if the object flies vertically; adjust Standard Deviation to vary force"
       inkscape:menu="Blurs"
       inkscape:label="Motion blur, vertical"
       id="filter3853-9">
      <feGaussianBlur
         result="fbSourceGraphic"
         stdDeviation="5 0.01"
         in="SourceGraphic"
         id="feGaussianBlur3855-20" />
      <feColorMatrix
         id="feColorMatrix3857-8"
         values="0 0 0 -1 0 0 0 0 -1 0 0 0 0 -1 0 0 0 0 1 0"
         in="fbSourceGraphic"
         result="fbSourceGraphicAlpha" />
      <feGaussianBlur
         stdDeviation="0.01 5"
         in="fbSourceGraphic"
         id="feGaussianBlur3859-4" />
    </filter>
    <inkscape:perspective
       inkscape:persp3d-origin="290 : 193.33333 : 1"
       id="perspective3653-9-41"
       sodipodi:type="inkscape:persp3d"
       inkscape:vp_x="0 : 290 : 1"
       inkscape:vp_y="0 : 1000 : 0"
       inkscape:vp_z="580 : 290 : 1" />
    <inkscape:perspective
       inkscape:persp3d-origin="290 : 193.33333 : 1"
       id="perspective3653-5-5-8"
       sodipodi:type="inkscape:persp3d"
       inkscape:vp_x="0 : 290 : 1"
       inkscape:vp_y="0 : 1000 : 0"
       inkscape:vp_z="580 : 290 : 1" />
    <inkscape:perspective
       inkscape:persp3d-origin="290 : 193.33333 : 1"
       id="perspective3653-91"
       sodipodi:type="inkscape:persp3d"
       inkscape:vp_x="0 : 290 : 1"
       inkscape:vp_y="0 : 1000 : 0"
       inkscape:vp_z="580 : 290 : 1" />
    <inkscape:perspective
       inkscape:persp3d-origin="290 : 193.33333 : 1"
       id="perspective3653-5-05"
       sodipodi:type="inkscape:persp3d"
       inkscape:vp_x="0 : 290 : 1"
       inkscape:vp_y="0 : 1000 : 0"
       inkscape:vp_z="580 : 290 : 1" />
    <filter
       color-interpolation-filters="sRGB"
       inkscape:menu-tooltip="Blur as if the object flies vertically; adjust Standard Deviation to vary force"
       inkscape:menu="Blurs"
       inkscape:label="Motion blur, vertical"
       id="filter3853-53">
      <feGaussianBlur
         result="fbSourceGraphic"
         stdDeviation="5 0.01"
         in="SourceGraphic"
         id="feGaussianBlur3855-8" />
      <feColorMatrix
         id="feColorMatrix3857-6"
         values="0 0 0 -1 0 0 0 0 -1 0 0 0 0 -1 0 0 0 0 1 0"
         in="fbSourceGraphic"
         result="fbSourceGraphicAlpha" />
      <feGaussianBlur
         stdDeviation="0.01 5"
         in="fbSourceGraphic"
         id="feGaussianBlur3859-3" />
    </filter>
    <inkscape:perspective
       inkscape:persp3d-origin="290 : 193.33333 : 1"
       id="perspective3653-9-2"
       sodipodi:type="inkscape:persp3d"
       inkscape:vp_x="0 : 290 : 1"
       inkscape:vp_y="0 : 1000 : 0"
       inkscape:vp_z="580 : 290 : 1" />
    <inkscape:perspective
       inkscape:persp3d-origin="290 : 193.33333 : 1"
       id="perspective3653-5-5-3"
       sodipodi:type="inkscape:persp3d"
       inkscape:vp_x="0 : 290 : 1"
       inkscape:vp_y="0 : 1000 : 0"
       inkscape:vp_z="580 : 290 : 1" />
    <inkscape:perspective
       inkscape:persp3d-origin="290 : 193.33333 : 1"
       id="perspective3653-1"
       sodipodi:type="inkscape:persp3d"
       inkscape:vp_x="0 : 290 : 1"
       inkscape:vp_y="0 : 1000 : 0"
       inkscape:vp_z="580 : 290 : 1" />
    <inkscape:perspective
       inkscape:persp3d-origin="290 : 193.33333 : 1"
       id="perspective3653-5-7"
       sodipodi:type="inkscape:persp3d"
       inkscape:vp_x="0 : 290 : 1"
       inkscape:vp_y="0 : 1000 : 0"
       inkscape:vp_z="580 : 290 : 1" />
  </defs>
  <sodipodi:namedview
     id="base"
     pagecolor="#ffffff"
     bordercolor="#666666"
     borderopacity="1.0"
     inkscape:pageopacity="0.0"
     inkscape:pageshadow="2"
     inkscape:zoom="7.9195959"
     inkscape:cx="20.380682"
     inkscape:cy="16.311929"
     inkscape:document-units="px"
     inkscape:current-layer="layer1"
     showgrid="false"
     inkscape:window-width="1920"
     inkscape:window-height="1017"
     inkscape:window-x="1912"
     inkscape:window-y="-8"
     inkscape:window-maximized="1" />
  <metadata
     id="metadata7">
    <rdf:RDF>
      <cc:Work
         rdf:about="">
        <dc:format>image/svg+xml</dc:format>
        <dc:type
           rdf:resource="http://purl.org/dc/dcmitype/StillImage" />
        <dc:title />
      </cc:Work>
    </rdf:RDF>
  </metadata>
  <g
     inkscape:label="Laag 1"
     inkscape:groupmode="layer"
     id="layer1"
     transform="translate(0,-1004.3622)">
    <rect
       ry="9.6995745"
       y="1005.8802"
       x="1.3561161"
       height="45.234459"
       width="44.999073"
       id="rect3435"
       style="fill:#ffffff;fill-opacity:1;stroke:#55ddff;stroke-width:0.88619024;stroke-opacity:1" />
    <rect
       style="fill:#55ddff;fill-opacity:1;stroke:none;stroke-width:0.73167545;stroke-opacity:1"
       id="rect3803"
       width="41.709263"
       height="41.236824"
       x="2.9865186"
       y="1007.6642"
       ry="8.8423662" />
    <path
       style="fill:#ffffff"
       d="m 30.434944,1046.5734 c -0.672972,-0.1434 -1.246181,-0.6601 -1.53973,-1.3877 -0.150737,-0.3737 -0.201709,-0.6434 -0.201544,-1.0667 3.32e-4,-0.6827 0.207933,-1.2708 0.617649,-1.7491 0.143623,-0.1678 0.346484,-0.3538 0.466043,-0.4274 0.846771,-0.5214 1.828034,-0.344 2.501704,0.4522 0.944482,1.1163 0.731589,3.0251 -0.430064,3.856 -0.394623,0.2823 -0.978553,0.4156 -1.414058,0.3227 z m 3.811411,-4.8024 c -0.609126,-0.6853 -1.353144,-1.149 -2.211895,-1.3785 -0.49009,-0.1311 -1.420526,-0.1321 -1.898163,0 -0.838958,0.2281 -1.5688,0.6703 -2.154796,1.3055 l -0.23192,0.2514 -0.542144,-0.6384 -0.542143,-0.6383 0.185934,-0.201 c 1.04078,-1.1245 2.150957,-1.7362 3.547708,-1.9547 0.919117,-0.1439 1.997264,0.026 2.941551,0.4648 0.752376,0.3492 1.583988,0.9971 2.127299,1.6572 l 0.166263,0.2021 -0.49894,0.5797 c -0.274417,0.3188 -0.522577,0.6007 -0.551466,0.6263 -0.04261,0.038 -0.106287,-0.014 -0.337288,-0.2737 z m 2.139537,-2.4712 c -1.080708,-1.2244 -2.322507,-2.0039 -3.780793,-2.3734 -0.652597,-0.1652 -1.664738,-0.2195 -2.396068,-0.1284 -1.047216,0.1305 -2.297124,0.6628 -3.224396,1.3732 -0.340858,0.2612 -0.827696,0.7101 -1.08454,1 l -0.250062,0.2823 -0.593364,-0.7131 c -0.32635,-0.3923 -0.593362,-0.7275 -0.593362,-0.7451 0,-0.05 0.644986,-0.7394 0.922588,-0.986 1.292535,-1.1484 2.604672,-1.8237 4.207616,-2.1658 0.410272,-0.087 0.557281,-0.097 1.488283,-0.097 1.131945,0 1.4446,0.042 2.343722,0.3156 1.523894,0.4635 2.986112,1.4407 4.144616,2.7699 l 0.307578,0.3529 -0.606435,0.7156 -0.606436,0.7155 -0.278947,-0.316 z m 2.240734,-2.3831 c -0.310767,-0.3819 -1.224097,-1.2629 -1.644389,-1.5862 -0.115468,-0.089 -0.249335,-0.193 -0.297487,-0.2316 -0.203229,-0.1626 -0.956333,-0.6343 -1.313193,-0.8225 -1.264352,-0.6668 -2.9069,-1.083 -4.272253,-1.0828 -0.71194,0 -1.683577,0.1356 -2.391669,0.3334 -0.693334,0.1937 -1.017967,0.3215 -1.93311,0.761 -0.215532,0.1029 -0.835373,0.4847 -1.103082,0.6784 -0.0963,0.069 -0.246004,0.1775 -0.332675,0.2396 -0.389007,0.2786 -1.128229,0.9721 -1.663377,1.5602 l -0.140074,0.154 -0.641253,-0.7555 -0.641251,-0.7556 0.343595,-0.3885 c 0.288097,-0.3257 0.974292,-0.9882 1.306604,-1.2614 0.678559,-0.5579 1.414191,-1.0548 2.071121,-1.3989 0.218724,-0.1149 0.444955,-0.2332 0.502734,-0.2636 0.249382,-0.1313 1.202612,-0.4896 1.649921,-0.6201 1.604837,-0.4686 3.392207,-0.5427 5.067313,-0.21 1.89501,0.3764 3.769926,1.3369 5.346628,2.7389 0.542258,0.4821 0.718583,0.6615 1.232065,1.2532 l 0.304078,0.3503 -0.630451,0.739 c -0.346745,0.4063 -0.641905,0.7389 -0.655907,0.7389 -0.014,0 -0.08775,-0.077 -0.163888,-0.1702 z m 2.050229,-2.7983 c -0.303022,-0.3598 -1.068703,-1.1405 -1.422771,-1.4505 -0.646333,-0.5663 -1.320182,-1.0547 -2.064016,-1.496 -0.337932,-0.2006 -0.452389,-0.2606 -1.084888,-0.5677 -0.685461,-0.3329 -1.918939,-0.7401 -2.642129,-0.8721 -1.071373,-0.1954 -1.119915,-0.1997 -2.2762,-0.2013 -1.14705,0 -1.173803,0 -2.241182,0.1847 -1.105778,0.1905 -2.684175,0.7958 -3.797052,1.4564 -0.803391,0.4766 -1.427567,0.9338 -2.138578,1.5662 -0.250381,0.2227 -0.487102,0.4395 -0.526044,0.4816 -0.03894,0.042 -0.188645,0.2002 -0.332675,0.3511 -0.144028,0.1511 -0.332776,0.3514 -0.419439,0.4454 -0.08666,0.094 -0.168624,0.1709 -0.182136,0.1709 -0.01352,0 -0.298413,-0.3288 -0.633111,-0.7304 l -0.608541,-0.7304 0.30042,-0.3407 c 0.42485,-0.4814 1.198637,-1.2426 1.571645,-1.5459 0.07123,-0.057 0.198296,-0.1626 0.282364,-0.2327 0.303328,-0.2532 0.821956,-0.6329 1.317924,-0.9649 0.461156,-0.3088 1.36735,-0.7999 1.972863,-1.0692 3.231553,-1.4373 6.722909,-1.5495 10.03847,-0.3226 1.124481,0.4162 2.589081,1.2092 3.449319,1.8678 0.766777,0.5869 0.962176,0.7534 1.623153,1.3819 0.467154,0.4444 1.318399,1.3804 1.318399,1.4498 0,0.051 -1.183693,1.4218 -1.23615,1.4313 -0.02312,0 -0.144454,-0.1137 -0.269645,-0.2627 z"
       id="path4205"
       inkscape:connector-curvature="0" />
    <path
       style="fill:#ffffff"
       d="m 8.2756048,1031.1925 c -0.7159129,-0.1109 -1.2669523,-0.4042 -1.5209921,-0.808 -0.1047393,-0.1664 -0.1162006,-0.2099 -0.1146827,-0.4361 0.00195,-0.2823 0.02263,-0.3592 0.1662697,-0.6163 0.1185402,-0.2124 0.3510849,-0.4143 0.6072178,-0.5274 0.1791264,-0.079 0.2014557,-0.081 0.9663403,-0.092 l 0.782977,-0.012 -0.0092,-3.8919 -0.0092,-3.8917 -0.791839,-0.015 -0.7918391,-0.015 -0.1927532,-0.091 c -0.244946,-0.1144 -0.4528788,-0.3127 -0.5939838,-0.565 -0.094531,-0.1691 -0.112914,-0.2418 -0.1250855,-0.4943 -0.013787,-0.2865 -0.010305,-0.3027 0.1068422,-0.5003 0.215939,-0.364 0.7128066,-0.6483 1.3628564,-0.7798 0.330132,-0.067 0.400298,-0.07 2.0335842,-0.07 1.666177,0 1.695994,0 1.979598,0.071 0.717682,0.1772 1.247485,0.6029 1.504724,1.2094 l 0.07761,0.1828 0.01031,4.4284 0.01031,4.4283 0.856627,0 c 0.471142,0 0.952335,0.015 1.069319,0.033 0.576,0.09 1.06792,0.4427 1.237378,0.887 0.02356,0.061 0.04285,0.2161 0.04285,0.3431 0,0.2006 -0.01489,0.2546 -0.113583,0.4114 -0.221546,0.3521 -0.6805,0.6274 -1.289246,0.7734 -0.271977,0.065 -0.309753,0.066 -3.640146,0.072 -2.6481322,0 -3.4200792,0 -3.6222952,-0.034 z m 2.9384362,-14.8218 c -0.874686,-0.1612 -1.5954262,-0.7459 -1.8560842,-1.5056 -0.09406,-0.2742 -0.09475,-0.8842 -0.0013,-1.1433 0.132105,-0.3664 0.33711,-0.6524 0.6671982,-0.9311 0.350514,-0.2958 0.532549,-0.3919 0.992232,-0.5241 0.643423,-0.1849 1.258185,-0.1427 1.922497,0.1323 0.240106,0.099 0.367809,0.1799 0.616581,0.3888 0.484387,0.4066 0.706068,0.8263 0.743091,1.4067 0.0172,0.2694 0.0077,0.3635 -0.06052,0.5945 -0.195598,0.6631 -0.660949,1.147 -1.379442,1.4347 -0.471249,0.1886 -1.109433,0.2457 -1.644246,0.1471 z"
       id="path4207"
       inkscape:connector-curvature="0" />
  </g>
</svg>
