<?xml version="1.0" encoding="UTF-8" standalone="no"?>
<!-- Created with Inkscape (http://www.inkscape.org/) -->

<svg
   xmlns:dc="http://purl.org/dc/elements/1.1/"
   xmlns:cc="http://creativecommons.org/ns#"
   xmlns:rdf="http://www.w3.org/1999/02/22-rdf-syntax-ns#"
   xmlns:svg="http://www.w3.org/2000/svg"
   xmlns="http://www.w3.org/2000/svg"
   xmlns:sodipodi="http://sodipodi.sourceforge.net/DTD/sodipodi-0.dtd"
   xmlns:inkscape="http://www.inkscape.org/namespaces/inkscape"
   width="48"
   height="48"
   id="svg2"
   version="1.1"
   inkscape:version="0.91 r13725"
   sodipodi:docname="SBI_RUBRIEK_CODE_H_VERVOER_OPSLAG.svg">
  <defs
     id="defs4">
    <filter
       color-interpolation-filters="sRGB"
       inkscape:menu-tooltip="Blur as if the object flies vertically; adjust Standard Deviation to vary force"
       inkscape:menu="Blurs"
       inkscape:label="Motion blur, vertical"
       id="filter3853">
      <feGaussianBlur
         result="fbSourceGraphic"
         stdDeviation="5 0.01"
         in="SourceGraphic"
         id="feGaussianBlur3855" />
      <feColorMatrix
         id="feColorMatrix3857"
         values="0 0 0 -1 0 0 0 0 -1 0 0 0 0 -1 0 0 0 0 1 0"
         in="fbSourceGraphic"
         result="fbSourceGraphicAlpha" />
      <feGaussianBlur
         stdDeviation="0.01 5"
         in="fbSourceGraphic"
         id="feGaussianBlur3859" />
    </filter>
    <inkscape:perspective
       inkscape:persp3d-origin="290 : 193.33333 : 1"
       id="perspective3653-9"
       sodipodi:type="inkscape:persp3d"
       inkscape:vp_x="0 : 290 : 1"
       inkscape:vp_y="0 : 1000 : 0"
       inkscape:vp_z="580 : 290 : 1" />
    <inkscape:perspective
       inkscape:persp3d-origin="290 : 193.33333 : 1"
       id="perspective3653-5-5"
       sodipodi:type="inkscape:persp3d"
       inkscape:vp_x="0 : 290 : 1"
       inkscape:vp_y="0 : 1000 : 0"
       inkscape:vp_z="580 : 290 : 1" />
    <inkscape:perspective
       inkscape:persp3d-origin="290 : 193.33333 : 1"
       id="perspective3653"
       sodipodi:type="inkscape:persp3d"
       inkscape:vp_x="0 : 290 : 1"
       inkscape:vp_y="0 : 1000 : 0"
       inkscape:vp_z="580 : 290 : 1" />
    <inkscape:perspective
       inkscape:persp3d-origin="290 : 193.33333 : 1"
       id="perspective3653-5"
       sodipodi:type="inkscape:persp3d"
       inkscape:vp_x="0 : 290 : 1"
       inkscape:vp_y="0 : 1000 : 0"
       inkscape:vp_z="580 : 290 : 1" />
    <filter
       color-interpolation-filters="sRGB"
       inkscape:menu-tooltip="Blur as if the object flies vertically; adjust Standard Deviation to vary force"
       inkscape:menu="Blurs"
       inkscape:label="Motion blur, vertical"
       id="filter3853-0">
      <feGaussianBlur
         result="fbSourceGraphic"
         stdDeviation="5 0.01"
         in="SourceGraphic"
         id="feGaussianBlur3855-21" />
      <feColorMatrix
         id="feColorMatrix3857-0"
         values="0 0 0 -1 0 0 0 0 -1 0 0 0 0 -1 0 0 0 0 1 0"
         in="fbSourceGraphic"
         result="fbSourceGraphicAlpha" />
      <feGaussianBlur
         stdDeviation="0.01 5"
         in="fbSourceGraphic"
         id="feGaussianBlur3859-0" />
    </filter>
    <inkscape:perspective
       inkscape:persp3d-origin="290 : 193.33333 : 1"
       id="perspective3653-9-4"
       sodipodi:type="inkscape:persp3d"
       inkscape:vp_x="0 : 290 : 1"
       inkscape:vp_y="0 : 1000 : 0"
       inkscape:vp_z="580 : 290 : 1" />
    <inkscape:perspective
       inkscape:persp3d-origin="290 : 193.33333 : 1"
       id="perspective3653-5-5-2"
       sodipodi:type="inkscape:persp3d"
       inkscape:vp_x="0 : 290 : 1"
       inkscape:vp_y="0 : 1000 : 0"
       inkscape:vp_z="580 : 290 : 1" />
    <inkscape:perspective
       inkscape:persp3d-origin="290 : 193.33333 : 1"
       id="perspective3653-2"
       sodipodi:type="inkscape:persp3d"
       inkscape:vp_x="0 : 290 : 1"
       inkscape:vp_y="0 : 1000 : 0"
       inkscape:vp_z="580 : 290 : 1" />
    <inkscape:perspective
       inkscape:persp3d-origin="290 : 193.33333 : 1"
       id="perspective3653-5-4"
       sodipodi:type="inkscape:persp3d"
       inkscape:vp_x="0 : 290 : 1"
       inkscape:vp_y="0 : 1000 : 0"
       inkscape:vp_z="580 : 290 : 1" />
    <filter
       color-interpolation-filters="sRGB"
       inkscape:menu-tooltip="Blur as if the object flies vertically; adjust Standard Deviation to vary force"
       inkscape:menu="Blurs"
       inkscape:label="Motion blur, vertical"
       id="filter3853-3">
      <feGaussianBlur
         result="fbSourceGraphic"
         stdDeviation="5 0.01"
         in="SourceGraphic"
         id="feGaussianBlur3855-2" />
      <feColorMatrix
         id="feColorMatrix3857-2"
         values="0 0 0 -1 0 0 0 0 -1 0 0 0 0 -1 0 0 0 0 1 0"
         in="fbSourceGraphic"
         result="fbSourceGraphicAlpha" />
      <feGaussianBlur
         stdDeviation="0.01 5"
         in="fbSourceGraphic"
         id="feGaussianBlur3859-5" />
    </filter>
    <inkscape:perspective
       inkscape:persp3d-origin="290 : 193.33333 : 1"
       id="perspective3653-9-8"
       sodipodi:type="inkscape:persp3d"
       inkscape:vp_x="0 : 290 : 1"
       inkscape:vp_y="0 : 1000 : 0"
       inkscape:vp_z="580 : 290 : 1" />
    <inkscape:perspective
       inkscape:persp3d-origin="290 : 193.33333 : 1"
       id="perspective3653-5-5-7"
       sodipodi:type="inkscape:persp3d"
       inkscape:vp_x="0 : 290 : 1"
       inkscape:vp_y="0 : 1000 : 0"
       inkscape:vp_z="580 : 290 : 1" />
    <inkscape:perspective
       inkscape:persp3d-origin="290 : 193.33333 : 1"
       id="perspective3653-54"
       sodipodi:type="inkscape:persp3d"
       inkscape:vp_x="0 : 290 : 1"
       inkscape:vp_y="0 : 1000 : 0"
       inkscape:vp_z="580 : 290 : 1" />
    <inkscape:perspective
       inkscape:persp3d-origin="290 : 193.33333 : 1"
       id="perspective3653-5-0"
       sodipodi:type="inkscape:persp3d"
       inkscape:vp_x="0 : 290 : 1"
       inkscape:vp_y="0 : 1000 : 0"
       inkscape:vp_z="580 : 290 : 1" />
    <filter
       color-interpolation-filters="sRGB"
       inkscape:menu-tooltip="Blur as if the object flies vertically; adjust Standard Deviation to vary force"
       inkscape:menu="Blurs"
       inkscape:label="Motion blur, vertical"
       id="filter3853-5">
      <feGaussianBlur
         result="fbSourceGraphic"
         stdDeviation="5 0.01"
         in="SourceGraphic"
         id="feGaussianBlur3855-0" />
      <feColorMatrix
         id="feColorMatrix3857-29"
         values="0 0 0 -1 0 0 0 0 -1 0 0 0 0 -1 0 0 0 0 1 0"
         in="fbSourceGraphic"
         result="fbSourceGraphicAlpha" />
      <feGaussianBlur
         stdDeviation="0.01 5"
         in="fbSourceGraphic"
         id="feGaussianBlur3859-08" />
    </filter>
    <inkscape:perspective
       inkscape:persp3d-origin="290 : 193.33333 : 1"
       id="perspective3653-9-9"
       sodipodi:type="inkscape:persp3d"
       inkscape:vp_x="0 : 290 : 1"
       inkscape:vp_y="0 : 1000 : 0"
       inkscape:vp_z="580 : 290 : 1" />
    <inkscape:perspective
       inkscape:persp3d-origin="290 : 193.33333 : 1"
       id="perspective3653-5-5-4"
       sodipodi:type="inkscape:persp3d"
       inkscape:vp_x="0 : 290 : 1"
       inkscape:vp_y="0 : 1000 : 0"
       inkscape:vp_z="580 : 290 : 1" />
    <inkscape:perspective
       inkscape:persp3d-origin="290 : 193.33333 : 1"
       id="perspective3653-4"
       sodipodi:type="inkscape:persp3d"
       inkscape:vp_x="0 : 290 : 1"
       inkscape:vp_y="0 : 1000 : 0"
       inkscape:vp_z="580 : 290 : 1" />
    <inkscape:perspective
       inkscape:persp3d-origin="290 : 193.33333 : 1"
       id="perspective3653-5-6"
       sodipodi:type="inkscape:persp3d"
       inkscape:vp_x="0 : 290 : 1"
       inkscape:vp_y="0 : 1000 : 0"
       inkscape:vp_z="580 : 290 : 1" />
    <filter
       color-interpolation-filters="sRGB"
       inkscape:menu-tooltip="Blur as if the object flies vertically; adjust Standard Deviation to vary force"
       inkscape:menu="Blurs"
       inkscape:label="Motion blur, vertical"
       id="filter3853-9">
      <feGaussianBlur
         result="fbSourceGraphic"
         stdDeviation="5 0.01"
         in="SourceGraphic"
         id="feGaussianBlur3855-20" />
      <feColorMatrix
         id="feColorMatrix3857-8"
         values="0 0 0 -1 0 0 0 0 -1 0 0 0 0 -1 0 0 0 0 1 0"
         in="fbSourceGraphic"
         result="fbSourceGraphicAlpha" />
      <feGaussianBlur
         stdDeviation="0.01 5"
         in="fbSourceGraphic"
         id="feGaussianBlur3859-4" />
    </filter>
    <inkscape:perspective
       inkscape:persp3d-origin="290 : 193.33333 : 1"
       id="perspective3653-9-41"
       sodipodi:type="inkscape:persp3d"
       inkscape:vp_x="0 : 290 : 1"
       inkscape:vp_y="0 : 1000 : 0"
       inkscape:vp_z="580 : 290 : 1" />
    <inkscape:perspective
       inkscape:persp3d-origin="290 : 193.33333 : 1"
       id="perspective3653-5-5-8"
       sodipodi:type="inkscape:persp3d"
       inkscape:vp_x="0 : 290 : 1"
       inkscape:vp_y="0 : 1000 : 0"
       inkscape:vp_z="580 : 290 : 1" />
    <inkscape:perspective
       inkscape:persp3d-origin="290 : 193.33333 : 1"
       id="perspective3653-91"
       sodipodi:type="inkscape:persp3d"
       inkscape:vp_x="0 : 290 : 1"
       inkscape:vp_y="0 : 1000 : 0"
       inkscape:vp_z="580 : 290 : 1" />
    <inkscape:perspective
       inkscape:persp3d-origin="290 : 193.33333 : 1"
       id="perspective3653-5-05"
       sodipodi:type="inkscape:persp3d"
       inkscape:vp_x="0 : 290 : 1"
       inkscape:vp_y="0 : 1000 : 0"
       inkscape:vp_z="580 : 290 : 1" />
    <filter
       color-interpolation-filters="sRGB"
       inkscape:menu-tooltip="Blur as if the object flies vertically; adjust Standard Deviation to vary force"
       inkscape:menu="Blurs"
       inkscape:label="Motion blur, vertical"
       id="filter3853-53">
      <feGaussianBlur
         result="fbSourceGraphic"
         stdDeviation="5 0.01"
         in="SourceGraphic"
         id="feGaussianBlur3855-8" />
      <feColorMatrix
         id="feColorMatrix3857-6"
         values="0 0 0 -1 0 0 0 0 -1 0 0 0 0 -1 0 0 0 0 1 0"
         in="fbSourceGraphic"
         result="fbSourceGraphicAlpha" />
      <feGaussianBlur
         stdDeviation="0.01 5"
         in="fbSourceGraphic"
         id="feGaussianBlur3859-3" />
    </filter>
    <inkscape:perspective
       inkscape:persp3d-origin="290 : 193.33333 : 1"
       id="perspective3653-9-2"
       sodipodi:type="inkscape:persp3d"
       inkscape:vp_x="0 : 290 : 1"
       inkscape:vp_y="0 : 1000 : 0"
       inkscape:vp_z="580 : 290 : 1" />
    <inkscape:perspective
       inkscape:persp3d-origin="290 : 193.33333 : 1"
       id="perspective3653-5-5-3"
       sodipodi:type="inkscape:persp3d"
       inkscape:vp_x="0 : 290 : 1"
       inkscape:vp_y="0 : 1000 : 0"
       inkscape:vp_z="580 : 290 : 1" />
    <inkscape:perspective
       inkscape:persp3d-origin="290 : 193.33333 : 1"
       id="perspective3653-1"
       sodipodi:type="inkscape:persp3d"
       inkscape:vp_x="0 : 290 : 1"
       inkscape:vp_y="0 : 1000 : 0"
       inkscape:vp_z="580 : 290 : 1" />
    <inkscape:perspective
       inkscape:persp3d-origin="290 : 193.33333 : 1"
       id="perspective3653-5-7"
       sodipodi:type="inkscape:persp3d"
       inkscape:vp_x="0 : 290 : 1"
       inkscape:vp_y="0 : 1000 : 0"
       inkscape:vp_z="580 : 290 : 1" />
  </defs>
  <sodipodi:namedview
     id="base"
     pagecolor="#ffffff"
     bordercolor="#666666"
     borderopacity="1.0"
     inkscape:pageopacity="0.0"
     inkscape:pageshadow="2"
     inkscape:zoom="11.2"
     inkscape:cx="28.37926"
     inkscape:cy="9.8796037"
     inkscape:document-units="px"
     inkscape:current-layer="layer1"
     showgrid="false"
     inkscape:window-width="1920"
     inkscape:window-height="1017"
     inkscape:window-x="1912"
     inkscape:window-y="-8"
     inkscape:window-maximized="1" />
  <metadata
     id="metadata7">
    <rdf:RDF>
      <cc:Work
         rdf:about="">
        <dc:format>image/svg+xml</dc:format>
        <dc:type
           rdf:resource="http://purl.org/dc/dcmitype/StillImage" />
        <dc:title />
      </cc:Work>
    </rdf:RDF>
  </metadata>
  <g
     inkscape:label="Laag 1"
     inkscape:groupmode="layer"
     id="layer1"
     transform="translate(0,-1004.3622)">
    <rect
       ry="9.6995745"
       y="1005.8802"
       x="1.3561161"
       height="45.234459"
       width="44.999073"
       id="rect3435"
       style="fill:#ffffff;fill-opacity:1;stroke:#ff7f2a;stroke-width:0.88619024;stroke-opacity:1" />
    <rect
       style="fill:#ff7f2a;fill-opacity:1;stroke:none;stroke-width:0.73167545;stroke-opacity:1"
       id="rect3803"
       width="41.709263"
       height="41.236824"
       x="2.9865186"
       y="1007.6642"
       ry="8.8423662" />
    <path
       style="fill:#ffffff;fill-opacity:1"
       d="m 15.885394,1042.3736 c -1.148692,-0.2073 -2.104534,-1.0845 -2.574872,-2.363 -0.155648,-0.4231 -0.171201,-0.5378 -0.171201,-1.2631 0,-0.7262 0.01539,-0.8395 0.171747,-1.2631 0.226703,-0.6143 0.40521,-0.9209 0.776737,-1.3339 0.373997,-0.4159 0.651323,-0.6147 1.199691,-0.8599 0.368293,-0.1647 0.497468,-0.1876 1.076214,-0.1901 1.007858,0 1.714307,0.3086 2.38826,1.058 0.651057,0.7239 0.950828,1.5454 0.947463,2.5964 -0.0036,1.066 -0.326144,1.9097 -1.011914,2.6452 -0.718963,0.7712 -1.814606,1.1519 -2.802125,0.9735 z m 1.236413,-1.9556 c 0.291827,-0.1578 0.617176,-0.5162 0.780363,-0.8599 0.180818,-0.3807 0.190249,-1.22 0.01805,-1.6062 -0.141163,-0.3165 -0.489608,-0.7167 -0.761121,-0.8741 -0.312874,-0.1813 -1.043773,-0.2043 -1.371611,-0.043 -0.640004,0.3148 -1.008203,0.9314 -1.008203,1.6883 0,0.2464 0.02842,0.5322 0.06313,0.6351 0.16314,0.4836 0.58295,0.9543 1.007688,1.1298 0.290173,0.1199 0.991889,0.081 1.271704,-0.07 z m 16.115407,1.9506 c -0.59417,-0.1035 -1.275674,-0.5092 -1.760069,-1.0478 -1.759579,-1.9565 -1.031371,-5.2267 1.358602,-6.1013 0.461216,-0.1688 1.464447,-0.1692 1.913268,0 0.55223,0.2072 0.904059,0.4357 1.274185,0.8274 0.470944,0.4984 0.674614,0.8403 0.888091,1.4907 0.153835,0.4686 0.177707,0.6323 0.176354,1.2087 -0.0024,0.9804 -0.269304,1.7493 -0.855618,2.4641 -0.755505,0.921 -1.874589,1.3541 -2.994813,1.1589 z m 1.21285,-1.931 c 0.560648,-0.2815 0.947329,-0.8691 0.999811,-1.5191 0.05616,-0.6956 -0.218764,-1.3224 -0.757261,-1.7266 -0.258844,-0.1943 -0.364233,-0.2305 -0.750732,-0.2581 -0.524887,-0.038 -0.875188,0.08 -1.209196,0.4063 -0.952878,0.9303 -0.671792,2.6732 0.506519,3.1407 0.340209,0.135 0.895519,0.1152 1.210859,-0.043 z m -28.5495342,-2.4653 c -0.303523,-0.1856 -0.326101,-0.2849 -0.327514,-1.4404 l -0.0012,-1.0854 0.174771,-0.1943 0.174771,-0.1944 3.814142,0 3.8141432,0 -0.302817,0.3491 c -0.544276,0.6273 -0.97047,1.4951 -1.103491,2.2469 l -0.07001,0.3957 -3.0265452,0 c -2.085327,0 -3.063732,-0.025 -3.146123,-0.075 z m 14.8371922,-0.039 c -0.01587,-0.064 -0.04464,-0.2218 -0.06398,-0.3502 -0.0419,-0.2783 -0.402413,-1.2205 -0.528595,-1.3814 -0.04896,-0.062 -0.123543,-0.1876 -0.165744,-0.2781 -0.0422,-0.09 -0.210995,-0.3223 -0.375096,-0.5152 l -0.298362,-0.3508 4.102963,0 4.102966,0 0.01623,-8.659 c 0.0152,-8.0993 0.02299,-8.6727 0.120816,-8.8716 0.134355,-0.2732 0.42927,-0.5194 0.732483,-0.6115 0.304642,-0.092 4.936358,-0.098 5.652182,-0.01 1.197494,0.1526 2.273444,0.8037 2.948319,1.784 0.270598,0.3931 1.12713,1.7908 2.759022,4.5021 0.999582,1.6608 1.206042,2.1195 1.343033,2.9838 0.03914,0.247 0.06253,1.9807 0.06253,4.637 l 0,4.2425 0.751966,0 c 0.751404,0 0.752101,0 0.926741,0.1943 l 0.174767,0.1943 0,1.0923 c 0,1.0628 -0.004,1.0971 -0.144376,1.2656 -0.07941,0.095 -0.207208,0.1902 -0.284002,0.2111 -0.07679,0.021 -1.107006,0.029 -2.289369,0.019 l -2.149747,-0.019 -0.07342,-0.3989 c -0.08415,-0.4572 -0.348706,-1.1351 -0.626286,-1.605 -0.569842,-0.9645 -1.493512,-1.6759 -2.59092,-1.9954 -2.298769,-0.6692 -4.69545,0.9479 -5.286679,3.5671 l -0.09754,0.4322 -4.345544,0.017 c -4.101407,0.016 -4.347159,0.01 -4.374368,-0.1 z m 16.609246,-12.6093 c 0.111392,-0.052 0.231603,-0.1545 0.267135,-0.2284 0.149145,-0.3098 0.07602,-0.4857 -0.729151,-1.7539 -0.434869,-0.685 -1.046275,-1.6526 -1.358674,-2.1502 -0.316776,-0.5047 -0.63941,-0.9462 -0.729455,-0.9984 -0.129903,-0.075 -0.577524,-0.093 -2.290881,-0.093 -2.173049,0 -2.292531,0.013 -2.463459,0.2601 -0.09708,0.1406 -0.108349,4.5358 -0.01215,4.7356 0.14928,0.3102 0.23321,0.3173 3.778908,0.3201 2.744652,0 3.371049,-0.014 3.537719,-0.091 z m -30.2851422,7.7444 -0.174771,-0.1944 0.0012,-9.1295 c 0.0012,-9.0345 0.0028,-9.1326 0.12285,-9.4286 0.147894,-0.364 0.480755,-0.7593 0.802573,-0.953 l 0.239158,-0.1439 8.4027722,0 8.402767,0 0.331982,0.2237 c 0.418793,0.2822 0.695138,0.732 0.772514,1.2573 0.0789,0.5355 0.07461,17.7904 -0.0045,18.1071 -0.123516,0.4945 0.690444,0.4556 -9.537489,0.4556 l -9.1844082,0 -0.174767,-0.1943 z"
       id="path4194"
       inkscape:connector-curvature="0" />
  </g>
</svg>
