<?xml version="1.0" encoding="UTF-8" standalone="no"?>
<!-- Created with Inkscape (http://www.inkscape.org/) -->

<svg
   xmlns:dc="http://purl.org/dc/elements/1.1/"
   xmlns:cc="http://creativecommons.org/ns#"
   xmlns:rdf="http://www.w3.org/1999/02/22-rdf-syntax-ns#"
   xmlns:svg="http://www.w3.org/2000/svg"
   xmlns="http://www.w3.org/2000/svg"
   xmlns:sodipodi="http://sodipodi.sourceforge.net/DTD/sodipodi-0.dtd"
   xmlns:inkscape="http://www.inkscape.org/namespaces/inkscape"
   width="48"
   height="48"
   viewBox="0 0 48 48"
   id="svg2"
   version="1.1"
   inkscape:version="0.91 r13725"
   sodipodi:docname="SBI_RUBRIEK_CODE_G_DETAILHANDEL.svg">
  <defs
     id="defs4">
    <filter
       color-interpolation-filters="sRGB"
       inkscape:menu-tooltip="Blur as if the object flies vertically; adjust Standard Deviation to vary force"
       inkscape:menu="Blurs"
       inkscape:label="Motion blur, vertical"
       id="filter3853">
      <feGaussianBlur
         result="fbSourceGraphic"
         stdDeviation="5 0.01"
         in="SourceGraphic"
         id="feGaussianBlur3855" />
      <feColorMatrix
         id="feColorMatrix3857"
         values="0 0 0 -1 0 0 0 0 -1 0 0 0 0 -1 0 0 0 0 1 0"
         in="fbSourceGraphic"
         result="fbSourceGraphicAlpha" />
      <feGaussianBlur
         stdDeviation="0.01 5"
         in="fbSourceGraphic"
         id="feGaussianBlur3859" />
    </filter>
    <inkscape:perspective
       inkscape:persp3d-origin="290 : 193.33333 : 1"
       id="perspective3653-9"
       sodipodi:type="inkscape:persp3d"
       inkscape:vp_x="0 : 290 : 1"
       inkscape:vp_y="0 : 1000 : 0"
       inkscape:vp_z="580 : 290 : 1" />
    <inkscape:perspective
       inkscape:persp3d-origin="290 : 193.33333 : 1"
       id="perspective3653-5-5"
       sodipodi:type="inkscape:persp3d"
       inkscape:vp_x="0 : 290 : 1"
       inkscape:vp_y="0 : 1000 : 0"
       inkscape:vp_z="580 : 290 : 1" />
    <inkscape:perspective
       inkscape:persp3d-origin="290 : 193.33333 : 1"
       id="perspective3653"
       sodipodi:type="inkscape:persp3d"
       inkscape:vp_x="0 : 290 : 1"
       inkscape:vp_y="0 : 1000 : 0"
       inkscape:vp_z="580 : 290 : 1" />
    <inkscape:perspective
       inkscape:persp3d-origin="290 : 193.33333 : 1"
       id="perspective3653-5"
       sodipodi:type="inkscape:persp3d"
       inkscape:vp_x="0 : 290 : 1"
       inkscape:vp_y="0 : 1000 : 0"
       inkscape:vp_z="580 : 290 : 1" />
    <filter
       color-interpolation-filters="sRGB"
       inkscape:menu-tooltip="Blur as if the object flies vertically; adjust Standard Deviation to vary force"
       inkscape:menu="Blurs"
       inkscape:label="Motion blur, vertical"
       id="filter3853-0">
      <feGaussianBlur
         result="fbSourceGraphic"
         stdDeviation="5 0.01"
         in="SourceGraphic"
         id="feGaussianBlur3855-21" />
      <feColorMatrix
         id="feColorMatrix3857-0"
         values="0 0 0 -1 0 0 0 0 -1 0 0 0 0 -1 0 0 0 0 1 0"
         in="fbSourceGraphic"
         result="fbSourceGraphicAlpha" />
      <feGaussianBlur
         stdDeviation="0.01 5"
         in="fbSourceGraphic"
         id="feGaussianBlur3859-0" />
    </filter>
    <inkscape:perspective
       inkscape:persp3d-origin="290 : 193.33333 : 1"
       id="perspective3653-9-4"
       sodipodi:type="inkscape:persp3d"
       inkscape:vp_x="0 : 290 : 1"
       inkscape:vp_y="0 : 1000 : 0"
       inkscape:vp_z="580 : 290 : 1" />
    <inkscape:perspective
       inkscape:persp3d-origin="290 : 193.33333 : 1"
       id="perspective3653-5-5-2"
       sodipodi:type="inkscape:persp3d"
       inkscape:vp_x="0 : 290 : 1"
       inkscape:vp_y="0 : 1000 : 0"
       inkscape:vp_z="580 : 290 : 1" />
    <inkscape:perspective
       inkscape:persp3d-origin="290 : 193.33333 : 1"
       id="perspective3653-2"
       sodipodi:type="inkscape:persp3d"
       inkscape:vp_x="0 : 290 : 1"
       inkscape:vp_y="0 : 1000 : 0"
       inkscape:vp_z="580 : 290 : 1" />
    <inkscape:perspective
       inkscape:persp3d-origin="290 : 193.33333 : 1"
       id="perspective3653-5-4"
       sodipodi:type="inkscape:persp3d"
       inkscape:vp_x="0 : 290 : 1"
       inkscape:vp_y="0 : 1000 : 0"
       inkscape:vp_z="580 : 290 : 1" />
    <filter
       color-interpolation-filters="sRGB"
       inkscape:menu-tooltip="Blur as if the object flies vertically; adjust Standard Deviation to vary force"
       inkscape:menu="Blurs"
       inkscape:label="Motion blur, vertical"
       id="filter3853-3">
      <feGaussianBlur
         result="fbSourceGraphic"
         stdDeviation="5 0.01"
         in="SourceGraphic"
         id="feGaussianBlur3855-2" />
      <feColorMatrix
         id="feColorMatrix3857-2"
         values="0 0 0 -1 0 0 0 0 -1 0 0 0 0 -1 0 0 0 0 1 0"
         in="fbSourceGraphic"
         result="fbSourceGraphicAlpha" />
      <feGaussianBlur
         stdDeviation="0.01 5"
         in="fbSourceGraphic"
         id="feGaussianBlur3859-5" />
    </filter>
    <inkscape:perspective
       inkscape:persp3d-origin="290 : 193.33333 : 1"
       id="perspective3653-9-8"
       sodipodi:type="inkscape:persp3d"
       inkscape:vp_x="0 : 290 : 1"
       inkscape:vp_y="0 : 1000 : 0"
       inkscape:vp_z="580 : 290 : 1" />
    <inkscape:perspective
       inkscape:persp3d-origin="290 : 193.33333 : 1"
       id="perspective3653-5-5-7"
       sodipodi:type="inkscape:persp3d"
       inkscape:vp_x="0 : 290 : 1"
       inkscape:vp_y="0 : 1000 : 0"
       inkscape:vp_z="580 : 290 : 1" />
    <inkscape:perspective
       inkscape:persp3d-origin="290 : 193.33333 : 1"
       id="perspective3653-54"
       sodipodi:type="inkscape:persp3d"
       inkscape:vp_x="0 : 290 : 1"
       inkscape:vp_y="0 : 1000 : 0"
       inkscape:vp_z="580 : 290 : 1" />
    <inkscape:perspective
       inkscape:persp3d-origin="290 : 193.33333 : 1"
       id="perspective3653-5-0"
       sodipodi:type="inkscape:persp3d"
       inkscape:vp_x="0 : 290 : 1"
       inkscape:vp_y="0 : 1000 : 0"
       inkscape:vp_z="580 : 290 : 1" />
    <filter
       color-interpolation-filters="sRGB"
       inkscape:menu-tooltip="Blur as if the object flies vertically; adjust Standard Deviation to vary force"
       inkscape:menu="Blurs"
       inkscape:label="Motion blur, vertical"
       id="filter3853-5">
      <feGaussianBlur
         result="fbSourceGraphic"
         stdDeviation="5 0.01"
         in="SourceGraphic"
         id="feGaussianBlur3855-0" />
      <feColorMatrix
         id="feColorMatrix3857-29"
         values="0 0 0 -1 0 0 0 0 -1 0 0 0 0 -1 0 0 0 0 1 0"
         in="fbSourceGraphic"
         result="fbSourceGraphicAlpha" />
      <feGaussianBlur
         stdDeviation="0.01 5"
         in="fbSourceGraphic"
         id="feGaussianBlur3859-08" />
    </filter>
    <inkscape:perspective
       inkscape:persp3d-origin="290 : 193.33333 : 1"
       id="perspective3653-9-9"
       sodipodi:type="inkscape:persp3d"
       inkscape:vp_x="0 : 290 : 1"
       inkscape:vp_y="0 : 1000 : 0"
       inkscape:vp_z="580 : 290 : 1" />
    <inkscape:perspective
       inkscape:persp3d-origin="290 : 193.33333 : 1"
       id="perspective3653-5-5-4"
       sodipodi:type="inkscape:persp3d"
       inkscape:vp_x="0 : 290 : 1"
       inkscape:vp_y="0 : 1000 : 0"
       inkscape:vp_z="580 : 290 : 1" />
    <inkscape:perspective
       inkscape:persp3d-origin="290 : 193.33333 : 1"
       id="perspective3653-4"
       sodipodi:type="inkscape:persp3d"
       inkscape:vp_x="0 : 290 : 1"
       inkscape:vp_y="0 : 1000 : 0"
       inkscape:vp_z="580 : 290 : 1" />
    <inkscape:perspective
       inkscape:persp3d-origin="290 : 193.33333 : 1"
       id="perspective3653-5-6"
       sodipodi:type="inkscape:persp3d"
       inkscape:vp_x="0 : 290 : 1"
       inkscape:vp_y="0 : 1000 : 0"
       inkscape:vp_z="580 : 290 : 1" />
    <filter
       color-interpolation-filters="sRGB"
       inkscape:menu-tooltip="Blur as if the object flies vertically; adjust Standard Deviation to vary force"
       inkscape:menu="Blurs"
       inkscape:label="Motion blur, vertical"
       id="filter3853-9">
      <feGaussianBlur
         result="fbSourceGraphic"
         stdDeviation="5 0.01"
         in="SourceGraphic"
         id="feGaussianBlur3855-20" />
      <feColorMatrix
         id="feColorMatrix3857-8"
         values="0 0 0 -1 0 0 0 0 -1 0 0 0 0 -1 0 0 0 0 1 0"
         in="fbSourceGraphic"
         result="fbSourceGraphicAlpha" />
      <feGaussianBlur
         stdDeviation="0.01 5"
         in="fbSourceGraphic"
         id="feGaussianBlur3859-4" />
    </filter>
    <inkscape:perspective
       inkscape:persp3d-origin="290 : 193.33333 : 1"
       id="perspective3653-9-41"
       sodipodi:type="inkscape:persp3d"
       inkscape:vp_x="0 : 290 : 1"
       inkscape:vp_y="0 : 1000 : 0"
       inkscape:vp_z="580 : 290 : 1" />
    <inkscape:perspective
       inkscape:persp3d-origin="290 : 193.33333 : 1"
       id="perspective3653-5-5-8"
       sodipodi:type="inkscape:persp3d"
       inkscape:vp_x="0 : 290 : 1"
       inkscape:vp_y="0 : 1000 : 0"
       inkscape:vp_z="580 : 290 : 1" />
    <inkscape:perspective
       inkscape:persp3d-origin="290 : 193.33333 : 1"
       id="perspective3653-91"
       sodipodi:type="inkscape:persp3d"
       inkscape:vp_x="0 : 290 : 1"
       inkscape:vp_y="0 : 1000 : 0"
       inkscape:vp_z="580 : 290 : 1" />
    <inkscape:perspective
       inkscape:persp3d-origin="290 : 193.33333 : 1"
       id="perspective3653-5-05"
       sodipodi:type="inkscape:persp3d"
       inkscape:vp_x="0 : 290 : 1"
       inkscape:vp_y="0 : 1000 : 0"
       inkscape:vp_z="580 : 290 : 1" />
    <filter
       color-interpolation-filters="sRGB"
       inkscape:menu-tooltip="Blur as if the object flies vertically; adjust Standard Deviation to vary force"
       inkscape:menu="Blurs"
       inkscape:label="Motion blur, vertical"
       id="filter3853-53">
      <feGaussianBlur
         result="fbSourceGraphic"
         stdDeviation="5 0.01"
         in="SourceGraphic"
         id="feGaussianBlur3855-8" />
      <feColorMatrix
         id="feColorMatrix3857-6"
         values="0 0 0 -1 0 0 0 0 -1 0 0 0 0 -1 0 0 0 0 1 0"
         in="fbSourceGraphic"
         result="fbSourceGraphicAlpha" />
      <feGaussianBlur
         stdDeviation="0.01 5"
         in="fbSourceGraphic"
         id="feGaussianBlur3859-3" />
    </filter>
    <inkscape:perspective
       inkscape:persp3d-origin="290 : 193.33333 : 1"
       id="perspective3653-9-2"
       sodipodi:type="inkscape:persp3d"
       inkscape:vp_x="0 : 290 : 1"
       inkscape:vp_y="0 : 1000 : 0"
       inkscape:vp_z="580 : 290 : 1" />
    <inkscape:perspective
       inkscape:persp3d-origin="290 : 193.33333 : 1"
       id="perspective3653-5-5-3"
       sodipodi:type="inkscape:persp3d"
       inkscape:vp_x="0 : 290 : 1"
       inkscape:vp_y="0 : 1000 : 0"
       inkscape:vp_z="580 : 290 : 1" />
    <inkscape:perspective
       inkscape:persp3d-origin="290 : 193.33333 : 1"
       id="perspective3653-1"
       sodipodi:type="inkscape:persp3d"
       inkscape:vp_x="0 : 290 : 1"
       inkscape:vp_y="0 : 1000 : 0"
       inkscape:vp_z="580 : 290 : 1" />
    <inkscape:perspective
       inkscape:persp3d-origin="290 : 193.33333 : 1"
       id="perspective3653-5-7"
       sodipodi:type="inkscape:persp3d"
       inkscape:vp_x="0 : 290 : 1"
       inkscape:vp_y="0 : 1000 : 0"
       inkscape:vp_z="580 : 290 : 1" />
  </defs>
  <sodipodi:namedview
     id="base"
     pagecolor="#ffffff"
     bordercolor="#666666"
     borderopacity="1.0"
     inkscape:pageopacity="0.0"
     inkscape:pageshadow="2"
     inkscape:zoom="11.2"
     inkscape:cx="21.383605"
     inkscape:cy="33.957175"
     inkscape:document-units="px"
     inkscape:current-layer="layer1"
     showgrid="false"
     inkscape:window-width="1920"
     inkscape:window-height="1017"
     inkscape:window-x="1912"
     inkscape:window-y="-8"
     inkscape:window-maximized="1" />
  <metadata
     id="metadata7">
    <rdf:RDF>
      <cc:Work
         rdf:about="">
        <dc:format>image/svg+xml</dc:format>
        <dc:type
           rdf:resource="http://purl.org/dc/dcmitype/StillImage" />
        <dc:title />
      </cc:Work>
    </rdf:RDF>
  </metadata>
  <g
     inkscape:label="Laag 1"
     inkscape:groupmode="layer"
     id="layer1"
     transform="translate(0,-1004.3622)">
    <rect
       ry="9.6995745"
       y="1005.8802"
       x="1.3561161"
       height="45.234459"
       width="44.999073"
       id="rect3435"
       style="fill:#ffffff;fill-opacity:1;stroke:#80ff80;stroke-width:0.88619024;stroke-opacity:1" />
    <rect
       style="fill:#80ff80;fill-opacity:1;stroke:none;stroke-width:0.73167545;stroke-opacity:1"
       id="rect3803"
       width="41.709263"
       height="41.236824"
       x="2.9865186"
       y="1007.6642"
       ry="8.8423662" />
    <path
       style="fill:#ffffff"
       d="m 8.5080396,1026.3395 c -0.1584001,-0.054 -0.4240594,-0.2648 -0.5380812,-0.4266 -0.1918798,-0.2724 -0.2347991,-0.5082 -0.2347991,-1.2901 0,-0.8856 0.047707,-1.0775 0.3495663,-1.4046 0.1845568,-0.2002 0.3422075,-0.2822 0.6681686,-0.3484 l 0.1764804,-0.035 -0.1143005,-0.147 c -0.2764927,-0.3556 -0.2614531,-0.054 -0.2614531,-5.2411 l 0,-4.7433 -0.2521608,0 c -0.4286265,0 -0.7329632,-0.2149 -0.8923834,-0.6303 -0.1983806,-0.5168 -0.0087,-1.1008 0.4380342,-1.3487 0.1675421,-0.093 0.3301524,-0.1015 2.005578,-0.1015 1.195456,0 1.886034,0.02 2.005579,0.06 0.113045,0.037 0.262406,0.1572 0.393075,0.3148 0.290107,0.3498 0.313436,0.5198 0.313436,2.2845 l 0,1.4497 1.376092,0 c 0.836509,0 1.484405,0.024 1.652323,0.062 1.040754,0.235 1.394634,0.3616 2.178494,0.7794 l 0.170172,0.091 0.118003,-0.2248 c 0.06489,-0.1236 0.111393,-0.2304 0.103316,-0.2374 -0.0081,-0.011 -0.09673,-0.07 -0.197011,-0.1403 -0.240214,-0.168 -0.296279,-0.2589 -0.296279,-0.48 0,-0.2093 0.179642,-0.4527 0.334055,-0.4527 0.130336,0 1.251284,0.7519 1.306773,0.8766 0.127966,0.2875 -0.05084,0.6579 -0.317588,0.6579 -0.07673,0 -0.254018,-0.077 -0.393974,-0.1727 -0.276008,-0.1873 -0.26245,-0.192 -0.412773,0.1429 -0.05561,0.1238 -0.05932,0.1673 -0.01576,0.1848 0.150581,0.061 0.882458,0.6991 1.198066,1.0455 0.194782,0.2139 0.36913,0.3878 0.387439,0.3865 0.01831,0 0.124665,-0.098 0.236343,-0.2167 l 0.20305,-0.2143 -0.150631,-0.2254 c -0.242632,-0.3631 -0.184242,-0.7671 0.120997,-0.8372 0.06618,-0.015 0.163663,-0.011 0.216645,0.016 0.134197,0.062 0.887108,1.1191 0.932732,1.3103 0.07144,0.2995 -0.1732,0.6084 -0.422308,0.5333 -0.107615,-0.033 -0.347298,-0.2961 -0.504781,-0.555 -0.05127,-0.085 -0.0774,-0.07 -0.276979,0.1468 l -0.220372,0.2399 0.318161,0.4768 c 0.174987,0.2622 0.416174,0.6867 0.535969,0.9433 0.119794,0.2566 0.243035,0.4667 0.27387,0.4667 0.03083,0 0.122538,-0.028 0.203789,-0.062 0.128776,-0.054 0.144084,-0.081 0.119321,-0.2056 -0.08373,-0.4233 -0.07983,-0.5809 0.01738,-0.7047 0.133245,-0.1695 0.285909,-0.2038 0.451003,-0.1015 0.124836,0.077 0.160451,0.165 0.347662,0.8537 0.218479,0.8038 0.226891,0.9532 0.06368,1.1308 -0.113647,0.1236 -0.373466,0.1252 -0.485767,0 -0.04754,-0.052 -0.123894,-0.2428 -0.169678,-0.4247 -0.04578,-0.1817 -0.100609,-0.3434 -0.121838,-0.3593 -0.02122,-0.015 -0.111805,0 -0.201283,0.035 -0.120254,0.048 -0.155939,0.088 -0.136815,0.1546 0.01424,0.049 0.111195,0.386 0.215483,0.7477 0.202953,0.7039 0.355526,1.6101 0.357856,2.1254 9.46e-4,0.2055 0.02147,0.3236 0.05842,0.3361 0.377813,0.1275 0.489445,0.1943 0.65381,0.3912 0.263548,0.316 0.337584,0.6176 0.337584,1.375 0,0.7565 -0.09253,1.1151 -0.363884,1.4098 -0.354649,0.3852 0.06768,0.3642 -7.176704,0.3586 -4.173669,0 -6.5786844,-0.024 -6.6807883,-0.06 z m 0.9100234,-4.8644 c 0.06531,-0.1467 0.06531,-7.8619 0,-8.0087 -0.052748,-0.1184 -0.2246108,-0.1408 -0.3083497,-0.04 -0.079152,0.095 -0.079152,7.9939 0,8.0891 0.083739,0.1006 0.2556069,0.079 0.3083497,-0.04 z m 10.185777,-2.0626 c 0.112488,-0.1353 0.08767,-0.2459 -0.154883,-0.6901 -0.74083,-1.3568 -2.056663,-2.4281 -3.447195,-2.8064 -0.31419,-0.086 -0.428615,-0.045 -0.428615,0.1533 0,0.1734 0.06452,0.2256 0.410232,0.3318 1.337286,0.4109 2.621467,1.4955 3.196401,2.6994 0.183329,0.384 0.295534,0.4664 0.42406,0.312 z"
       id="path4194"
       inkscape:connector-curvature="0" />
    <path
       style="fill:#ffffff"
       d="m 24.804254,1045.5083 c -0.09049,-0.019 -0.263718,-0.082 -0.384959,-0.141 -0.392631,-0.1897 -0.694361,-0.5436 -0.845419,-0.9917 l -0.06074,-0.1802 -0.0083,-0.9813 -0.0083,-0.9812 -0.833451,0 -0.833451,0 0.0068,-2.8967 0.0068,-2.8968 0.06323,-0.2298 c 0.07001,-0.2544 0.224949,-0.5998 0.36295,-0.809 0.128652,-0.195 0.453026,-0.5244 0.650216,-0.6602 0.204037,-0.1406 0.369303,-0.226 0.603607,-0.3116 l 0.176239,-0.064 0.987853,-2.3469 c 0.543319,-1.2907 1.024013,-2.41 1.068208,-2.4871 0.104903,-0.1832 0.386851,-0.4766 0.57681,-0.6004 0.08288,-0.054 0.225569,-0.1286 0.317078,-0.1659 0.364235,-0.1482 0.04141,-0.1407 5.722912,-0.1337 l 5.170432,0.01 0.172246,0.053 c 0.46925,0.1454 0.866848,0.4482 1.09847,0.8365 0.04726,0.079 0.528157,1.1964 1.068658,2.4826 0.540501,1.2862 0.996753,2.3462 1.013889,2.3557 0.01713,0.01 0.116593,0.049 0.22101,0.088 0.433896,0.1625 0.895959,0.5231 1.160253,0.9055 0.163228,0.2361 0.318735,0.5703 0.395969,0.851 l 0.06323,0.2298 0.0068,2.8967 0.0068,2.8968 -0.846812,0 -0.846813,0 0,0.9481 c 0,0.86 -0.0042,0.9646 -0.0454,1.1256 -0.142729,0.5581 -0.5683,1 -1.129743,1.1732 -0.251414,0.078 -0.665201,0.078 -0.916615,0 -0.561443,-0.1732 -0.987014,-0.6151 -1.129743,-1.1732 -0.04118,-0.161 -0.0454,-0.2656 -0.0454,-1.1256 l 0,-0.9481 -5.498077,0 -5.498076,0 -0.0083,0.9812 -0.0083,0.9812 -0.06074,0.1802 c -0.09636,0.2859 -0.217602,0.4805 -0.431811,0.6933 -0.158536,0.1575 -0.23269,0.211 -0.413608,0.2983 -0.356016,0.1717 -0.703065,0.2177 -1.066544,0.1412 z m 0.604044,-6.7091 c 0.368372,-0.076 0.760127,-0.3858 0.923416,-0.7297 0.199429,-0.4199 0.197764,-0.8379 -0.0049,-1.2423 -0.109585,-0.2186 -0.354894,-0.4723 -0.563262,-0.5824 -0.689704,-0.3645 -1.517509,-0.1084 -1.886325,0.5836 -0.161818,0.3036 -0.194754,0.7149 -0.08384,1.047 0.148474,0.4446 0.493637,0.777 0.940408,0.9056 0.16381,0.047 0.491829,0.056 0.674552,0.018 z m 14.293424,-0.011 c 0.483766,-0.1248 0.868305,-0.5127 0.993729,-1.0022 0.04983,-0.1945 0.0346,-0.59 -0.02976,-0.7733 -0.14117,-0.4018 -0.467589,-0.7248 -0.878312,-0.8691 -0.126637,-0.045 -0.201014,-0.054 -0.434804,-0.053 -0.245329,2e-4 -0.302656,0.01 -0.440481,0.06 -0.46364,0.176 -0.793801,0.5413 -0.90128,0.9971 -0.07141,0.3029 -0.01409,0.7186 0.133912,0.9712 0.195445,0.3334 0.503303,0.5729 0.864694,0.6726 0.155463,0.043 0.52018,0.041 0.692305,0 z m -0.50192,-4.5335 c 0,-0.019 -1.625418,-3.9217 -1.670877,-4.0115 -0.05463,-0.1079 -0.185017,-0.2167 -0.301542,-0.2516 -0.124136,-0.037 -9.748673,-0.038 -9.882521,0 -0.05105,0.014 -0.136738,0.069 -0.193241,0.1233 -0.104202,0.1003 -0.188217,0.2945 -1.697455,3.9228 l -0.09532,0.2292 6.920477,0 c 3.806262,0 6.920477,-0.01 6.920477,-0.011 z"
       id="path4207"
       inkscape:connector-curvature="0" />
    <path
       style="fill:#ffffff;fill-rule:evenodd;stroke:#ffffff;stroke-width:1px;stroke-linecap:butt;stroke-linejoin:miter;stroke-opacity:1"
       d="M 7.6785714,1045.2193 40.267857,1011.3801"
       id="path4213"
       inkscape:connector-curvature="0" />
  </g>
</svg>
