<?xml version="1.0" encoding="UTF-8" standalone="no"?>
<!-- Created with Inkscape (http://www.inkscape.org/) -->

<svg
   xmlns:dc="http://purl.org/dc/elements/1.1/"
   xmlns:cc="http://creativecommons.org/ns#"
   xmlns:rdf="http://www.w3.org/1999/02/22-rdf-syntax-ns#"
   xmlns:svg="http://www.w3.org/2000/svg"
   xmlns="http://www.w3.org/2000/svg"
   xmlns:sodipodi="http://sodipodi.sourceforge.net/DTD/sodipodi-0.dtd"
   xmlns:inkscape="http://www.inkscape.org/namespaces/inkscape"
   width="48"
   height="48"
   id="svg2"
   version="1.1"
   inkscape:version="0.91 r13725"
   sodipodi:docname="SBI_RUBRIEK_CODE_E_DISTRIBUTIE_WATER_AFVAL.svg">
  <defs
     id="defs4">
    <filter
       color-interpolation-filters="sRGB"
       inkscape:menu-tooltip="Blur as if the object flies vertically; adjust Standard Deviation to vary force"
       inkscape:menu="Blurs"
       inkscape:label="Motion blur, vertical"
       id="filter3853">
      <feGaussianBlur
         result="fbSourceGraphic"
         stdDeviation="5 0.01"
         in="SourceGraphic"
         id="feGaussianBlur3855" />
      <feColorMatrix
         id="feColorMatrix3857"
         values="0 0 0 -1 0 0 0 0 -1 0 0 0 0 -1 0 0 0 0 1 0"
         in="fbSourceGraphic"
         result="fbSourceGraphicAlpha" />
      <feGaussianBlur
         stdDeviation="0.01 5"
         in="fbSourceGraphic"
         id="feGaussianBlur3859" />
    </filter>
    <inkscape:perspective
       inkscape:persp3d-origin="290 : 193.33333 : 1"
       id="perspective3653-9"
       sodipodi:type="inkscape:persp3d"
       inkscape:vp_x="0 : 290 : 1"
       inkscape:vp_y="0 : 1000 : 0"
       inkscape:vp_z="580 : 290 : 1" />
    <inkscape:perspective
       inkscape:persp3d-origin="290 : 193.33333 : 1"
       id="perspective3653-5-5"
       sodipodi:type="inkscape:persp3d"
       inkscape:vp_x="0 : 290 : 1"
       inkscape:vp_y="0 : 1000 : 0"
       inkscape:vp_z="580 : 290 : 1" />
    <inkscape:perspective
       inkscape:persp3d-origin="290 : 193.33333 : 1"
       id="perspective3653"
       sodipodi:type="inkscape:persp3d"
       inkscape:vp_x="0 : 290 : 1"
       inkscape:vp_y="0 : 1000 : 0"
       inkscape:vp_z="580 : 290 : 1" />
    <inkscape:perspective
       inkscape:persp3d-origin="290 : 193.33333 : 1"
       id="perspective3653-5"
       sodipodi:type="inkscape:persp3d"
       inkscape:vp_x="0 : 290 : 1"
       inkscape:vp_y="0 : 1000 : 0"
       inkscape:vp_z="580 : 290 : 1" />
    <filter
       color-interpolation-filters="sRGB"
       inkscape:menu-tooltip="Blur as if the object flies vertically; adjust Standard Deviation to vary force"
       inkscape:menu="Blurs"
       inkscape:label="Motion blur, vertical"
       id="filter3853-0">
      <feGaussianBlur
         result="fbSourceGraphic"
         stdDeviation="5 0.01"
         in="SourceGraphic"
         id="feGaussianBlur3855-21" />
      <feColorMatrix
         id="feColorMatrix3857-0"
         values="0 0 0 -1 0 0 0 0 -1 0 0 0 0 -1 0 0 0 0 1 0"
         in="fbSourceGraphic"
         result="fbSourceGraphicAlpha" />
      <feGaussianBlur
         stdDeviation="0.01 5"
         in="fbSourceGraphic"
         id="feGaussianBlur3859-0" />
    </filter>
    <inkscape:perspective
       inkscape:persp3d-origin="290 : 193.33333 : 1"
       id="perspective3653-9-4"
       sodipodi:type="inkscape:persp3d"
       inkscape:vp_x="0 : 290 : 1"
       inkscape:vp_y="0 : 1000 : 0"
       inkscape:vp_z="580 : 290 : 1" />
    <inkscape:perspective
       inkscape:persp3d-origin="290 : 193.33333 : 1"
       id="perspective3653-5-5-2"
       sodipodi:type="inkscape:persp3d"
       inkscape:vp_x="0 : 290 : 1"
       inkscape:vp_y="0 : 1000 : 0"
       inkscape:vp_z="580 : 290 : 1" />
    <inkscape:perspective
       inkscape:persp3d-origin="290 : 193.33333 : 1"
       id="perspective3653-2"
       sodipodi:type="inkscape:persp3d"
       inkscape:vp_x="0 : 290 : 1"
       inkscape:vp_y="0 : 1000 : 0"
       inkscape:vp_z="580 : 290 : 1" />
    <inkscape:perspective
       inkscape:persp3d-origin="290 : 193.33333 : 1"
       id="perspective3653-5-4"
       sodipodi:type="inkscape:persp3d"
       inkscape:vp_x="0 : 290 : 1"
       inkscape:vp_y="0 : 1000 : 0"
       inkscape:vp_z="580 : 290 : 1" />
    <filter
       color-interpolation-filters="sRGB"
       inkscape:menu-tooltip="Blur as if the object flies vertically; adjust Standard Deviation to vary force"
       inkscape:menu="Blurs"
       inkscape:label="Motion blur, vertical"
       id="filter3853-3">
      <feGaussianBlur
         result="fbSourceGraphic"
         stdDeviation="5 0.01"
         in="SourceGraphic"
         id="feGaussianBlur3855-2" />
      <feColorMatrix
         id="feColorMatrix3857-2"
         values="0 0 0 -1 0 0 0 0 -1 0 0 0 0 -1 0 0 0 0 1 0"
         in="fbSourceGraphic"
         result="fbSourceGraphicAlpha" />
      <feGaussianBlur
         stdDeviation="0.01 5"
         in="fbSourceGraphic"
         id="feGaussianBlur3859-5" />
    </filter>
    <inkscape:perspective
       inkscape:persp3d-origin="290 : 193.33333 : 1"
       id="perspective3653-9-8"
       sodipodi:type="inkscape:persp3d"
       inkscape:vp_x="0 : 290 : 1"
       inkscape:vp_y="0 : 1000 : 0"
       inkscape:vp_z="580 : 290 : 1" />
    <inkscape:perspective
       inkscape:persp3d-origin="290 : 193.33333 : 1"
       id="perspective3653-5-5-7"
       sodipodi:type="inkscape:persp3d"
       inkscape:vp_x="0 : 290 : 1"
       inkscape:vp_y="0 : 1000 : 0"
       inkscape:vp_z="580 : 290 : 1" />
    <inkscape:perspective
       inkscape:persp3d-origin="290 : 193.33333 : 1"
       id="perspective3653-54"
       sodipodi:type="inkscape:persp3d"
       inkscape:vp_x="0 : 290 : 1"
       inkscape:vp_y="0 : 1000 : 0"
       inkscape:vp_z="580 : 290 : 1" />
    <inkscape:perspective
       inkscape:persp3d-origin="290 : 193.33333 : 1"
       id="perspective3653-5-0"
       sodipodi:type="inkscape:persp3d"
       inkscape:vp_x="0 : 290 : 1"
       inkscape:vp_y="0 : 1000 : 0"
       inkscape:vp_z="580 : 290 : 1" />
    <filter
       color-interpolation-filters="sRGB"
       inkscape:menu-tooltip="Blur as if the object flies vertically; adjust Standard Deviation to vary force"
       inkscape:menu="Blurs"
       inkscape:label="Motion blur, vertical"
       id="filter3853-5">
      <feGaussianBlur
         result="fbSourceGraphic"
         stdDeviation="5 0.01"
         in="SourceGraphic"
         id="feGaussianBlur3855-0" />
      <feColorMatrix
         id="feColorMatrix3857-29"
         values="0 0 0 -1 0 0 0 0 -1 0 0 0 0 -1 0 0 0 0 1 0"
         in="fbSourceGraphic"
         result="fbSourceGraphicAlpha" />
      <feGaussianBlur
         stdDeviation="0.01 5"
         in="fbSourceGraphic"
         id="feGaussianBlur3859-08" />
    </filter>
    <inkscape:perspective
       inkscape:persp3d-origin="290 : 193.33333 : 1"
       id="perspective3653-9-9"
       sodipodi:type="inkscape:persp3d"
       inkscape:vp_x="0 : 290 : 1"
       inkscape:vp_y="0 : 1000 : 0"
       inkscape:vp_z="580 : 290 : 1" />
    <inkscape:perspective
       inkscape:persp3d-origin="290 : 193.33333 : 1"
       id="perspective3653-5-5-4"
       sodipodi:type="inkscape:persp3d"
       inkscape:vp_x="0 : 290 : 1"
       inkscape:vp_y="0 : 1000 : 0"
       inkscape:vp_z="580 : 290 : 1" />
    <inkscape:perspective
       inkscape:persp3d-origin="290 : 193.33333 : 1"
       id="perspective3653-4"
       sodipodi:type="inkscape:persp3d"
       inkscape:vp_x="0 : 290 : 1"
       inkscape:vp_y="0 : 1000 : 0"
       inkscape:vp_z="580 : 290 : 1" />
    <inkscape:perspective
       inkscape:persp3d-origin="290 : 193.33333 : 1"
       id="perspective3653-5-6"
       sodipodi:type="inkscape:persp3d"
       inkscape:vp_x="0 : 290 : 1"
       inkscape:vp_y="0 : 1000 : 0"
       inkscape:vp_z="580 : 290 : 1" />
    <filter
       color-interpolation-filters="sRGB"
       inkscape:menu-tooltip="Blur as if the object flies vertically; adjust Standard Deviation to vary force"
       inkscape:menu="Blurs"
       inkscape:label="Motion blur, vertical"
       id="filter3853-9">
      <feGaussianBlur
         result="fbSourceGraphic"
         stdDeviation="5 0.01"
         in="SourceGraphic"
         id="feGaussianBlur3855-20" />
      <feColorMatrix
         id="feColorMatrix3857-8"
         values="0 0 0 -1 0 0 0 0 -1 0 0 0 0 -1 0 0 0 0 1 0"
         in="fbSourceGraphic"
         result="fbSourceGraphicAlpha" />
      <feGaussianBlur
         stdDeviation="0.01 5"
         in="fbSourceGraphic"
         id="feGaussianBlur3859-4" />
    </filter>
    <inkscape:perspective
       inkscape:persp3d-origin="290 : 193.33333 : 1"
       id="perspective3653-9-41"
       sodipodi:type="inkscape:persp3d"
       inkscape:vp_x="0 : 290 : 1"
       inkscape:vp_y="0 : 1000 : 0"
       inkscape:vp_z="580 : 290 : 1" />
    <inkscape:perspective
       inkscape:persp3d-origin="290 : 193.33333 : 1"
       id="perspective3653-5-5-8"
       sodipodi:type="inkscape:persp3d"
       inkscape:vp_x="0 : 290 : 1"
       inkscape:vp_y="0 : 1000 : 0"
       inkscape:vp_z="580 : 290 : 1" />
    <inkscape:perspective
       inkscape:persp3d-origin="290 : 193.33333 : 1"
       id="perspective3653-91"
       sodipodi:type="inkscape:persp3d"
       inkscape:vp_x="0 : 290 : 1"
       inkscape:vp_y="0 : 1000 : 0"
       inkscape:vp_z="580 : 290 : 1" />
    <inkscape:perspective
       inkscape:persp3d-origin="290 : 193.33333 : 1"
       id="perspective3653-5-05"
       sodipodi:type="inkscape:persp3d"
       inkscape:vp_x="0 : 290 : 1"
       inkscape:vp_y="0 : 1000 : 0"
       inkscape:vp_z="580 : 290 : 1" />
    <filter
       color-interpolation-filters="sRGB"
       inkscape:menu-tooltip="Blur as if the object flies vertically; adjust Standard Deviation to vary force"
       inkscape:menu="Blurs"
       inkscape:label="Motion blur, vertical"
       id="filter3853-53">
      <feGaussianBlur
         result="fbSourceGraphic"
         stdDeviation="5 0.01"
         in="SourceGraphic"
         id="feGaussianBlur3855-8" />
      <feColorMatrix
         id="feColorMatrix3857-6"
         values="0 0 0 -1 0 0 0 0 -1 0 0 0 0 -1 0 0 0 0 1 0"
         in="fbSourceGraphic"
         result="fbSourceGraphicAlpha" />
      <feGaussianBlur
         stdDeviation="0.01 5"
         in="fbSourceGraphic"
         id="feGaussianBlur3859-3" />
    </filter>
    <inkscape:perspective
       inkscape:persp3d-origin="290 : 193.33333 : 1"
       id="perspective3653-9-2"
       sodipodi:type="inkscape:persp3d"
       inkscape:vp_x="0 : 290 : 1"
       inkscape:vp_y="0 : 1000 : 0"
       inkscape:vp_z="580 : 290 : 1" />
    <inkscape:perspective
       inkscape:persp3d-origin="290 : 193.33333 : 1"
       id="perspective3653-5-5-3"
       sodipodi:type="inkscape:persp3d"
       inkscape:vp_x="0 : 290 : 1"
       inkscape:vp_y="0 : 1000 : 0"
       inkscape:vp_z="580 : 290 : 1" />
    <inkscape:perspective
       inkscape:persp3d-origin="290 : 193.33333 : 1"
       id="perspective3653-1"
       sodipodi:type="inkscape:persp3d"
       inkscape:vp_x="0 : 290 : 1"
       inkscape:vp_y="0 : 1000 : 0"
       inkscape:vp_z="580 : 290 : 1" />
    <inkscape:perspective
       inkscape:persp3d-origin="290 : 193.33333 : 1"
       id="perspective3653-5-7"
       sodipodi:type="inkscape:persp3d"
       inkscape:vp_x="0 : 290 : 1"
       inkscape:vp_y="0 : 1000 : 0"
       inkscape:vp_z="580 : 290 : 1" />
  </defs>
  <sodipodi:namedview
     id="base"
     pagecolor="#ffffff"
     bordercolor="#666666"
     borderopacity="1.0"
     inkscape:pageopacity="0.0"
     inkscape:pageshadow="2"
     inkscape:zoom="15.839192"
     inkscape:cx="27.810638"
     inkscape:cy="26.252613"
     inkscape:document-units="px"
     inkscape:current-layer="layer1"
     showgrid="false"
     inkscape:window-width="1920"
     inkscape:window-height="1017"
     inkscape:window-x="1912"
     inkscape:window-y="-8"
     inkscape:window-maximized="1" />
  <metadata
     id="metadata7">
    <rdf:RDF>
      <cc:Work
         rdf:about="">
        <dc:format>image/svg+xml</dc:format>
        <dc:type
           rdf:resource="http://purl.org/dc/dcmitype/StillImage" />
        <dc:title />
      </cc:Work>
    </rdf:RDF>
  </metadata>
  <g
     inkscape:label="Laag 1"
     inkscape:groupmode="layer"
     id="layer1"
     transform="translate(0,-1004.3622)">
    <rect
       ry="9.6995745"
       y="1005.8802"
       x="1.3561161"
       height="45.234459"
       width="44.999073"
       id="rect3435"
       style="fill:#ffffff;fill-opacity:1;stroke:#00aa44;stroke-width:0.88619024;stroke-opacity:1" />
    <rect
       style="fill:#00aa44;fill-opacity:1;stroke:none;stroke-width:0.73167545;stroke-opacity:1"
       id="rect3803"
       width="41.709263"
       height="41.236824"
       x="2.9865186"
       y="1007.6642"
       ry="8.8423662" />
    <path
       style="fill:#ffffff"
       d="m 18.581069,1029.1419 c -0.35859,-0.4998 -0.563983,-0.7843 -0.851407,-1.1793 -0.135154,-0.1858 -0.378067,-0.5223 -0.640481,-0.8872 -0.119234,-0.1659 -0.242432,-0.3365 -0.273775,-0.3791 -0.03134,-0.042 -0.297057,-0.4107 -0.590476,-0.8182 -0.29342,-0.4074 -0.586921,-0.8122 -0.652225,-0.8996 -0.0653,-0.087 -0.118735,-0.1694 -0.118735,-0.1822 0,-0.013 0.09792,-0.1663 0.217607,-0.3408 0.284721,-0.4151 1.064422,-1.54 1.234853,-1.7816 0.235906,-0.3342 0.685164,-0.9803 1.056092,-1.5185 0.198451,-0.2881 0.415603,-0.6029 0.482561,-0.6998 0.06696,-0.097 0.188073,-0.2729 0.269146,-0.3913 0.08107,-0.1182 0.161595,-0.2238 0.178941,-0.2346 0.0189,-0.012 0.03154,0.4509 0.03154,1.1548 l 0,1.1743 0.07732,0.029 c 0.257501,0.093 2.710676,0.1878 3.68551,0.1408 0.68311,-0.033 0.860343,-0.057 1.33844,-0.1849 0.399018,-0.1067 0.772294,-0.2817 0.993444,-0.4665 0.09183,-0.077 0.173951,-0.1395 0.182483,-0.1395 0.01785,0 -0.04995,0.1262 -0.675732,1.2575 -0.25155,0.4549 -0.615199,1.114 -0.808112,1.4649 -0.192911,0.3508 -0.43498,0.7848 -0.53793,0.9646 -0.102947,0.1797 -0.30111,0.5361 -0.440356,0.792 -0.23251,0.4271 -0.268815,0.4754 -0.444797,0.591 -0.409546,0.2692 -0.950383,0.4859 -1.480262,0.5932 -0.369999,0.075 -1.243169,0.1361 -1.555794,0.1089 l -0.267153,-0.023 0.0026,1.1952 c 0.0014,0.6572 -0.0022,1.1988 -0.0078,1.2034 -0.0057,0.011 -0.188145,-0.2396 -0.405495,-0.5425 z m -6.92429,-1.6997 c -0.569514,-0.024 -1.8249743,-0.2041 -2.0790053,-0.2981 -0.3333739,-0.1233 -0.5834773,-0.4712 -0.656241,-0.9131 -0.03367,-0.2044 -0.030881,-0.3128 0.016539,-0.6434 0.083555,-0.5824 0.2983778,-1.1933 0.7400409,-2.1046 l 0.3754977,-0.7746 2.201905,0 c 1.211047,0 2.201933,0.012 2.20197,0.026 3.5e-5,0.014 0.03146,0.3436 0.06983,0.7321 0.03836,0.3884 0.09217,0.9621 0.119568,1.2748 0.02739,0.3126 0.06539,0.7235 0.08444,0.913 0.08751,0.8707 0.142255,1.5753 0.123836,1.5938 -0.0111,0.011 -0.313585,0.055 -0.672184,0.098 -0.636992,0.076 -1.885908,0.1235 -2.526191,0.097 z m -3.8338399,-1.8265 c -0.4239953,-0.5984 -0.8095586,-1.1397 -0.856809,-1.2028 -0.070752,-0.095 -0.5208747,-0.7305 -0.8490684,-1.1997 -0.041734,-0.061 -0.1531723,-0.2172 -0.2476334,-0.3498 -0.5365401,-0.7534 -0.5459992,-0.7708 -0.5885196,-1.0853 -0.1041204,-0.7699 0.093256,-1.7064 0.5729209,-2.7184 0.1203642,-0.254 0.2188447,-0.4669 0.2188447,-0.4731 0,-0.011 -0.1043789,-0.059 -0.2319561,-0.1195 -0.127575,-0.059 -0.4020546,-0.1884 -0.6099553,-0.2864 -0.2079006,-0.098 -0.5823574,-0.2706 -0.832127,-0.3835 -0.2497685,-0.1128 -0.4546618,-0.2148 -0.4553187,-0.2266 -0.00118,-0.021 0.2060487,-0.063 1.3389913,-0.2709 0.3118499,-0.057 0.7757609,-0.1426 1.0309109,-0.1895 0.2551511,-0.047 0.7190611,-0.1324 1.0309121,-0.1896 1.0256661,-0.1882 1.5232004,-0.2804 1.9675913,-0.365 0.2411244,-0.045 0.4677072,-0.084 0.5035216,-0.084 0.074866,0 0.1436141,0.1127 1.0510286,1.7228 0.336423,0.5968 0.658321,1.1628 0.715328,1.2575 0.057,0.095 0.199416,0.3428 0.316466,0.5512 0.242538,0.4319 0.27006,0.4806 0.565708,0.9992 0.329954,0.5788 0.41784,0.7408 0.402004,0.7408 -0.008,0 -0.221409,-0.099 -0.474296,-0.2194 -0.769042,-0.3669 -1.685909,-0.7852 -1.695837,-0.7736 -0.01366,0.017 -0.26558,0.4575 -0.576494,1.0101 -0.453518,0.8063 -1.1794655,2.31 -1.3306878,2.7564 -0.2655686,0.7838 -0.3568059,1.567 -0.2304712,1.9783 0.031548,0.1023 0.052523,0.1917 0.046601,0.1976 -0.00592,0.011 -0.357664,-0.4789 -0.7816582,-1.0775 z m 13.0913999,-3.6881 c -0.04991,-0.013 -0.236209,-0.3759 -0.607967,-1.1831 -0.07419,-0.1611 -0.204667,-0.4401 -0.289962,-0.6201 -0.150827,-0.3184 -0.272892,-0.5789 -0.528748,-1.1284 -0.06837,-0.1469 -0.185252,-0.3971 -0.259727,-0.5562 -0.07448,-0.159 -0.122911,-0.3002 -0.107641,-0.3138 0.02979,-0.026 0.926003,-0.5667 1.711594,-1.0318 0.264601,-0.1567 0.527483,-0.3144 0.584183,-0.3505 0.279065,-0.1774 1.545571,-0.926 1.566651,-0.926 0.01329,0 0.09764,0.1201 0.187471,0.2669 0.08983,0.1469 0.218549,0.3524 0.28605,0.4565 0.285665,0.4411 0.806399,1.4558 1.052129,2.0501 0.293185,0.709 0.670527,1.8891 0.670527,2.097 0,0.1108 -0.164015,0.4195 -0.304185,0.5726 -0.284716,0.3109 -0.823741,0.5129 -1.706093,0.6392 -0.32109,0.046 -2.10466,0.068 -2.254288,0.028 z m -9.25756,-6.3073 c -0.378001,-0.2192 -0.849643,-0.4917 -1.048094,-0.6054 -0.198451,-0.1138 -0.414943,-0.2381 -0.481092,-0.2763 -0.06615,-0.038 -0.2749093,-0.1577 -0.46391,-0.2656 -0.1890004,-0.1078 -0.5148878,-0.2963 -0.7241925,-0.419 -0.2093069,-0.1224 -0.4070087,-0.2328 -0.4393399,-0.2453 -0.068394,-0.026 -0.084039,0.011 0.2793745,-0.6613 0.6591245,-1.2187 1.4509999,-2.2991 2.4050469,-3.2812 0.45593,-0.4694 0.632499,-0.5684 1.050341,-0.5891 0.498752,-0.025 0.816055,0.1255 1.294688,0.6124 0.502337,0.5112 0.713179,0.8257 1.369597,2.043 l 0.175998,0.3262 -0.451705,0.6338 c -0.248439,0.3487 -0.495963,0.696 -0.550055,0.7718 -0.05409,0.076 -0.152693,0.2153 -0.219114,0.3101 -0.06642,0.095 -0.193716,0.2748 -0.282879,0.4002 -0.08916,0.1253 -0.262629,0.3698 -0.385478,0.5433 -0.561879,0.7932 -0.7776,1.0848 -0.808522,1.0926 -0.01837,0.011 -0.342664,-0.171 -0.720664,-0.3902 z m 7.989566,0.1422 c -1.600071,-0.1588 -2.262473,-0.2237 -2.611643,-0.2557 -0.217351,-0.02 -0.874557,-0.082 -1.460458,-0.1377 -0.585902,-0.056 -1.100069,-0.1023 -1.142595,-0.1023 -0.04252,-4e-4 -0.07732,-0.013 -0.07732,-0.029 0,-0.015 0.150771,-0.1142 0.335046,-0.2194 0.184276,-0.1056 0.489683,-0.2805 0.678684,-0.3897 0.46485,-0.2685 0.519781,-0.3 0.744617,-0.4273 0.107135,-0.061 0.210219,-0.1291 0.229066,-0.1518 0.03896,-0.047 -0.177044,-0.5399 -0.655599,-1.4959 -0.920202,-1.8383 -1.483059,-2.6796 -2.156544,-3.2233 -0.254246,-0.2054 -0.604862,-0.3993 -0.738819,-0.4089 -0.03779,0 0.01632,-0.017 0.120272,-0.031 0.103949,-0.014 1.384601,-0.028 2.845889,-0.03 l 2.656888,-0.011 0.229665,0.1276 c 0.732243,0.407 1.376464,1.0965 1.886517,2.0191 0.117468,0.2126 0.226787,0.4087 0.242931,0.436 0.02367,0.04 0.107221,0.011 0.431055,-0.1818 0.220936,-0.1271 0.467281,-0.268 0.547435,-0.3129 0.08015,-0.045 0.284907,-0.1635 0.455008,-0.2633 0.577232,-0.3388 0.670093,-0.3853 0.670093,-0.3347 0,0.026 -0.01363,0.062 -0.03031,0.08 -0.01667,0.019 -0.355701,0.7461 -0.753411,1.6177 -0.39771,0.8716 -0.787464,1.7245 -0.866118,1.895 -0.07866,0.1705 -0.182006,0.3953 -0.229666,0.4996 -0.04767,0.1045 -0.130088,0.2825 -0.183174,0.3961 -0.05308,0.1137 -0.134365,0.292 -0.180622,0.3962 -0.04626,0.1045 -0.126673,0.2787 -0.178703,0.3876 -0.10983,0.2301 -0.04566,0.2187 -0.808193,0.143 z"
       id="path4209"
       inkscape:connector-curvature="0" />
    <path
       style="fill:#ffffff"
       d="m 31.848693,1046.3525 c -1.139841,-0.1135 -2.210925,-0.4722 -3.128641,-1.048 -0.828367,-0.5196 -1.438318,-1.0948 -2.106456,-1.9863 -0.119716,-0.1597 -0.408987,-0.6621 -0.564457,-0.9804 -0.647095,-1.3247 -0.860775,-2.925 -0.577926,-4.3282 0.303503,-1.5057 1.132489,-3.4205 2.460437,-5.6833 0.179453,-0.3058 0.396012,-0.6654 0.481242,-0.7991 0.08523,-0.1336 0.21287,-0.336 0.283643,-0.4496 0.105666,-0.1698 1.031295,-1.5643 1.206339,-1.8174 0.225081,-0.3256 0.493634,-0.7008 0.770528,-1.0766 0.180364,-0.2449 0.37392,-0.5088 0.430124,-0.5865 0.09088,-0.1256 0.309028,-0.4124 0.795713,-1.0457 0.271969,-0.354 0.559079,-0.7058 0.575942,-0.7058 0.03864,0 0.957873,1.1854 1.557217,2.0082 0.165134,0.2267 0.399175,0.5457 0.520095,0.7089 0.346092,0.4672 1.353606,1.9564 1.701327,2.5149 0.07078,0.1136 0.198429,0.316 0.283657,0.4496 0.696184,1.0919 1.585894,2.7525 2.0598,3.8445 0.728605,1.6789 1.000127,2.7458 1.000127,3.9295 0,1.8823 -0.736765,3.6382 -2.093723,4.9898 -1.082808,1.0785 -2.383918,1.7422 -3.907407,1.9932 -0.469163,0.077 -1.322587,0.1106 -1.747581,0.068 z m -1.743129,-2.7937 c -0.116804,-0.364 -0.346414,-1.2376 -0.466203,-1.7738 -0.02025,-0.091 -0.08204,-0.4245 -0.137296,-0.7419 -0.28772,-1.6525 -0.09729,-3.2297 0.764372,-6.3309 0.131443,-0.473 0.275306,-0.9635 0.415813,-1.4178 0.08134,-0.2629 0.192817,-0.6265 0.24773,-0.8079 0.05491,-0.1813 0.134216,-0.4409 0.176229,-0.577 0.348891,-1.1295 0.618886,-2.1475 0.655452,-2.4713 0.0203,-0.1796 0.01146,-0.1676 -0.240719,0.3281 -0.2448,0.4811 -1.155775,2.1053 -1.405549,2.5059 -0.06218,0.1 -0.180978,0.3001 -0.263985,0.4451 -0.08301,0.1452 -0.20351,0.3529 -0.267783,0.4617 -1.625548,2.752 -2.248487,4.1715 -2.352923,5.3616 -0.07592,0.8651 0.111113,1.9829 0.468382,2.7993 0.09935,0.227 0.294336,0.6041 0.341005,0.6594 0.02293,0.027 0.06467,0.095 0.09275,0.1504 0.07835,0.1549 0.473053,0.631 0.736344,0.8883 0.376562,0.3679 0.570928,0.5098 1.247546,0.9108 0.05393,0.032 0.103945,0.052 0.111141,0.045 0.0072,-0.01 -0.04784,-0.2029 -0.122307,-0.435 z"
       id="path4207"
       inkscape:connector-curvature="0" />
    <path
       style="fill:none;fill-rule:evenodd;stroke:#ffffff;stroke-width:1px;stroke-linecap:butt;stroke-linejoin:miter;stroke-opacity:1"
       d="m 6.502857,1045.6068 34.408321,-34.7871"
       id="path4211"
       inkscape:connector-curvature="0" />
  </g>
</svg>
