<?xml version="1.0" encoding="UTF-8" standalone="no"?>
<!-- Created with Inkscape (http://www.inkscape.org/) -->

<svg
   xmlns:dc="http://purl.org/dc/elements/1.1/"
   xmlns:cc="http://creativecommons.org/ns#"
   xmlns:rdf="http://www.w3.org/1999/02/22-rdf-syntax-ns#"
   xmlns:svg="http://www.w3.org/2000/svg"
   xmlns="http://www.w3.org/2000/svg"
   xmlns:sodipodi="http://sodipodi.sourceforge.net/DTD/sodipodi-0.dtd"
   xmlns:inkscape="http://www.inkscape.org/namespaces/inkscape"
   width="48"
   height="48"
   viewBox="0 0 48 48"
   id="svg2"
   version="1.1"
   inkscape:version="0.92.2 (5c3e80d, 2017-08-06)"
   sodipodi:docname="CONTACT2.svg">
  <defs
     id="defs4">
    <filter
       color-interpolation-filters="sRGB"
       inkscape:menu-tooltip="Blur as if the object flies vertically; adjust Standard Deviation to vary force"
       inkscape:menu="Blurs"
       inkscape:label="Motion blur, vertical"
       id="filter3853">
      <feGaussianBlur
         result="fbSourceGraphic"
         stdDeviation="5 0.01"
         in="SourceGraphic"
         id="feGaussianBlur3855" />
      <feColorMatrix
         id="feColorMatrix3857"
         values="0 0 0 -1 0 0 0 0 -1 0 0 0 0 -1 0 0 0 0 1 0"
         in="fbSourceGraphic"
         result="fbSourceGraphicAlpha" />
      <feGaussianBlur
         stdDeviation="0.01 5"
         in="fbSourceGraphic"
         id="feGaussianBlur3859" />
    </filter>
    <inkscape:perspective
       inkscape:persp3d-origin="290 : 193.33333 : 1"
       id="perspective3653-9"
       sodipodi:type="inkscape:persp3d"
       inkscape:vp_x="0 : 290 : 1"
       inkscape:vp_y="0 : 1000 : 0"
       inkscape:vp_z="580 : 290 : 1" />
    <inkscape:perspective
       inkscape:persp3d-origin="290 : 193.33333 : 1"
       id="perspective3653-5-5"
       sodipodi:type="inkscape:persp3d"
       inkscape:vp_x="0 : 290 : 1"
       inkscape:vp_y="0 : 1000 : 0"
       inkscape:vp_z="580 : 290 : 1" />
    <inkscape:perspective
       inkscape:persp3d-origin="290 : 193.33333 : 1"
       id="perspective3653"
       sodipodi:type="inkscape:persp3d"
       inkscape:vp_x="0 : 290 : 1"
       inkscape:vp_y="0 : 1000 : 0"
       inkscape:vp_z="580 : 290 : 1" />
    <inkscape:perspective
       inkscape:persp3d-origin="290 : 193.33333 : 1"
       id="perspective3653-5"
       sodipodi:type="inkscape:persp3d"
       inkscape:vp_x="0 : 290 : 1"
       inkscape:vp_y="0 : 1000 : 0"
       inkscape:vp_z="580 : 290 : 1" />
    <filter
       color-interpolation-filters="sRGB"
       inkscape:menu-tooltip="Blur as if the object flies vertically; adjust Standard Deviation to vary force"
       inkscape:menu="Blurs"
       inkscape:label="Motion blur, vertical"
       id="filter3853-0">
      <feGaussianBlur
         result="fbSourceGraphic"
         stdDeviation="5 0.01"
         in="SourceGraphic"
         id="feGaussianBlur3855-21" />
      <feColorMatrix
         id="feColorMatrix3857-0"
         values="0 0 0 -1 0 0 0 0 -1 0 0 0 0 -1 0 0 0 0 1 0"
         in="fbSourceGraphic"
         result="fbSourceGraphicAlpha" />
      <feGaussianBlur
         stdDeviation="0.01 5"
         in="fbSourceGraphic"
         id="feGaussianBlur3859-0" />
    </filter>
    <inkscape:perspective
       inkscape:persp3d-origin="290 : 193.33333 : 1"
       id="perspective3653-9-4"
       sodipodi:type="inkscape:persp3d"
       inkscape:vp_x="0 : 290 : 1"
       inkscape:vp_y="0 : 1000 : 0"
       inkscape:vp_z="580 : 290 : 1" />
    <inkscape:perspective
       inkscape:persp3d-origin="290 : 193.33333 : 1"
       id="perspective3653-5-5-2"
       sodipodi:type="inkscape:persp3d"
       inkscape:vp_x="0 : 290 : 1"
       inkscape:vp_y="0 : 1000 : 0"
       inkscape:vp_z="580 : 290 : 1" />
    <inkscape:perspective
       inkscape:persp3d-origin="290 : 193.33333 : 1"
       id="perspective3653-2"
       sodipodi:type="inkscape:persp3d"
       inkscape:vp_x="0 : 290 : 1"
       inkscape:vp_y="0 : 1000 : 0"
       inkscape:vp_z="580 : 290 : 1" />
    <inkscape:perspective
       inkscape:persp3d-origin="290 : 193.33333 : 1"
       id="perspective3653-5-4"
       sodipodi:type="inkscape:persp3d"
       inkscape:vp_x="0 : 290 : 1"
       inkscape:vp_y="0 : 1000 : 0"
       inkscape:vp_z="580 : 290 : 1" />
    <filter
       color-interpolation-filters="sRGB"
       inkscape:menu-tooltip="Blur as if the object flies vertically; adjust Standard Deviation to vary force"
       inkscape:menu="Blurs"
       inkscape:label="Motion blur, vertical"
       id="filter3853-3">
      <feGaussianBlur
         result="fbSourceGraphic"
         stdDeviation="5 0.01"
         in="SourceGraphic"
         id="feGaussianBlur3855-2" />
      <feColorMatrix
         id="feColorMatrix3857-2"
         values="0 0 0 -1 0 0 0 0 -1 0 0 0 0 -1 0 0 0 0 1 0"
         in="fbSourceGraphic"
         result="fbSourceGraphicAlpha" />
      <feGaussianBlur
         stdDeviation="0.01 5"
         in="fbSourceGraphic"
         id="feGaussianBlur3859-5" />
    </filter>
    <inkscape:perspective
       inkscape:persp3d-origin="290 : 193.33333 : 1"
       id="perspective3653-9-8"
       sodipodi:type="inkscape:persp3d"
       inkscape:vp_x="0 : 290 : 1"
       inkscape:vp_y="0 : 1000 : 0"
       inkscape:vp_z="580 : 290 : 1" />
    <inkscape:perspective
       inkscape:persp3d-origin="290 : 193.33333 : 1"
       id="perspective3653-5-5-7"
       sodipodi:type="inkscape:persp3d"
       inkscape:vp_x="0 : 290 : 1"
       inkscape:vp_y="0 : 1000 : 0"
       inkscape:vp_z="580 : 290 : 1" />
    <inkscape:perspective
       inkscape:persp3d-origin="290 : 193.33333 : 1"
       id="perspective3653-54"
       sodipodi:type="inkscape:persp3d"
       inkscape:vp_x="0 : 290 : 1"
       inkscape:vp_y="0 : 1000 : 0"
       inkscape:vp_z="580 : 290 : 1" />
    <inkscape:perspective
       inkscape:persp3d-origin="290 : 193.33333 : 1"
       id="perspective3653-5-0"
       sodipodi:type="inkscape:persp3d"
       inkscape:vp_x="0 : 290 : 1"
       inkscape:vp_y="0 : 1000 : 0"
       inkscape:vp_z="580 : 290 : 1" />
    <filter
       color-interpolation-filters="sRGB"
       inkscape:menu-tooltip="Blur as if the object flies vertically; adjust Standard Deviation to vary force"
       inkscape:menu="Blurs"
       inkscape:label="Motion blur, vertical"
       id="filter3853-5">
      <feGaussianBlur
         result="fbSourceGraphic"
         stdDeviation="5 0.01"
         in="SourceGraphic"
         id="feGaussianBlur3855-0" />
      <feColorMatrix
         id="feColorMatrix3857-29"
         values="0 0 0 -1 0 0 0 0 -1 0 0 0 0 -1 0 0 0 0 1 0"
         in="fbSourceGraphic"
         result="fbSourceGraphicAlpha" />
      <feGaussianBlur
         stdDeviation="0.01 5"
         in="fbSourceGraphic"
         id="feGaussianBlur3859-08" />
    </filter>
    <inkscape:perspective
       inkscape:persp3d-origin="290 : 193.33333 : 1"
       id="perspective3653-9-9"
       sodipodi:type="inkscape:persp3d"
       inkscape:vp_x="0 : 290 : 1"
       inkscape:vp_y="0 : 1000 : 0"
       inkscape:vp_z="580 : 290 : 1" />
    <inkscape:perspective
       inkscape:persp3d-origin="290 : 193.33333 : 1"
       id="perspective3653-5-5-4"
       sodipodi:type="inkscape:persp3d"
       inkscape:vp_x="0 : 290 : 1"
       inkscape:vp_y="0 : 1000 : 0"
       inkscape:vp_z="580 : 290 : 1" />
    <inkscape:perspective
       inkscape:persp3d-origin="290 : 193.33333 : 1"
       id="perspective3653-4"
       sodipodi:type="inkscape:persp3d"
       inkscape:vp_x="0 : 290 : 1"
       inkscape:vp_y="0 : 1000 : 0"
       inkscape:vp_z="580 : 290 : 1" />
    <inkscape:perspective
       inkscape:persp3d-origin="290 : 193.33333 : 1"
       id="perspective3653-5-6"
       sodipodi:type="inkscape:persp3d"
       inkscape:vp_x="0 : 290 : 1"
       inkscape:vp_y="0 : 1000 : 0"
       inkscape:vp_z="580 : 290 : 1" />
    <filter
       color-interpolation-filters="sRGB"
       inkscape:menu-tooltip="Blur as if the object flies vertically; adjust Standard Deviation to vary force"
       inkscape:menu="Blurs"
       inkscape:label="Motion blur, vertical"
       id="filter3853-9">
      <feGaussianBlur
         result="fbSourceGraphic"
         stdDeviation="5 0.01"
         in="SourceGraphic"
         id="feGaussianBlur3855-20" />
      <feColorMatrix
         id="feColorMatrix3857-8"
         values="0 0 0 -1 0 0 0 0 -1 0 0 0 0 -1 0 0 0 0 1 0"
         in="fbSourceGraphic"
         result="fbSourceGraphicAlpha" />
      <feGaussianBlur
         stdDeviation="0.01 5"
         in="fbSourceGraphic"
         id="feGaussianBlur3859-4" />
    </filter>
    <inkscape:perspective
       inkscape:persp3d-origin="290 : 193.33333 : 1"
       id="perspective3653-9-41"
       sodipodi:type="inkscape:persp3d"
       inkscape:vp_x="0 : 290 : 1"
       inkscape:vp_y="0 : 1000 : 0"
       inkscape:vp_z="580 : 290 : 1" />
    <inkscape:perspective
       inkscape:persp3d-origin="290 : 193.33333 : 1"
       id="perspective3653-5-5-8"
       sodipodi:type="inkscape:persp3d"
       inkscape:vp_x="0 : 290 : 1"
       inkscape:vp_y="0 : 1000 : 0"
       inkscape:vp_z="580 : 290 : 1" />
    <inkscape:perspective
       inkscape:persp3d-origin="290 : 193.33333 : 1"
       id="perspective3653-91"
       sodipodi:type="inkscape:persp3d"
       inkscape:vp_x="0 : 290 : 1"
       inkscape:vp_y="0 : 1000 : 0"
       inkscape:vp_z="580 : 290 : 1" />
    <inkscape:perspective
       inkscape:persp3d-origin="290 : 193.33333 : 1"
       id="perspective3653-5-05"
       sodipodi:type="inkscape:persp3d"
       inkscape:vp_x="0 : 290 : 1"
       inkscape:vp_y="0 : 1000 : 0"
       inkscape:vp_z="580 : 290 : 1" />
    <filter
       color-interpolation-filters="sRGB"
       inkscape:menu-tooltip="Blur as if the object flies vertically; adjust Standard Deviation to vary force"
       inkscape:menu="Blurs"
       inkscape:label="Motion blur, vertical"
       id="filter3853-53">
      <feGaussianBlur
         result="fbSourceGraphic"
         stdDeviation="5 0.01"
         in="SourceGraphic"
         id="feGaussianBlur3855-8" />
      <feColorMatrix
         id="feColorMatrix3857-6"
         values="0 0 0 -1 0 0 0 0 -1 0 0 0 0 -1 0 0 0 0 1 0"
         in="fbSourceGraphic"
         result="fbSourceGraphicAlpha" />
      <feGaussianBlur
         stdDeviation="0.01 5"
         in="fbSourceGraphic"
         id="feGaussianBlur3859-3" />
    </filter>
    <inkscape:perspective
       inkscape:persp3d-origin="290 : 193.33333 : 1"
       id="perspective3653-9-2"
       sodipodi:type="inkscape:persp3d"
       inkscape:vp_x="0 : 290 : 1"
       inkscape:vp_y="0 : 1000 : 0"
       inkscape:vp_z="580 : 290 : 1" />
    <inkscape:perspective
       inkscape:persp3d-origin="290 : 193.33333 : 1"
       id="perspective3653-5-5-3"
       sodipodi:type="inkscape:persp3d"
       inkscape:vp_x="0 : 290 : 1"
       inkscape:vp_y="0 : 1000 : 0"
       inkscape:vp_z="580 : 290 : 1" />
    <inkscape:perspective
       inkscape:persp3d-origin="290 : 193.33333 : 1"
       id="perspective3653-1"
       sodipodi:type="inkscape:persp3d"
       inkscape:vp_x="0 : 290 : 1"
       inkscape:vp_y="0 : 1000 : 0"
       inkscape:vp_z="580 : 290 : 1" />
    <inkscape:perspective
       inkscape:persp3d-origin="290 : 193.33333 : 1"
       id="perspective3653-5-7"
       sodipodi:type="inkscape:persp3d"
       inkscape:vp_x="0 : 290 : 1"
       inkscape:vp_y="0 : 1000 : 0"
       inkscape:vp_z="580 : 290 : 1" />
  </defs>
  <sodipodi:namedview
     id="base"
     pagecolor="#ffffff"
     bordercolor="#666666"
     borderopacity="1.0"
     inkscape:pageopacity="0.0"
     inkscape:pageshadow="2"
     inkscape:zoom="11.2"
     inkscape:cx="10.159684"
     inkscape:cy="21.859552"
     inkscape:document-units="px"
     inkscape:current-layer="layer1"
     showgrid="false"
     inkscape:window-width="1920"
     inkscape:window-height="1017"
     inkscape:window-x="-8"
     inkscape:window-y="-8"
     inkscape:window-maximized="1" />
  <metadata
     id="metadata7">
    <rdf:RDF>
      <cc:Work
         rdf:about="">
        <dc:format>image/svg+xml</dc:format>
        <dc:type
           rdf:resource="http://purl.org/dc/dcmitype/StillImage" />
        <dc:title></dc:title>
      </cc:Work>
    </rdf:RDF>
  </metadata>
  <g
     inkscape:label="Laag 1"
     inkscape:groupmode="layer"
     id="layer1"
     transform="translate(0,-1004.3622)">
    <rect
       ry="9.6995745"
       y="1005.8802"
       x="1.3561161"
       height="45.234459"
       width="44.999073"
       id="rect3435"
       style="fill:#ffffff;fill-opacity:0.54901963;stroke:#e77c23;stroke-width:0.88619024;stroke-opacity:1" />
    <path
       inkscape:connector-curvature="0"
       style="fill:#1b4145;stroke-width:0.0739125"
       d="m 41.576751,1040.6242 v 2.5129 c -2.983281,0 -7.076605,-2.8186 -11.40166,-2.8186 -2.548399,0 -4.14553,1.114 -5.105416,2.2272 h -1.283319 l -1.581332,-7.8052 z"
       id="path866" />
    <path
       inkscape:connector-curvature="0"
       style="fill:#609399;stroke-width:0.0739125"
       d="m 23.786356,1034.7405 v 7.8052 h -1.283248 c -0.959887,-1.1132 -2.557089,-2.2272 -5.105417,-2.2272 -4.325054,0 -8.4183772,2.8186 -11.4016596,2.8186 v -2.5129 z"
       id="path868" />
    <path
       inkscape:connector-curvature="0"
       style="fill:#6fc5d6;stroke-width:0.0739125"
       d="m 41.576751,1015.3195 v 25.3048 c -2.983281,0 -7.076605,-2.8188 -11.40166,-2.8188 -2.548399,0 -4.14553,1.1141 -5.105416,2.2274 h -1.283319 l -3.162736,-11.5384 3.162736,-11.5383 c 0,0 1.292008,-4.4555 6.388735,-4.4555 4.325055,-1e-4 8.418379,2.8188 11.40166,2.8188 z"
       id="path870" />
    <path
       inkscape:connector-curvature="0"
       style="fill:#b4e5ea;stroke-width:0.0739125"
       d="m 23.786356,1016.9562 v 23.0767 h -1.283248 c -0.959887,-1.1141 -2.557089,-2.2275 -5.105417,-2.2275 -4.325054,0 -8.4183772,2.8188 -11.4016596,2.8188 v -25.3047 c 2.9832824,0 7.0766056,-2.8188 11.4016596,-2.8188 5.096656,-1e-4 6.388665,4.4555 6.388665,4.4555 z"
       id="path872" />
    <path
       inkscape:connector-curvature="0"
       d="m 24.379364,1038.1699 v -18.7593 c 0,-0.3472 -0.26541,-0.6284 -0.593008,-0.6284 -0.327599,0 -0.593009,0.2812 -0.593009,0.6284 v 18.7593 c 0,0.3471 0.26541,0.6283 0.593009,0.6283 0.327598,0 0.593008,-0.2812 0.593008,-0.6283 z"
       id="path874"
       style="stroke-width:0.0739125" />
    <path
       inkscape:connector-curvature="0"
       d="m 41.576751,1014.6914 c -1.253734,0 -2.815964,-0.5732 -4.469967,-1.18 -2.094703,-0.7684 -4.469035,-1.6394 -6.931406,-1.6394 -2.849212,0 -4.58745,1.3228 -5.543889,2.4325 -0.357686,0.4152 -0.634945,0.831 -0.845061,1.2001 -0.210189,-0.3691 -0.487377,-0.7849 -0.845063,-1.2001 -0.956511,-1.1097 -2.694677,-2.4325 -5.543889,-2.4325 -2.462442,0 -4.836702,0.871 -6.931405,1.6394 -1.6541459,0.6068 -3.2163777,1.18 -4.4701108,1.18 -0.3275988,0 -0.5930085,0.2811 -0.5930085,0.6282 v 25.305 c 0,0.347 0.2654097,0.6283 0.5930085,0.6283 1.4532938,0 3.1071544,-0.6068 4.8580298,-1.2492 2.006376,-0.7359 4.280461,-1.5702 6.543271,-1.5702 1.940311,0 3.510871,0.6807 4.66802,2.0231 0.220745,0.2562 0.595952,0.2741 0.837809,0.04 0.241857,-0.234 0.258804,-0.6314 0.03799,-0.8877 -0.956512,-1.1095 -2.694677,-2.4322 -5.543817,-2.4322 -2.462444,0 -4.836703,0.8708 -6.931405,1.6394 -1.4023091,0.5145 -2.738696,1.0046 -3.8769599,1.142 v -24.0418 c 1.3039293,-0.1317 2.7480322,-0.6615 4.2650219,-1.2179 2.006375,-0.736 4.28046,-1.5702 6.54327,-1.5702 4.576535,0 5.773969,3.8501 5.822154,4.0118 0.07655,0.2637 0.306486,0.4437 0.566942,0.4437 0.260455,0 0.490391,-0.1799 0.566941,-0.4437 0.01156,-0.04 1.21632,-4.0118 5.822153,-4.0118 2.262882,0 4.536967,0.8342 6.543271,1.5702 1.517062,0.5565 2.961093,1.0862 4.265022,1.2179 v 24.0418 c -1.138263,-0.1374 -2.47465,-0.6275 -3.87696,-1.1419 -2.094702,-0.7686 -4.469034,-1.6394 -6.931404,-1.6394 -2.849285,0 -4.587522,1.3227 -5.54389,2.4323 -0.220816,0.2564 -0.203869,0.6536 0.03799,0.8876 0.241928,0.2339 0.617065,0.216 0.837809,-0.04 1.157149,-1.3426 2.72771,-2.0232 4.668093,-2.0232 2.262882,0 4.536966,0.8343 6.543342,1.5702 1.750948,0.6424 3.404808,1.2491 4.85803,1.2491 0.327598,0 0.593008,-0.2813 0.593008,-0.6283 v -25.3051 c 7.3e-5,-0.347 -0.265338,-0.6282 -0.592937,-0.6282 z"
       id="path876"
       style="stroke-width:0.0739125" />
    <path
       inkscape:connector-curvature="0"
       d="m 41.576751,1042.5092 c -1.253734,0 -2.815964,-0.5731 -4.469967,-1.1798 -2.094703,-0.7684 -4.469035,-1.6393 -6.931406,-1.6393 -2.675934,0 -4.371803,1.1667 -5.360485,2.2277 h -2.057147 c -0.988754,-1.061 -2.684694,-2.2276 -5.360413,-2.2276 -2.462443,0 -4.836702,0.871 -6.931405,1.6393 -1.6540029,0.6067 -3.2162347,1.1798 -4.4699678,1.1798 -0.3275988,0 -0.5930085,0.2812 -0.5930085,0.6283 0,0.347 0.2654097,0.6282 0.5930085,0.6282 1.4532938,0 3.1071544,-0.6067 4.8580298,-1.249 2.006376,-0.7359 4.280461,-1.5702 6.543271,-1.5702 1.940311,0 3.510871,0.6807 4.66802,2.023 0.112383,0.1304 0.271299,0.2046 0.437898,0.2046 l 2.566065,10e-5 c 0.1666,0 0.325516,-0.074 0.437899,-0.2046 1.157149,-1.3424 2.727709,-2.0231 4.668092,-2.0231 2.262882,0 4.536966,0.8343 6.543343,1.5702 1.750947,0.6423 3.404879,1.249 4.85803,1.249 0.327598,0 0.593008,-0.2812 0.593008,-0.6282 0,-0.3471 -0.265267,-0.6283 -0.592865,-0.6283 z"
       id="path878"
       style="stroke-width:0.0739125" />
    <g
       transform="matrix(0.07181018,0,0,0.07607636,5.4029517,1008.3433)"
       id="g880" />
    <g
       transform="matrix(0.07181018,0,0,0.07607636,5.4029517,1008.3433)"
       id="g882" />
    <g
       transform="matrix(0.07181018,0,0,0.07607636,5.4029517,1008.3433)"
       id="g884" />
    <g
       transform="matrix(0.07181018,0,0,0.07607636,5.4029517,1008.3433)"
       id="g886" />
    <g
       transform="matrix(0.07181018,0,0,0.07607636,5.4029517,1008.3433)"
       id="g888" />
    <g
       transform="matrix(0.07181018,0,0,0.07607636,5.4029517,1008.3433)"
       id="g890" />
    <g
       transform="matrix(0.07181018,0,0,0.07607636,5.4029517,1008.3433)"
       id="g892" />
    <g
       transform="matrix(0.07181018,0,0,0.07607636,5.4029517,1008.3433)"
       id="g894" />
    <g
       transform="matrix(0.07181018,0,0,0.07607636,5.4029517,1008.3433)"
       id="g896" />
    <g
       transform="matrix(0.07181018,0,0,0.07607636,5.4029517,1008.3433)"
       id="g898" />
    <g
       transform="matrix(0.07181018,0,0,0.07607636,5.4029517,1008.3433)"
       id="g900" />
    <g
       transform="matrix(0.07181018,0,0,0.07607636,5.4029517,1008.3433)"
       id="g902" />
    <g
       transform="matrix(0.07181018,0,0,0.07607636,5.4029517,1008.3433)"
       id="g904" />
    <g
       transform="matrix(0.07181018,0,0,0.07607636,5.4029517,1008.3433)"
       id="g906" />
    <g
       transform="matrix(0.07181018,0,0,0.07607636,5.4029517,1008.3433)"
       id="g908" />
  </g>
</svg>
